VotoSerifGX-CondensedLightText.ufo
<glyph name="exclam" format="2">
  <advance width="179"/>
  <unicode hex="0021"/>
  <outline>
    <contour>
      <point x="81" y="167" type="line"/>
      <point x="105" y="167" type="line"/>
      <point x="107" y="714" type="line"/>
      <point x="80" y="714" type="line"/>
    </contour>
    <contour>
      <point x="91" y="-5" type="curve" smooth="yes"/>
      <point x="104" y="-5"/>
      <point x="118" y="6"/>
      <point x="118" y="33" type="curve" smooth="yes"/>
      <point x="118" y="63"/>
      <point x="104" y="75"/>
      <point x="91" y="75" type="curve" smooth="yes"/>
      <point x="73" y="75"/>
      <point x="60" y="63"/>
      <point x="60" y="33" type="curve" smooth="yes"/>
      <point x="60" y="6"/>
      <point x="73" y="-5"/>
    </contour>
  </outline>
</glyph>
<glyph name="comma" format="2">
  <advance width="132"/>
  <unicode hex="002C"/>
  <outline>
    <contour>
      <point x="13" y="-154" type="line"/>
      <point x="78" y="-122"/>
      <point x="102" y="-52"/>
      <point x="102" y="0" type="curve" smooth="yes"/>
      <point x="102" y="59"/>
      <point x="78" y="73"/>
      <point x="59" y="73" type="curve" smooth="yes"/>
      <point x="44" y="73"/>
      <point x="27" y="63"/>
      <point x="27" y="50" type="curve" smooth="yes"/>
      <point x="27" y="15"/>
      <point x="69" y="16"/>
      <point x="69" y="-23" type="curve" smooth="yes"/>
      <point x="69" y="-61"/>
      <point x="52" y="-107"/>
      <point x="13" y="-125" type="curve"/>
    </contour>
  </outline>
</glyph>
<glyph name="slash" format="2">
  <advance width="173"/>
  <unicode hex="002F"/>
  <outline>
    <contour>
      <point x="0" y="-121" type="line"/>
      <point x="29" y="-121" type="line"/>
      <point x="173" y="760" type="line"/>
      <point x="144" y="760" type="line"/>
    </contour>
  </outline>
</glyph>
<glyph name="greater" format="2">
  <advance width="336"/>
  <unicode hex="003E"/>
  <outline>
    <contour>
      <point x="40" y="116" type="line"/>
      <point x="296" y="344" type="line"/>
      <point x="296" y="371" type="line"/>
      <point x="40" y="600" type="line"/>
      <point x="40" y="560" type="line"/>
      <point x="267" y="357" type="line"/>
      <point x="40" y="156" type="line"/>
    </contour>
  </outline>
</glyph>
<glyph name="B" format="2">
  <advance width="375"/>
  <unicode hex="0042"/>
  <anchor x="188" y="0" name="bottom"/>
  <anchor x="188" y="714" name="top"/>
  <anchor x="355" y="714" name="topright"/>
  <outline>
    <contour>
      <point x="25" y="0" type="line"/>
      <point x="190" y="0" type="line" smooth="yes"/>
      <point x="288" y="0"/>
      <point x="331" y="63"/>
      <point x="331" y="182" type="curve" smooth="yes"/>
      <point x="331" y="324"/>
      <point x="280" y="361"/>
      <point x="242" y="380" type="curve"/>
      <point x="242" y="384" type="line"/>
      <point x="272" y="396"/>
      <point x="314" y="442"/>
      <point x="314" y="544" type="curve" smooth="yes"/>
      <point x="314" y="652"/>
      <point x="268" y="714"/>
      <point x="173" y="714" type="curve" smooth="yes"/>
      <point x="25" y="714" type="line"/>
      <point x="25" y="694" type="line"/>
      <point x="26" y="694" type="line" smooth="yes"/>
      <point x="76" y="694"/>
      <point x="82" y="685"/>
      <point x="82" y="608" type="curve" smooth="yes"/>
      <point x="82" y="111" type="line" smooth="yes"/>
      <point x="82" y="31"/>
      <point x="76" y="20"/>
      <point x="26" y="20" type="curve" smooth="yes"/>
      <point x="25" y="20" type="line"/>
    </contour>
    <contour>
      <point x="110" y="25" type="line"/>
      <point x="110" y="361" type="line"/>
      <point x="190" y="361" type="line" smooth="yes"/>
      <point x="280" y="361"/>
      <point x="304" y="301"/>
      <point x="304" y="189" type="curve" smooth="yes"/>
      <point x="304" y="76"/>
      <point x="279" y="25"/>
      <point x="190" y="25" type="curve" smooth="yes"/>
    </contour>
    <contour>
      <point x="110" y="386" type="line"/>
      <point x="110" y="689" type="line"/>
      <point x="183" y="689" type="line" smooth="yes"/>
      <point x="262" y="689"/>
      <point x="288" y="627"/>
      <point x="288" y="541" type="curve" smooth="yes"/>
      <point x="288" y="456"/>
      <point x="262" y="386"/>
      <point x="174" y="386" type="curve" smooth="yes"/>
    </contour>
  </outline>
</glyph>
<glyph name="E" format="2">
  <advance width="358"/>
  <unicode hex="0045"/>
  <anchor x="180" y="0" name="bottom"/>
  <anchor x="180" y="714" name="top"/>
  <anchor x="338" y="714" name="topright"/>
  <outline>
    <contour>
      <point x="27" y="0" type="line"/>
      <point x="327" y="0" type="line"/>
      <point x="329" y="165" type="line"/>
      <point x="309" y="165" type="line"/>
      <point x="305" y="94" type="line" smooth="yes"/>
      <point x="301" y="29"/>
      <point x="300" y="25"/>
      <point x="226" y="25" type="curve" smooth="yes"/>
      <point x="107" y="25" type="line"/>
      <point x="110" y="362" type="line"/>
      <point x="264" y="362" type="line"/>
      <point x="264" y="387" type="line"/>
      <point x="110" y="387" type="line"/>
      <point x="110" y="689" type="line"/>
      <point x="204" y="689" type="line" smooth="yes"/>
      <point x="282" y="689"/>
      <point x="285" y="687"/>
      <point x="290" y="587" type="curve" smooth="yes"/>
      <point x="290" y="549" type="line"/>
      <point x="310" y="549" type="line"/>
      <point x="307" y="714" type="line"/>
      <point x="27" y="714" type="line"/>
      <point x="27" y="694" type="line"/>
      <point x="26" y="694" type="line" smooth="yes"/>
      <point x="76" y="694"/>
      <point x="82" y="683"/>
      <point x="82" y="606" type="curve" smooth="yes"/>
      <point x="82" y="108" type="line" smooth="yes"/>
      <point x="82" y="31"/>
      <point x="76" y="20"/>
      <point x="26" y="20" type="curve" smooth="yes"/>
      <point x="27" y="20" type="line"/>
    </contour>
  </outline>
</glyph>
<glyph name="o" format="2">
  <advance width="329"/>
  <unicode hex="006F"/>
  <anchor x="164" y="0" name="bottom"/>
  <anchor x="164" y="268" name="center"/>
  <anchor x="164" y="536" name="top"/>
  <anchor x="316" y="536" name="topright"/>
  <outline>
    <contour>
      <point x="165" y="-10" type="curve" smooth="yes"/>
      <point x="249" y="-10"/>
      <point x="293" y="69"/>
      <point x="293" y="267" type="curve" smooth="yes"/>
      <point x="293" y="442"/>
      <point x="259" y="542"/>
      <point x="165" y="542" type="curve" smooth="yes"/>
      <point x="72" y="542"/>
      <point x="37" y="449"/>
      <point x="37" y="267" type="curve" smooth="yes"/>
      <point x="37" y="74"/>
      <point x="81" y="-10"/>
    </contour>
    <contour>
      <point x="167" y="15" type="curve" smooth="yes"/>
      <point x="98" y="15"/>
      <point x="65" y="98"/>
      <point x="65" y="267" type="curve" smooth="yes"/>
      <point x="65" y="435"/>
      <point x="87" y="517"/>
      <point x="162" y="517" type="curve" smooth="yes"/>
      <point x="244" y="517"/>
      <point x="265" y="431"/>
      <point x="265" y="267" type="curve" smooth="yes"/>
      <point x="265" y="95"/>
      <point x="240" y="15"/>
    </contour>
  </outline>
</glyph>
<glyph name="q" format="2">
  <advance width="350"/>
  <unicode hex="0071"/>
  <anchor x="176" y="-240" name="bottom"/>
  <anchor x="176" y="536" name="top"/>
  <anchor x="330" y="536" name="topright"/>
  <outline>
    <contour>
      <point x="184" y="-240" type="line"/>
      <point x="336" y="-240" type="line"/>
      <point x="336" y="-220" type="line"/>
      <point x="342" y="-220" type="line" smooth="yes"/>
      <point x="287" y="-220"/>
      <point x="282" y="-213"/>
      <point x="282" y="-145" type="curve" smooth="yes"/>
      <point x="282" y="439" type="line" smooth="yes"/>
      <point x="282" y="509"/>
      <point x="289" y="516"/>
      <point x="340" y="516" type="curve" smooth="yes"/>
      <point x="338" y="516" type="line"/>
      <point x="338" y="536" type="line"/>
      <point x="258" y="536" type="line"/>
      <point x="255" y="430" type="line"/>
      <point x="253" y="430" type="line"/>
      <point x="242" y="494"/>
      <point x="204" y="546"/>
      <point x="156" y="546" type="curve" smooth="yes"/>
      <point x="98" y="546"/>
      <point x="38" y="493"/>
      <point x="38" y="265" type="curve" smooth="yes"/>
      <point x="38" y="66"/>
      <point x="79" y="-10"/>
      <point x="154" y="-10" type="curve" smooth="yes"/>
      <point x="198" y="-10"/>
      <point x="231" y="34"/>
      <point x="254" y="98" type="curve"/>
      <point x="256" y="98" type="line"/>
      <point x="257" y="75"/>
      <point x="254" y="8"/>
      <point x="254" y="-23" type="curve" smooth="yes"/>
      <point x="254" y="-145" type="line" smooth="yes"/>
      <point x="254" y="-213"/>
      <point x="248" y="-220"/>
      <point x="187" y="-220" type="curve" smooth="yes"/>
      <point x="184" y="-220" type="line"/>
    </contour>
    <contour>
      <point x="153" y="15" type="curve" smooth="yes"/>
      <point x="89" y="15"/>
      <point x="66" y="91"/>
      <point x="66" y="264" type="curve" smooth="yes"/>
      <point x="66" y="473"/>
      <point x="107" y="521"/>
      <point x="155" y="521" type="curve" smooth="yes"/>
      <point x="220" y="521"/>
      <point x="254" y="416"/>
      <point x="254" y="267" type="curve" smooth="yes"/>
      <point x="254" y="103"/>
      <point x="223" y="15"/>
    </contour>
  </outline>
</glyph>
<glyph name="r" format="2">
  <advance width="260"/>
  <unicode hex="0072"/>
  <anchor x="96" y="0" name="bottom"/>
  <anchor x="153" y="536" name="top"/>
  <anchor x="240" y="536" name="topright"/>
  <outline>
    <contour>
      <point x="27" y="0" type="line"/>
      <point x="175" y="0" type="line"/>
      <point x="175" y="20" type="line"/>
      <point x="180" y="20" type="line" smooth="yes"/>
      <point x="115" y="20"/>
      <point x="109" y="26"/>
      <point x="109" y="95" type="curve" smooth="yes"/>
      <point x="109" y="267" type="line" smooth="yes"/>
      <point x="109" y="365"/>
      <point x="131" y="519"/>
      <point x="198" y="519" type="curve" smooth="yes"/>
      <point x="243" y="519"/>
      <point x="231" y="466"/>
      <point x="231" y="443" type="curve"/>
      <point x="248" y="443"/>
      <point x="252" y="461"/>
      <point x="252" y="488" type="curve" smooth="yes"/>
      <point x="252" y="519"/>
      <point x="242" y="544"/>
      <point x="201" y="544" type="curve" smooth="yes"/>
      <point x="143" y="544"/>
      <point x="125" y="484"/>
      <point x="110" y="442" type="curve"/>
      <point x="108" y="442" type="line"/>
      <point x="105" y="536" type="line"/>
      <point x="23" y="536" type="line"/>
      <point x="23" y="516" type="line"/>
      <point x="16" y="516" type="line" smooth="yes"/>
      <point x="74" y="516"/>
      <point x="81" y="510"/>
      <point x="81" y="439" type="curve" smooth="yes"/>
      <point x="81" y="95" type="line" smooth="yes"/>
      <point x="81" y="26"/>
      <point x="76" y="20"/>
      <point x="14" y="20" type="curve" smooth="yes"/>
      <point x="27" y="20" type="line"/>
    </contour>
  </outline>
</glyph>
<glyph name="braceleft" format="2">
  <advance width="250"/>
  <unicode hex="007B"/>
  <outline>
    <contour>
      <point x="196" y="-132" type="curve" smooth="yes"/>
      <point x="211" y="-132" type="line"/>
      <point x="211" y="-107" type="line"/>
      <point x="201" y="-107" type="line" smooth="yes"/>
      <point x="160" y="-107"/>
      <point x="140" y="-71"/>
      <point x="140" y="17" type="curve" smooth="yes"/>
      <point x="140" y="175" type="line" smooth="yes"/>
      <point x="140" y="261"/>
      <point x="114" y="303"/>
      <point x="74" y="313" type="curve"/>
      <point x="74" y="315" type="line"/>
      <point x="114" y="325"/>
      <point x="140" y="371"/>
      <point x="140" y="456" type="curve" smooth="yes"/>
      <point x="140" y="610" type="line" smooth="yes"/>
      <point x="140" y="699"/>
      <point x="160" y="735"/>
      <point x="201" y="735" type="curve" smooth="yes"/>
      <point x="211" y="735" type="line"/>
      <point x="211" y="760" type="line"/>
      <point x="193" y="760" type="line" smooth="yes"/>
      <point x="138" y="760"/>
      <point x="113" y="702"/>
      <point x="113" y="621" type="curve" smooth="yes"/>
      <point x="113" y="460" type="line" smooth="yes"/>
      <point x="113" y="356"/>
      <point x="80" y="333"/>
      <point x="36" y="326" type="curve"/>
      <point x="36" y="302" type="line"/>
      <point x="80" y="295"/>
      <point x="113" y="276"/>
      <point x="113" y="171" type="curve" smooth="yes"/>
      <point x="113" y="8" type="line" smooth="yes"/>
      <point x="113" y="-74"/>
      <point x="136" y="-132"/>
    </contour>
  </outline>
</glyph>
<glyph name="ae" format="2">
  <advance width="493"/>
  <unicode hex="00E6"/>
  <anchor x="247" y="0" name="bottom"/>
  <anchor x="247" y="536" name="top"/>
  <outline>
    <contour>
      <point x="127" y="-10" type="curve" smooth="yes"/>
      <point x="201" y="-10"/>
      <point x="227" y="68"/>
      <point x="244" y="129" type="curve"/>
      <point x="258" y="40"/>
      <point x="296" y="-10"/>
      <point x="352" y="-10" type="curve" smooth="yes"/>
      <point x="406" y="-10"/>
      <point x="442" y="39"/>
      <point x="442" y="72" type="curve" smooth="yes"/>
      <point x="442" y="84"/>
      <point x="441" y="92"/>
      <point x="433" y="96" type="curve"/>
      <point x="415" y="42"/>
      <point x="387" y="15"/>
      <point x="351" y="15" type="curve" smooth="yes"/>
      <point x="299" y="15"/>
      <point x="259" y="68"/>
      <point x="256" y="266" type="curve"/>
      <point x="457" y="266" type="line"/>
      <point x="457" y="298" type="line" smooth="yes"/>
      <point x="457" y="466"/>
      <point x="413" y="542"/>
      <point x="341" y="542" type="curve" smooth="yes"/>
      <point x="310" y="542"/>
      <point x="268" y="520"/>
      <point x="249" y="455" type="curve"/>
      <point x="232" y="534"/>
      <point x="179" y="542"/>
      <point x="159" y="542" type="curve" smooth="yes"/>
      <point x="109" y="542"/>
      <point x="56" y="504"/>
      <point x="56" y="439" type="curve" smooth="yes"/>
      <point x="56" y="412"/>
      <point x="65" y="395"/>
      <point x="77" y="395" type="curve"/>
      <point x="77" y="471"/>
      <point x="101" y="517"/>
      <point x="155" y="517" type="curve" smooth="yes"/>
      <point x="205" y="517"/>
      <point x="227" y="464"/>
      <point x="227" y="371" type="curve" smooth="yes"/>
      <point x="227" y="310" type="line"/>
      <point x="170" y="305" type="line" smooth="yes"/>
      <point x="79" y="297"/>
      <point x="33" y="249"/>
      <point x="33" y="146" type="curve" smooth="yes"/>
      <point x="33" y="41"/>
      <point x="65" y="-10"/>
    </contour>
    <contour>
      <point x="124" y="15" type="curve" smooth="yes"/>
      <point x="85" y="15"/>
      <point x="61" y="60"/>
      <point x="61" y="147" type="curve" smooth="yes"/>
      <point x="61" y="233"/>
      <point x="101" y="276"/>
      <point x="174" y="283" type="curve" smooth="yes"/>
      <point x="227" y="288" type="line"/>
      <point x="229" y="199" type="line" smooth="yes"/>
      <point x="231" y="82"/>
      <point x="181" y="15"/>
    </contour>
    <contour>
      <point x="255" y="292" type="line"/>
      <point x="250" y="455"/>
      <point x="305" y="517"/>
      <point x="345" y="517" type="curve" smooth="yes"/>
      <point x="400" y="517"/>
      <point x="430" y="446"/>
      <point x="429" y="292" type="curve"/>
    </contour>
  </outline>
</glyph>
<glyph name="uni018A" format="2">
  <advance width="440"/>
  <unicode hex="018A"/>
  <anchor x="223" y="0" name="bottom"/>
  <anchor x="223" y="714" name="top"/>
  <outline>
    <contour>
      <point x="48" y="0" type="line"/>
      <point x="198" y="0" type="line" smooth="yes"/>
      <point x="344" y="0"/>
      <point x="405" y="125"/>
      <point x="405" y="344" type="curve" smooth="yes"/>
      <point x="405" y="581"/>
      <point x="337" y="714"/>
      <point x="203" y="714" type="curve" smooth="yes"/>
      <point x="63" y="714" type="line" smooth="yes"/>
      <point x="27" y="714"/>
      <point x="2" y="680"/>
      <point x="2" y="641" type="curve" smooth="yes"/>
      <point x="2" y="611"/>
      <point x="17" y="597"/>
      <point x="34" y="597" type="curve" smooth="yes"/>
      <point x="40" y="597"/>
      <point x="47" y="598"/>
      <point x="49" y="602" type="curve"/>
      <point x="41" y="608"/>
      <point x="27" y="618"/>
      <point x="27" y="641" type="curve" smooth="yes"/>
      <point x="25" y="666"/>
      <point x="39" y="697"/>
      <point x="62" y="697" type="curve" smooth="yes"/>
      <point x="97" y="697"/>
      <point x="105" y="677"/>
      <point x="105" y="574" type="curve" smooth="yes"/>
      <point x="105" y="111" type="line" smooth="yes"/>
      <point x="105" y="24"/>
      <point x="96" y="20"/>
      <point x="40" y="20" type="curve" smooth="yes"/>
      <point x="48" y="20" type="line"/>
    </contour>
    <contour>
      <point x="133" y="25" type="line"/>
      <point x="133" y="689" type="line"/>
      <point x="209" y="689" type="line" smooth="yes"/>
      <point x="316" y="689"/>
      <point x="377" y="560"/>
      <point x="377" y="344" type="curve" smooth="yes"/>
      <point x="377" y="125"/>
      <point x="314" y="25"/>
      <point x="208" y="25" type="curve" smooth="yes"/>
    </contour>
  </outline>
</glyph>
<glyph name="uni0191" format="2">
  <advance width="338"/>
  <unicode hex="0191"/>
  <anchor x="170" y="-240" name="bottom"/>
  <anchor x="170" y="714" name="top"/>
  <outline>
    <contour>
      <point x="5" y="-240" type="line"/>
      <point x="6" y="-240" type="line" smooth="yes"/>
      <point x="85" y="-240"/>
      <point x="110" y="-179"/>
      <point x="110" y="-35" type="curve" smooth="yes"/>
      <point x="110" y="338" type="line"/>
      <point x="265" y="338" type="line"/>
      <point x="265" y="363" type="line"/>
      <point x="110" y="363" type="line"/>
      <point x="110" y="689" type="line"/>
      <point x="226" y="689" type="line" smooth="yes"/>
      <point x="275" y="689"/>
      <point x="285" y="679"/>
      <point x="287" y="629" type="curve" smooth="yes"/>
      <point x="290" y="551" type="line"/>
      <point x="310" y="551" type="line"/>
      <point x="305" y="714" type="line"/>
      <point x="27" y="714" type="line"/>
      <point x="27" y="694" type="line"/>
      <point x="27" y="694" type="line" smooth="yes"/>
      <point x="76" y="694"/>
      <point x="82" y="683"/>
      <point x="82" y="606" type="curve" smooth="yes"/>
      <point x="82" y="-32" type="line" smooth="yes"/>
      <point x="82" y="-186"/>
      <point x="55" y="-215"/>
      <point x="3" y="-215" type="curve" smooth="yes"/>
      <point x="5" y="-215" type="line"/>
    </contour>
  </outline>
</glyph>
<glyph name="florin" format="2">
  <advance width="332"/>
  <unicode hex="0192"/>
  <anchor x="-30" y="-240" name="bottom"/>
  <anchor x="322" y="724" name="top"/>
  <outline>
    <contour>
      <point x="134" y="-240" type="curve" smooth="yes"/>
      <point x="220" y="-240"/>
      <point x="272" y="-190"/>
      <point x="272" y="-13" type="curve" smooth="yes"/>
      <point x="272" y="414" type="line"/>
      <point x="406" y="414" type="line"/>
      <point x="406" y="439" type="line"/>
      <point x="272" y="439" type="line"/>
      <point x="272" y="570" type="line" smooth="yes"/>
      <point x="272" y="659"/>
      <point x="304" y="699"/>
      <point x="369" y="699" type="curve" smooth="yes"/>
      <point x="433" y="699"/>
      <point x="452" y="651"/>
      <point x="459" y="613" type="curve"/>
      <point x="468" y="614"/>
      <point x="476" y="624"/>
      <point x="476" y="640" type="curve" smooth="yes"/>
      <point x="476" y="682"/>
      <point x="434" y="724"/>
      <point x="371" y="724" type="curve" smooth="yes"/>
      <point x="285" y="724"/>
      <point x="244" y="668"/>
      <point x="244" y="569" type="curve" smooth="yes"/>
      <point x="244" y="439" type="line"/>
      <point x="141" y="439" type="line"/>
      <point x="141" y="414" type="line"/>
      <point x="244" y="414" type="line"/>
      <point x="244" y="-13" type="line" smooth="yes"/>
      <point x="244" y="-155"/>
      <point x="211" y="-217"/>
      <point x="130" y="-217" type="curve" smooth="yes"/>
      <point x="124" y="-217"/>
      <point x="116" y="-216"/>
      <point x="107" y="-214" type="curve"/>
      <point x="107" y="-237" type="line"/>
      <point x="114" y="-239"/>
      <point x="125" y="-240"/>
    </contour>
  </outline>
</glyph>
<glyph name="uni019A" format="2">
  <advance width="168"/>
  <unicode hex="019A"/>
  <anchor x="85" y="0" name="bottom"/>
  <anchor x="85" y="760" name="top"/>
  <outline>
    <contour>
      <point x="7" y="0" type="line"/>
      <point x="161" y="0" type="line"/>
      <point x="161" y="20" type="line"/>
      <point x="177" y="20" type="line" smooth="yes"/>
      <point x="100" y="20"/>
      <point x="97" y="24"/>
      <point x="97" y="94" type="curve" smooth="yes"/>
      <point x="97" y="377" type="line"/>
      <point x="157" y="377" type="line"/>
      <point x="157" y="402" type="line"/>
      <point x="97" y="402" type="line"/>
      <point x="97" y="760" type="line"/>
      <point x="7" y="760" type="line"/>
      <point x="7" y="740" type="line"/>
      <point x="4" y="740" type="line" smooth="yes"/>
      <point x="61" y="740"/>
      <point x="69" y="736"/>
      <point x="69" y="662" type="curve" smooth="yes"/>
      <point x="69" y="402" type="line"/>
      <point x="10" y="402" type="line"/>
      <point x="10" y="377" type="line"/>
      <point x="69" y="377" type="line"/>
      <point x="69" y="94" type="line" smooth="yes"/>
      <point x="69" y="24"/>
      <point x="66" y="20"/>
      <point x="-9" y="20" type="curve" smooth="yes"/>
      <point x="7" y="20" type="line"/>
    </contour>
  </outline>
</glyph>
<glyph name="uni01A3" format="2">
  <advance width="469"/>
  <unicode hex="01A3"/>
  <anchor x="235" y="-240" name="bottom"/>
  <anchor x="235" y="536" name="top"/>
  <outline>
    <contour>
      <point x="380" y="-240" type="line"/>
      <point x="461" y="-240" type="line"/>
      <point x="461" y="-222" type="line"/>
      <point x="485" y="-222" type="line" smooth="yes"/>
      <point x="411" y="-222"/>
      <point x="408" y="-214"/>
      <point x="408" y="-147" type="curve" smooth="yes"/>
      <point x="408" y="418" type="line" smooth="yes"/>
      <point x="408" y="493"/>
      <point x="373" y="542"/>
      <point x="336" y="542" type="curve" smooth="yes"/>
      <point x="283" y="542"/>
      <point x="271" y="489"/>
      <point x="263" y="443" type="curve"/>
      <point x="262" y="443" type="line"/>
      <point x="244" y="508"/>
      <point x="208" y="542"/>
      <point x="161" y="542" type="curve" smooth="yes"/>
      <point x="80" y="542"/>
      <point x="37" y="469"/>
      <point x="37" y="267" type="curve" smooth="yes"/>
      <point x="37" y="69"/>
      <point x="80" y="-10"/>
      <point x="161" y="-10" type="curve" smooth="yes"/>
      <point x="232" y="-10"/>
      <point x="281" y="63"/>
      <point x="281" y="256" type="curve" smooth="yes"/>
      <point x="281" y="371" type="line" smooth="yes"/>
      <point x="281" y="420"/>
      <point x="275" y="517"/>
      <point x="337" y="517" type="curve" smooth="yes"/>
      <point x="360" y="517"/>
      <point x="380" y="468"/>
      <point x="380" y="426" type="curve" smooth="yes"/>
    </contour>
    <contour>
      <point x="161" y="15" type="curve" smooth="yes"/>
      <point x="100" y="15"/>
      <point x="64" y="90"/>
      <point x="65" y="267" type="curve" smooth="yes"/>
      <point x="65" y="446"/>
      <point x="93" y="517"/>
      <point x="158" y="517" type="curve" smooth="yes"/>
      <point x="228" y="517"/>
      <point x="253" y="441"/>
      <point x="253" y="267" type="curve" smooth="yes"/>
      <point x="253" y="70"/>
      <point x="217" y="15"/>
    </contour>
  </outline>
</glyph>
<glyph name="uni01A7" format="2">
  <advance width="302"/>
  <unicode hex="01A7"/>
  <anchor x="152" y="0" name="bottom"/>
  <anchor x="152" y="714" name="top"/>
  <outline>
    <contour>
      <point x="169" y="-10" type="curve" smooth="yes"/>
      <point x="240" y="-10"/>
      <point x="277" y="42"/>
      <point x="277" y="76" type="curve" smooth="yes"/>
      <point x="277" y="93"/>
      <point x="275" y="99"/>
      <point x="272" y="109" type="curve"/>
      <point x="247" y="49"/>
      <point x="215" y="15"/>
      <point x="173" y="15" type="curve" smooth="yes"/>
      <point x="105" y="15"/>
      <point x="68" y="56"/>
      <point x="68" y="160" type="curve" smooth="yes"/>
      <point x="68" y="267"/>
      <point x="99" y="293"/>
      <point x="169" y="350" type="curve" smooth="yes"/>
      <point x="208" y="388"/>
      <point x="263" y="435"/>
      <point x="263" y="564" type="curve" smooth="yes"/>
      <point x="263" y="650"/>
      <point x="225" y="724"/>
      <point x="144" y="724" type="curve" smooth="yes"/>
      <point x="78" y="724"/>
      <point x="50" y="666"/>
      <point x="50" y="611" type="curve" smooth="yes"/>
      <point x="50" y="587"/>
      <point x="55" y="572"/>
      <point x="70" y="572" type="curve"/>
      <point x="70" y="644"/>
      <point x="90" y="699"/>
      <point x="144" y="699" type="curve" smooth="yes"/>
      <point x="207" y="699"/>
      <point x="235" y="635"/>
      <point x="235" y="554" type="curve" smooth="yes"/>
      <point x="235" y="458"/>
      <point x="212" y="423"/>
      <point x="148" y="372" type="curve" smooth="yes"/>
      <point x="90" y="323"/>
      <point x="40" y="283"/>
      <point x="40" y="161" type="curve" smooth="yes"/>
      <point x="40" y="45"/>
      <point x="81" y="-10"/>
    </contour>
  </outline>
</glyph>
<glyph name="uni01A8" format="2">
  <advance width="253"/>
  <unicode hex="01A8"/>
  <anchor x="126" y="0" name="bottom"/>
  <anchor x="126" y="536" name="top"/>
  <outline>
    <contour>
      <point x="138" y="-10" type="curve" smooth="yes"/>
      <point x="198" y="-10"/>
      <point x="219" y="36"/>
      <point x="219" y="69" type="curve" smooth="yes"/>
      <point x="219" y="80"/>
      <point x="222" y="90"/>
      <point x="226" y="101" type="curve"/>
      <point x="196" y="61"/>
      <point x="187" y="15"/>
      <point x="138" y="15" type="curve" smooth="yes"/>
      <point x="96" y="15"/>
      <point x="67" y="41"/>
      <point x="67" y="115" type="curve" smooth="yes"/>
      <point x="67" y="167"/>
      <point x="81" y="215"/>
      <point x="122" y="254" type="curve" smooth="yes"/>
      <point x="197" y="320"/>
      <point x="213" y="358"/>
      <point x="213" y="420" type="curve" smooth="yes"/>
      <point x="213" y="493"/>
      <point x="180" y="540"/>
      <point x="120" y="540" type="curve" smooth="yes"/>
      <point x="80" y="540"/>
      <point x="42" y="516"/>
      <point x="42" y="451" type="curve" smooth="yes"/>
      <point x="42" y="420"/>
      <point x="43" y="406"/>
      <point x="61" y="406" type="curve"/>
      <point x="61" y="470"/>
      <point x="72" y="515"/>
      <point x="118" y="515" type="curve" smooth="yes"/>
      <point x="169" y="515"/>
      <point x="185" y="471"/>
      <point x="185" y="419" type="curve" smooth="yes"/>
      <point x="185" y="370"/>
      <point x="169" y="329"/>
      <point x="106" y="277" type="curve" smooth="yes"/>
      <point x="60" y="234"/>
      <point x="39" y="181"/>
      <point x="39" y="116" type="curve" smooth="yes"/>
      <point x="39" y="37"/>
      <point x="75" y="-10"/>
    </contour>
  </outline>
</glyph>
<glyph name="uni01AD" format="2">
  <advance width="191"/>
  <unicode hex="01AD"/>
  <anchor x="96" y="0" name="bottom"/>
  <anchor x="96" y="757" name="top"/>
  <outline>
    <contour>
      <point x="144" y="-10" type="curve" smooth="yes"/>
      <point x="150" y="-10"/>
      <point x="165" y="-7"/>
      <point x="176" y="-5" type="curve"/>
      <point x="176" y="20" type="line"/>
      <point x="161" y="18"/>
      <point x="153" y="15"/>
      <point x="141" y="15" type="curve" smooth="yes"/>
      <point x="108" y="15"/>
      <point x="86" y="36"/>
      <point x="86" y="145" type="curve" smooth="yes"/>
      <point x="86" y="511" type="line"/>
      <point x="168" y="511" type="line"/>
      <point x="168" y="536" type="line"/>
      <point x="86" y="536" type="line"/>
      <point x="86" y="553" type="line" smooth="yes"/>
      <point x="86" y="672"/>
      <point x="98" y="733"/>
      <point x="131" y="733" type="curve" smooth="yes"/>
      <point x="140" y="733"/>
      <point x="145" y="721"/>
      <point x="135" y="691" type="curve"/>
      <point x="153" y="688"/>
      <point x="164" y="702"/>
      <point x="164" y="722" type="curve" smooth="yes"/>
      <point x="164" y="736"/>
      <point x="163" y="757"/>
      <point x="129" y="757" type="curve" smooth="yes"/>
      <point x="90" y="757"/>
      <point x="59" y="705"/>
      <point x="65" y="594" type="curve" smooth="yes"/>
      <point x="68" y="539"/>
      <point x="35" y="539"/>
      <point x="10" y="529" type="curve"/>
      <point x="10" y="511" type="line"/>
      <point x="58" y="511" type="line"/>
      <point x="58" y="141" type="line" smooth="yes"/>
      <point x="58" y="23"/>
      <point x="82" y="-10"/>
    </contour>
  </outline>
</glyph>
<glyph name="uni0238" format="2">
  <advance width="546"/>
  <unicode hex="0238"/>
  <anchor x="273" y="0" name="bottom"/>
  <anchor x="273" y="760" name="top"/>
  <outline>
    <contour>
      <point x="161" y="-10" type="curve" smooth="yes"/>
      <point x="269" y="-10"/>
      <point x="266" y="84"/>
      <point x="275" y="113" type="curve"/>
      <point x="283" y="83"/>
      <point x="288" y="-10"/>
      <point x="387" y="-10" type="curve" smooth="yes"/>
      <point x="460" y="-10"/>
      <point x="507" y="46"/>
      <point x="507" y="265" type="curve" smooth="yes"/>
      <point x="507" y="490"/>
      <point x="439" y="541"/>
      <point x="379" y="541" type="curve" smooth="yes"/>
      <point x="322" y="541"/>
      <point x="306" y="507"/>
      <point x="287" y="467" type="curve"/>
      <point x="285" y="467" type="line"/>
      <point x="286" y="486"/>
      <point x="287" y="515"/>
      <point x="287" y="562" type="curve" smooth="yes"/>
      <point x="287" y="760" type="line"/>
      <point x="208" y="760" type="line"/>
      <point x="208" y="740" type="line"/>
      <point x="199" y="740" type="line" smooth="yes"/>
      <point x="254" y="740"/>
      <point x="259" y="734"/>
      <point x="259" y="665" type="curve" smooth="yes"/>
      <point x="259" y="564" type="line" smooth="yes"/>
      <point x="259" y="532"/>
      <point x="261" y="504"/>
      <point x="262" y="466" type="curve"/>
      <point x="261" y="466" type="line"/>
      <point x="243" y="507"/>
      <point x="224" y="541"/>
      <point x="172" y="541" type="curve" smooth="yes"/>
      <point x="87" y="541"/>
      <point x="37" y="458"/>
      <point x="37" y="267" type="curve" smooth="yes"/>
      <point x="37" y="60"/>
      <point x="82" y="-10"/>
    </contour>
    <contour>
      <point x="162" y="15" type="curve" smooth="yes"/>
      <point x="102" y="15"/>
      <point x="65" y="75"/>
      <point x="65" y="265" type="curve" smooth="yes"/>
      <point x="65" y="428"/>
      <point x="90" y="516"/>
      <point x="166" y="516" type="curve" smooth="yes"/>
      <point x="244" y="516"/>
      <point x="258" y="430"/>
      <point x="258" y="262" type="curve" smooth="yes"/>
      <point x="258" y="90"/>
      <point x="228" y="15"/>
    </contour>
    <contour>
      <point x="386" y="15" type="curve" smooth="yes"/>
      <point x="332" y="15"/>
      <point x="288" y="87"/>
      <point x="288" y="262" type="curve" smooth="yes"/>
      <point x="288" y="426"/>
      <point x="301" y="516"/>
      <point x="379" y="516" type="curve" smooth="yes"/>
      <point x="442" y="516"/>
      <point x="479" y="455"/>
      <point x="479" y="263" type="curve" smooth="yes"/>
      <point x="479" y="64"/>
      <point x="449" y="15"/>
    </contour>
  </outline>
</glyph>
<glyph name="uni023C" format="2">
  <advance width="280"/>
  <unicode hex="023C"/>
  <anchor x="141" y="-249" name="bottom"/>
  <anchor x="141" y="714" name="top"/>
  <anchor x="260" y="536" name="topright"/>
  <outline>
    <contour>
      <point x="71" y="-249" type="line"/>
      <point x="96" y="-249" type="line"/>
      <point x="223" y="714" type="line"/>
      <point x="198" y="714" type="line"/>
    </contour>
    <component base="c"/>
  </outline>
</glyph>
<glyph name="uni0241" format="2">
  <advance width="275"/>
  <unicode hex="0241"/>
  <anchor x="138" y="0" name="bottom"/>
  <anchor x="138" y="714" name="top"/>
  <outline>
    <contour>
      <point x="46" y="0" type="line"/>
      <point x="197" y="0" type="line"/>
      <point x="197" y="20" type="line"/>
      <point x="194" y="20" type="line" smooth="yes"/>
      <point x="143" y="20"/>
      <point x="136" y="31"/>
      <point x="136" y="108" type="curve" smooth="yes"/>
      <point x="136" y="307" type="line"/>
      <point x="204" y="379"/>
      <point x="243" y="406"/>
      <point x="243" y="550" type="curve" smooth="yes"/>
      <point x="243" y="666"/>
      <point x="200" y="722"/>
      <point x="125" y="722" type="curve" smooth="yes"/>
      <point x="38" y="722"/>
      <point x="22" y="656"/>
      <point x="22" y="629" type="curve" smooth="yes"/>
      <point x="22" y="602"/>
      <point x="29" y="586"/>
      <point x="35" y="586" type="curve"/>
      <point x="35" y="639"/>
      <point x="66" y="697"/>
      <point x="128" y="697" type="curve" smooth="yes"/>
      <point x="192" y="697"/>
      <point x="215" y="635"/>
      <point x="215" y="558" type="curve" smooth="yes"/>
      <point x="215" y="435"/>
      <point x="209" y="398"/>
      <point x="108" y="314" type="curve"/>
      <point x="108" y="108" type="line" smooth="yes"/>
      <point x="108" y="31"/>
      <point x="102" y="20"/>
      <point x="53" y="20" type="curve" smooth="yes"/>
      <point x="46" y="20" type="line"/>
    </contour>
  </outline>
</glyph>
<glyph name="uni024D" format="2">
  <advance width="260"/>
  <unicode hex="024D"/>
  <anchor x="130" y="0" name="bottom"/>
  <anchor x="130" y="536" name="top"/>
  <anchor x="240" y="536" name="topright"/>
  <outline>
    <contour>
      <point x="10" y="278" type="line"/>
      <point x="196" y="278" type="line"/>
      <point x="196" y="303" type="line"/>
      <point x="10" y="303" type="line"/>
    </contour>
    <component base="r"/>
  </outline>
</glyph>
<glyph name="uni0251" format="2">
  <advance width="350"/>
  <unicode hex="0251"/>
  <anchor x="175" y="0" name="bottom"/>
  <anchor x="175" y="536" name="top"/>
  <outline>
    <contour>
      <point x="153" y="-10" type="curve" smooth="yes"/>
      <point x="235" y="-10"/>
      <point x="252" y="71"/>
      <point x="255" y="104" type="curve"/>
      <point x="254" y="104" type="line"/>
      <point x="257" y="13"/>
      <point x="273" y="-11"/>
      <point x="311" y="-11" type="curve" smooth="yes"/>
      <point x="323" y="-11"/>
      <point x="333" y="-4"/>
      <point x="340" y="6" type="curve"/>
      <point x="340" y="27" type="line"/>
      <point x="333" y="21"/>
      <point x="326" y="14"/>
      <point x="311" y="14" type="curve" smooth="yes"/>
      <point x="292" y="14"/>
      <point x="282" y="43"/>
      <point x="282" y="90" type="curve" smooth="yes"/>
      <point x="282" y="536" type="line"/>
      <point x="262" y="536" type="line"/>
      <point x="255" y="433" type="line"/>
      <point x="255" y="433" type="line"/>
      <point x="234" y="510"/>
      <point x="200" y="548"/>
      <point x="163" y="548" type="curve" smooth="yes"/>
      <point x="79" y="548"/>
      <point x="38" y="470"/>
      <point x="38" y="262" type="curve" smooth="yes"/>
      <point x="38" y="65"/>
      <point x="80" y="-10"/>
    </contour>
    <contour>
      <point x="159" y="16" type="curve" smooth="yes"/>
      <point x="80" y="17"/>
      <point x="66" y="88"/>
      <point x="66" y="264" type="curve" smooth="yes"/>
      <point x="66" y="451"/>
      <point x="93" y="523"/>
      <point x="161" y="523" type="curve" smooth="yes"/>
      <point x="222" y="523"/>
      <point x="253" y="420"/>
      <point x="253" y="267" type="curve" smooth="yes"/>
      <point x="253" y="72"/>
      <point x="212" y="14"/>
    </contour>
  </outline>
</glyph>
<glyph name="uni0259" format="2">
  <advance width="306"/>
  <unicode hex="0259"/>
  <anchor x="153" y="0" name="bottom"/>
  <anchor x="153" y="536" name="top"/>
  <outline>
    <contour>
      <point x="149" y="-10" type="curve" smooth="yes"/>
      <point x="224" y="-10"/>
      <point x="268" y="83"/>
      <point x="268" y="270" type="curve" smooth="yes"/>
      <point x="268" y="443"/>
      <point x="219" y="542"/>
      <point x="141" y="542" type="curve" smooth="yes"/>
      <point x="84" y="542"/>
      <point x="51" y="489"/>
      <point x="51" y="460" type="curve" smooth="yes"/>
      <point x="51" y="445"/>
      <point x="55" y="438"/>
      <point x="60" y="436" type="curve"/>
      <point x="71" y="473"/>
      <point x="96" y="517"/>
      <point x="142" y="517" type="curve" smooth="yes"/>
      <point x="206" y="517"/>
      <point x="240" y="439"/>
      <point x="241" y="266" type="curve"/>
      <point x="36" y="266" type="line"/>
      <point x="36" y="240" type="line" smooth="yes"/>
      <point x="36" y="89"/>
      <point x="69" y="-10"/>
    </contour>
    <contour>
      <point x="148" y="15" type="curve" smooth="yes"/>
      <point x="82" y="15"/>
      <point x="66" y="106"/>
      <point x="64" y="240" type="curve"/>
      <point x="242" y="240" type="line"/>
      <point x="240" y="102"/>
      <point x="203" y="15"/>
    </contour>
  </outline>
</glyph>
<glyph name="uni0264" format="2">
  <advance width="332"/>
  <unicode hex="0264"/>
  <anchor x="166" y="0" name="bottom"/>
  <anchor x="166" y="536" name="top"/>
  <outline>
    <contour>
      <point x="164" y="-14" type="curve" smooth="yes"/>
      <point x="206" y="-14"/>
      <point x="214" y="30"/>
      <point x="214" y="72" type="curve" smooth="yes"/>
      <point x="214" y="147"/>
      <point x="195" y="226"/>
      <point x="187" y="291" type="curve"/>
      <point x="244" y="440"/>
      <point x="317" y="519"/>
      <point x="319" y="519" type="curve" smooth="yes"/>
      <point x="328" y="519"/>
      <point x="321" y="498"/>
      <point x="321" y="484" type="curve"/>
      <point x="328" y="484"/>
      <point x="338" y="500"/>
      <point x="338" y="518" type="curve" smooth="yes"/>
      <point x="338" y="546"/>
      <point x="325" y="544"/>
      <point x="326" y="544" type="curve" smooth="yes"/>
      <point x="317" y="544"/>
      <point x="251" y="501"/>
      <point x="177" y="322" type="curve"/>
      <point x="109" y="550"/>
      <point x="67" y="544"/>
      <point x="30" y="544" type="curve" smooth="yes"/>
      <point x="7" y="544"/>
      <point x="-10" y="534"/>
      <point x="-10" y="520" type="curve" smooth="yes"/>
      <point x="-10" y="501"/>
      <point x="-3" y="495"/>
      <point x="6" y="489" type="curve"/>
      <point x="4" y="500"/>
      <point x="10" y="519"/>
      <point x="36" y="519" type="curve" smooth="yes"/>
      <point x="72" y="519"/>
      <point x="107" y="481"/>
      <point x="161" y="284" type="curve"/>
      <point x="124" y="169"/>
      <point x="115" y="98"/>
      <point x="115" y="72" type="curve" smooth="yes"/>
      <point x="115" y="17"/>
      <point x="126" y="-14"/>
    </contour>
    <contour>
      <point x="164" y="11" type="curve" smooth="yes"/>
      <point x="143" y="11"/>
      <point x="138" y="26"/>
      <point x="138" y="70" type="curve" smooth="yes"/>
      <point x="138" y="110"/>
      <point x="147" y="165"/>
      <point x="170" y="242" type="curve"/>
      <point x="181" y="179"/>
      <point x="191" y="118"/>
      <point x="191" y="70" type="curve" smooth="yes"/>
      <point x="191" y="30"/>
      <point x="184" y="11"/>
    </contour>
  </outline>
</glyph>
<glyph name="uni026C" format="2">
  <advance width="186"/>
  <unicode hex="026C"/>
  <anchor x="94" y="0" name="bottom"/>
  <anchor x="94" y="760" name="top"/>
  <outline>
    <contour>
      <point x="16" y="0" type="line"/>
      <point x="170" y="0" type="line"/>
      <point x="170" y="20" type="line"/>
      <point x="187" y="20" type="line" smooth="yes"/>
      <point x="109" y="20"/>
      <point x="106" y="24"/>
      <point x="106" y="94" type="curve" smooth="yes"/>
      <point x="106" y="353" type="line"/>
      <point x="171" y="353" type="line"/>
      <point x="171" y="378" type="line"/>
      <point x="106" y="378" type="line"/>
      <point x="106" y="760" type="line"/>
      <point x="16" y="760" type="line"/>
      <point x="16" y="740" type="line"/>
      <point x="13" y="740" type="line" smooth="yes"/>
      <point x="70" y="740"/>
      <point x="78" y="736"/>
      <point x="78" y="662" type="curve" smooth="yes"/>
      <point x="78" y="474" type="line"/>
      <point x="71" y="482"/>
      <point x="61" y="485"/>
      <point x="57" y="485" type="curve" smooth="yes"/>
      <point x="23" y="485"/>
      <point x="4" y="453"/>
      <point x="4" y="425" type="curve" smooth="yes"/>
      <point x="4" y="380"/>
      <point x="26" y="353"/>
      <point x="84" y="353" type="curve" smooth="yes"/>
      <point x="78" y="353" type="line"/>
      <point x="78" y="94" type="line" smooth="yes"/>
      <point x="78" y="24"/>
      <point x="75" y="20"/>
      <point x="-3" y="20" type="curve" smooth="yes"/>
      <point x="16" y="20" type="line"/>
    </contour>
    <contour>
      <point x="71" y="378" type="line" smooth="yes"/>
      <point x="47" y="378"/>
      <point x="32" y="396"/>
      <point x="32" y="428" type="curve" smooth="yes"/>
      <point x="32" y="439"/>
      <point x="35" y="460"/>
      <point x="55" y="460" type="curve" smooth="yes"/>
      <point x="70" y="460"/>
      <point x="83" y="439"/>
      <point x="78" y="391" type="curve" smooth="yes"/>
      <point x="78" y="378" type="line"/>
    </contour>
  </outline>
</glyph>
<glyph name="uni027B" format="2">
  <advance width="260"/>
  <unicode hex="027B"/>
  <anchor x="130" y="-240" name="bottom"/>
  <anchor x="130" y="536" name="top"/>
  <outline>
    <contour>
      <point x="237" y="-240" type="curve" smooth="yes"/>
      <point x="245" y="-240"/>
      <point x="265" y="-234"/>
      <point x="269" y="-226" type="curve"/>
      <point x="269" y="-202" type="line"/>
      <point x="261" y="-209"/>
      <point x="244" y="-215"/>
      <point x="238" y="-215" type="curve" smooth="yes"/>
      <point x="198" y="-215"/>
      <point x="179" y="-180"/>
      <point x="179" y="-88" type="curve" smooth="yes"/>
      <point x="179" y="439" type="line" smooth="yes"/>
      <point x="179" y="511"/>
      <point x="187" y="516"/>
      <point x="254" y="516" type="curve" smooth="yes"/>
      <point x="233" y="516" type="line"/>
      <point x="233" y="536" type="line"/>
      <point x="85" y="536" type="line"/>
      <point x="85" y="516" type="line"/>
      <point x="77" y="516" type="line" smooth="yes"/>
      <point x="143" y="516"/>
      <point x="151" y="511"/>
      <point x="151" y="439" type="curve" smooth="yes"/>
      <point x="151" y="269" type="line" smooth="yes"/>
      <point x="151" y="171"/>
      <point x="129" y="17"/>
      <point x="62" y="17" type="curve" smooth="yes"/>
      <point x="17" y="17"/>
      <point x="27" y="70"/>
      <point x="27" y="93" type="curve"/>
      <point x="11" y="93"/>
      <point x="8" y="75"/>
      <point x="8" y="48" type="curve" smooth="yes"/>
      <point x="8" y="17"/>
      <point x="18" y="-8"/>
      <point x="59" y="-8" type="curve" smooth="yes"/>
      <point x="117" y="-8"/>
      <point x="133" y="52"/>
      <point x="148" y="94" type="curve"/>
      <point x="154" y="94" type="line"/>
      <point x="153" y="43"/>
      <point x="151" y="-1"/>
      <point x="151" y="-27" type="curve" smooth="yes"/>
      <point x="151" y="-96" type="line" smooth="yes"/>
      <point x="151" y="-201"/>
      <point x="184" y="-240"/>
    </contour>
  </outline>
</glyph>
<glyph name="uni029B" format="2">
  <advance width="331"/>
  <unicode hex="029B"/>
  <anchor x="165" y="0" name="bottom"/>
  <anchor x="165" y="760" name="top"/>
  <outline>
    <contour>
      <point x="179" y="-12" type="curve" smooth="yes"/>
      <point x="200" y="-12"/>
      <point x="233" y="-9"/>
      <point x="263" y="21" type="curve"/>
      <point x="263" y="148" type="line" smooth="yes"/>
      <point x="263" y="236"/>
      <point x="267" y="240"/>
      <point x="339" y="240" type="curve" smooth="yes"/>
      <point x="315" y="240" type="line"/>
      <point x="315" y="260" type="line"/>
      <point x="178" y="260" type="line"/>
      <point x="178" y="240" type="line"/>
      <point x="158" y="240" type="line" smooth="yes"/>
      <point x="231" y="240"/>
      <point x="235" y="236"/>
      <point x="235" y="147" type="curve" smooth="yes"/>
      <point x="235" y="34" type="line"/>
      <point x="220" y="16"/>
      <point x="186" y="15"/>
      <point x="178" y="15" type="curve" smooth="yes"/>
      <point x="103" y="15"/>
      <point x="65" y="88"/>
      <point x="65" y="270" type="curve" smooth="yes"/>
      <point x="65" y="407"/>
      <point x="82" y="517"/>
      <point x="173" y="517" type="curve" smooth="yes"/>
      <point x="221" y="517"/>
      <point x="245" y="479"/>
      <point x="244" y="393" type="curve"/>
      <point x="257" y="393"/>
      <point x="268" y="410"/>
      <point x="268" y="439" type="curve" smooth="yes"/>
      <point x="268" y="630" type="line" smooth="yes"/>
      <point x="268" y="711"/>
      <point x="278" y="733"/>
      <point x="301" y="733" type="curve" smooth="yes"/>
      <point x="322" y="733"/>
      <point x="338" y="713"/>
      <point x="328" y="673" type="curve"/>
      <point x="335" y="682"/>
      <point x="341" y="690"/>
      <point x="341" y="710" type="curve" smooth="yes"/>
      <point x="341" y="746"/>
      <point x="321" y="760"/>
      <point x="296" y="760" type="curve" smooth="yes"/>
      <point x="260" y="760"/>
      <point x="238" y="733"/>
      <point x="238" y="624" type="curve" smooth="yes"/>
      <point x="238" y="519" type="line"/>
      <point x="223" y="533"/>
      <point x="202" y="542"/>
      <point x="172" y="542" type="curve" smooth="yes"/>
      <point x="70" y="542"/>
      <point x="37" y="439"/>
      <point x="37" y="270" type="curve" smooth="yes"/>
      <point x="37" y="55"/>
      <point x="97" y="-12"/>
    </contour>
  </outline>
</glyph>
<glyph name="qhook" format="2">
  <advance width="350"/>
  <unicode hex="02A0"/>
  <anchor x="176" y="-240" name="bottom"/>
  <anchor x="176" y="763" name="top"/>
  <outline>
    <contour>
      <point x="184" y="-240" type="line"/>
      <point x="336" y="-240" type="line"/>
      <point x="336" y="-220" type="line"/>
      <point x="343" y="-220" type="line" smooth="yes"/>
      <point x="287" y="-220"/>
      <point x="282" y="-213"/>
      <point x="282" y="-145" type="curve" smooth="yes"/>
      <point x="282" y="550" type="line" smooth="yes"/>
      <point x="282" y="670"/>
      <point x="295" y="740"/>
      <point x="349" y="740" type="curve" smooth="yes"/>
      <point x="394" y="740"/>
      <point x="395" y="689"/>
      <point x="385" y="653" type="curve" smooth="yes"/>
      <point x="403" y="651"/>
      <point x="415" y="671"/>
      <point x="415" y="693" type="curve" smooth="yes"/>
      <point x="415" y="733"/>
      <point x="390" y="763"/>
      <point x="348" y="763" type="curve" smooth="yes"/>
      <point x="279" y="763"/>
      <point x="254" y="691"/>
      <point x="254" y="544" type="curve" smooth="yes"/>
      <point x="254" y="508" type="line" smooth="yes"/>
      <point x="254" y="479"/>
      <point x="254" y="451"/>
      <point x="254" y="423" type="curve"/>
      <point x="252" y="423" type="line"/>
      <point x="240" y="495"/>
      <point x="209" y="546"/>
      <point x="156" y="546" type="curve" smooth="yes"/>
      <point x="98" y="546"/>
      <point x="38" y="493"/>
      <point x="38" y="265" type="curve" smooth="yes"/>
      <point x="38" y="66"/>
      <point x="79" y="-10"/>
      <point x="154" y="-10" type="curve" smooth="yes"/>
      <point x="198" y="-10"/>
      <point x="231" y="31"/>
      <point x="254" y="95" type="curve"/>
      <point x="256" y="95" type="line"/>
      <point x="257" y="72"/>
      <point x="254" y="8"/>
      <point x="254" y="-23" type="curve" smooth="yes"/>
      <point x="254" y="-145" type="line" smooth="yes"/>
      <point x="254" y="-213"/>
      <point x="248" y="-220"/>
      <point x="188" y="-220" type="curve" smooth="yes"/>
      <point x="184" y="-220" type="line"/>
    </contour>
    <contour>
      <point x="153" y="15" type="curve" smooth="yes"/>
      <point x="89" y="15"/>
      <point x="66" y="91"/>
      <point x="66" y="264" type="curve" smooth="yes"/>
      <point x="66" y="473"/>
      <point x="107" y="521"/>
      <point x="155" y="521" type="curve" smooth="yes"/>
      <point x="220" y="521"/>
      <point x="254" y="416"/>
      <point x="254" y="267" type="curve" smooth="yes"/>
      <point x="254" y="103"/>
      <point x="223" y="15"/>
    </contour>
  </outline>
</glyph>
<glyph name="uni02C1" format="2">
  <advance width="159"/>
  <unicode hex="02C1"/>
  <outline>
    <contour>
      <point x="70" y="492" type="line"/>
      <point x="87" y="492" type="line"/>
      <point x="92" y="565" type="line"/>
      <point x="42" y="588"/>
      <point x="28" y="619"/>
      <point x="28" y="668" type="curve" smooth="yes"/>
      <point x="28" y="696"/>
      <point x="33" y="733"/>
      <point x="71" y="733" type="curve" smooth="yes"/>
      <point x="112" y="733"/>
      <point x="119" y="702"/>
      <point x="119" y="669" type="curve"/>
      <point x="129" y="669"/>
      <point x="141" y="678"/>
      <point x="141" y="700" type="curve" smooth="yes"/>
      <point x="141" y="731"/>
      <point x="119" y="760"/>
      <point x="70" y="760" type="curve" smooth="yes"/>
      <point x="27" y="760"/>
      <point x="-1" y="728"/>
      <point x="-1" y="673" type="curve" smooth="yes"/>
      <point x="-1" y="612"/>
      <point x="11" y="576"/>
      <point x="67" y="548" type="curve"/>
    </contour>
  </outline>
</glyph>
<glyph name="ring" format="2">
  <advance width="198"/>
  <unicode hex="02DA"/>
  <outline>
    <contour>
      <point x="98" y="596" type="curve" smooth="yes"/>
      <point x="138" y="596"/>
      <point x="169" y="634"/>
      <point x="169" y="705" type="curve" smooth="yes"/>
      <point x="169" y="776"/>
      <point x="138" y="814"/>
      <point x="98" y="814" type="curve" smooth="yes"/>
      <point x="57" y="814"/>
      <point x="26" y="776"/>
      <point x="26" y="705" type="curve" smooth="yes"/>
      <point x="26" y="634"/>
      <point x="57" y="596"/>
    </contour>
    <contour>
      <point x="99" y="624" type="curve" smooth="yes"/>
      <point x="77" y="624"/>
      <point x="57" y="640"/>
      <point x="57" y="705" type="curve" smooth="yes"/>
      <point x="57" y="771"/>
      <point x="77" y="790"/>
      <point x="99" y="790" type="curve" smooth="yes"/>
      <point x="117" y="790"/>
      <point x="138" y="771"/>
      <point x="138" y="705" type="curve" smooth="yes"/>
      <point x="138" y="640"/>
      <point x="117" y="624"/>
    </contour>
  </outline>
</glyph>
<glyph name="ogonek" format="2">
  <advance width="298"/>
  <unicode hex="02DB"/>
  <outline>
    <contour>
      <point x="213" y="-232" type="curve" smooth="yes"/>
      <point x="234" y="-232"/>
      <point x="241" y="-229"/>
      <point x="254" y="-220" type="curve"/>
      <point x="254" y="-191" type="line"/>
      <point x="242" y="-204"/>
      <point x="230" y="-206"/>
      <point x="214" y="-206" type="curve" smooth="yes"/>
      <point x="186" y="-206"/>
      <point x="178" y="-181"/>
      <point x="178" y="-136" type="curve" smooth="yes"/>
      <point x="178" y="-75"/>
      <point x="199" y="-19"/>
      <point x="240" y="0" type="curve"/>
      <point x="209" y="0" type="line"/>
      <point x="188" y="-15"/>
      <point x="149" y="-56"/>
      <point x="149" y="-137" type="curve" smooth="yes"/>
      <point x="149" y="-212"/>
      <point x="183" y="-232"/>
    </contour>
  </outline>
</glyph>
<glyph name="rhotichookmod" format="2">
  <advance width="119"/>
  <unicode hex="02DE"/>
  <outline>
    <contour>
      <point x="81" y="208" type="curve" smooth="yes"/>
      <point x="114" y="208"/>
      <point x="119" y="233"/>
      <point x="119" y="256" type="curve" smooth="yes"/>
      <point x="119" y="264"/>
      <point x="118" y="274"/>
      <point x="110" y="283" type="curve"/>
      <point x="111" y="257"/>
      <point x="105" y="238"/>
      <point x="85" y="238" type="curve" smooth="yes"/>
      <point x="62" y="238"/>
      <point x="51" y="255"/>
      <point x="35" y="322" type="curve" smooth="yes"/>
      <point x="25" y="363" type="line"/>
      <point x="-87" y="321" type="line"/>
      <point x="-75" y="303" type="line"/>
      <point x="2" y="334" type="line"/>
      <point x="4" y="328" type="line" smooth="yes"/>
      <point x="30" y="228"/>
      <point x="50" y="208"/>
    </contour>
  </outline>
</glyph>
<glyph name="uni02F3" format="2">
  <advance width="196"/>
  <unicode hex="02F3"/>
  <outline>
    <contour>
      <point x="99" y="-215" type="curve" smooth="yes"/>
      <point x="135" y="-215"/>
      <point x="163" y="-182"/>
      <point x="163" y="-118" type="curve" smooth="yes"/>
      <point x="163" y="-57"/>
      <point x="135" y="-25"/>
      <point x="98" y="-25" type="curve" smooth="yes"/>
      <point x="63" y="-25"/>
      <point x="36" y="-58"/>
      <point x="36" y="-120" type="curve" smooth="yes"/>
      <point x="36" y="-182"/>
      <point x="63" y="-215"/>
    </contour>
    <contour>
      <point x="101" y="-187" type="curve" smooth="yes"/>
      <point x="83" y="-187"/>
      <point x="68" y="-173"/>
      <point x="68" y="-120" type="curve" smooth="yes"/>
      <point x="68" y="-67"/>
      <point x="83" y="-53"/>
      <point x="99" y="-53" type="curve" smooth="yes"/>
      <point x="114" y="-53"/>
      <point x="131" y="-67"/>
      <point x="131" y="-118" type="curve" smooth="yes"/>
      <point x="131" y="-173"/>
      <point x="114" y="-187"/>
    </contour>
  </outline>
</glyph>
<glyph name="dblverticallineabovecomb" format="2">
  <unicode hex="030E"/>
  <anchor x="2" y="536" name="_top"/>
  <anchor x="2" y="760" name="top"/>
  <outline>
    <contour>
      <point x="-117" y="606" type="line"/>
      <point x="-90" y="606" type="line"/>
      <point x="-90" y="760" type="line"/>
      <point x="-117" y="760" type="line"/>
    </contour>
    <contour>
      <point x="94" y="606" type="line"/>
      <point x="120" y="606" type="line"/>
      <point x="120" y="760" type="line"/>
      <point x="94" y="760" type="line"/>
    </contour>
  </outline>
</glyph>
<glyph name="hookretroflexbelowcomb" format="2">
  <unicode hex="0322"/>
  <anchor x="28" y="0" name="_bottom"/>
  <anchor x="28" y="-194" name="bottom"/>
  <outline>
    <contour>
      <point x="39" y="-194" type="curve" smooth="yes"/>
      <point x="61" y="-194"/>
      <point x="78" y="-182"/>
      <point x="78" y="-153" type="curve" smooth="yes"/>
      <point x="78" y="-134"/>
      <point x="73" y="-125"/>
      <point x="67" y="-115" type="curve"/>
      <point x="77" y="-142"/>
      <point x="67" y="-167"/>
      <point x="43" y="-167" type="curve" smooth="yes"/>
      <point x="15" y="-167"/>
      <point x="6" y="-137"/>
      <point x="6" y="-52" type="curve" smooth="yes"/>
      <point x="6" y="40" type="line"/>
      <point x="-22" y="40" type="line"/>
      <point x="-22" y="-44" type="line" smooth="yes"/>
      <point x="-22" y="-150"/>
      <point x="-11" y="-194"/>
    </contour>
  </outline>
</glyph>
<glyph name="dbllowlinecomb" format="2">
  <unicode hex="0333"/>
  <anchor x="2" y="0" name="_bottom"/>
  <anchor x="2" y="-220" name="bottom"/>
  <outline>
    <contour>
      <point x="-125" y="-100" type="line"/>
      <point x="127" y="-100" type="line"/>
      <point x="127" y="-41" type="line"/>
      <point x="-125" y="-41" type="line"/>
    </contour>
    <contour>
      <point x="-125" y="-220" type="line"/>
      <point x="127" y="-220" type="line"/>
      <point x="127" y="-161" type="line"/>
      <point x="-125" y="-161" type="line"/>
    </contour>
  </outline>
</glyph>
<glyph name="slashshortoverlaycomb" format="2">
  <unicode hex="0337"/>
  <anchor x="8" y="272" name="_center"/>
  <outline>
    <contour>
      <point x="-66" y="181" type="line"/>
      <point x="97" y="340" type="line"/>
      <point x="80" y="364" type="line"/>
      <point x="-84" y="205" type="line"/>
    </contour>
  </outline>
</glyph>
<glyph name="lefthalfringabovecomb" format="2">
  <unicode hex="0351"/>
  <anchor x="-2" y="536" name="_top"/>
  <anchor x="-2" y="813" name="top"/>
  <outline>
    <contour>
      <point x="42" y="583" type="curve"/>
      <point x="42" y="609" type="line"/>
      <point x="14" y="609"/>
      <point x="-15" y="628"/>
      <point x="-15" y="697" type="curve" smooth="yes"/>
      <point x="-15" y="771"/>
      <point x="14" y="788"/>
      <point x="42" y="790" type="curve"/>
      <point x="42" y="813" type="line"/>
      <point x="2" y="813"/>
      <point x="-44" y="777"/>
      <point x="-44" y="697" type="curve" smooth="yes"/>
      <point x="-44" y="621"/>
      <point x="2" y="583"/>
    </contour>
  </outline>
</glyph>
<glyph name="fermatacomb" format="2">
  <unicode hex="0352"/>
  <anchor x="-2" y="536" name="_top"/>
  <anchor x="-2" y="808" name="top"/>
  <outline>
    <contour>
      <point x="-83" y="700" type="curve"/>
      <point x="-60" y="700" type="line"/>
      <point x="-52" y="759"/>
      <point x="-38" y="776"/>
      <point x="0" y="776" type="curve" smooth="yes"/>
      <point x="34" y="776"/>
      <point x="48" y="762"/>
      <point x="57" y="700" type="curve"/>
      <point x="78" y="700" type="line"/>
      <point x="78" y="778"/>
      <point x="50" y="808"/>
      <point x="0" y="808" type="curve" smooth="yes"/>
      <point x="-52" y="808"/>
      <point x="-82" y="780"/>
    </contour>
    <contour>
      <point x="2" y="628" type="curve" smooth="yes"/>
      <point x="18" y="628"/>
      <point x="31" y="636"/>
      <point x="31" y="662" type="curve" smooth="yes"/>
      <point x="31" y="690"/>
      <point x="18" y="698"/>
      <point x="2" y="698" type="curve" smooth="yes"/>
      <point x="-17" y="698"/>
      <point x="-26" y="690"/>
      <point x="-26" y="662" type="curve" smooth="yes"/>
      <point x="-26" y="636"/>
      <point x="-17" y="628"/>
    </contour>
  </outline>
</glyph>
<glyph name="doublebrevebelowcomb" format="2">
  <unicode hex="035C"/>
  <anchor x="-177" y="0" name="_bottom"/>
  <anchor x="0" y="-184" name="bottom"/>
  <outline>
    <contour>
      <point x="0" y="-184" type="curve" smooth="yes"/>
      <point x="115" y="-184"/>
      <point x="184" y="-149"/>
      <point x="227" y="-22" type="curve"/>
      <point x="207" y="-22" type="line"/>
      <point x="172" y="-107"/>
      <point x="102" y="-154"/>
      <point x="0" y="-154" type="curve" smooth="yes"/>
      <point x="-101" y="-154"/>
      <point x="-172" y="-107"/>
      <point x="-206" y="-22" type="curve"/>
      <point x="-227" y="-22" type="line"/>
      <point x="-183" y="-149"/>
      <point x="-115" y="-184"/>
    </contour>
  </outline>
</glyph>
<glyph name="breveinverteddoublecomb" format="2">
  <unicode hex="0361"/>
  <anchor x="-170" y="595" name="_top"/>
  <anchor x="0" y="830" name="top"/>
  <outline>
    <contour>
      <point x="-213" y="649" type="curve"/>
      <point x="-187" y="649" type="line"/>
      <point x="-149" y="772"/>
      <point x="-78" y="805"/>
      <point x="3" y="805" type="curve" smooth="yes"/>
      <point x="80" y="805"/>
      <point x="147" y="777"/>
      <point x="189" y="649" type="curve"/>
      <point x="214" y="649" type="line"/>
      <point x="172" y="775"/>
      <point x="104" y="830"/>
      <point x="1" y="830" type="curve" smooth="yes"/>
      <point x="-103" y="830"/>
      <point x="-172" y="776"/>
    </contour>
  </outline>
</glyph>
<glyph name="Pamphyliandigamma" format="2">
  <advance width="451"/>
  <unicode hex="0376"/>
  <anchor x="226" y="0" name="bottom"/>
  <anchor x="226" y="714" name="top"/>
  <outline>
    <contour>
      <point x="79" y="0" type="line"/>
      <point x="104" y="0" type="line"/>
      <point x="337" y="628" type="line"/>
      <point x="337" y="108" type="line" smooth="yes"/>
      <point x="337" y="31"/>
      <point x="329" y="20"/>
      <point x="283" y="20" type="curve" smooth="yes"/>
      <point x="262" y="20" type="line"/>
      <point x="262" y="0" type="line"/>
      <point x="419" y="0" type="line"/>
      <point x="419" y="20" type="line"/>
      <point x="417" y="20" type="line" smooth="yes"/>
      <point x="368" y="20"/>
      <point x="362" y="31"/>
      <point x="362" y="108" type="curve" smooth="yes"/>
      <point x="362" y="607" type="line" smooth="yes"/>
      <point x="362" y="683"/>
      <point x="368" y="694"/>
      <point x="417" y="694" type="curve" smooth="yes"/>
      <point x="419" y="694" type="line"/>
      <point x="419" y="714" type="line"/>
      <point x="341" y="714" type="line"/>
      <point x="104" y="77" type="line"/>
      <point x="104" y="607" type="line" smooth="yes"/>
      <point x="104" y="683"/>
      <point x="111" y="694"/>
      <point x="156" y="694" type="curve" smooth="yes"/>
      <point x="179" y="694" type="line"/>
      <point x="179" y="714" type="line"/>
      <point x="20" y="714" type="line"/>
      <point x="20" y="694" type="line"/>
      <point x="23" y="694" type="line" smooth="yes"/>
      <point x="73" y="694"/>
      <point x="79" y="683"/>
      <point x="79" y="607" type="curve" smooth="yes"/>
    </contour>
  </outline>
</glyph>
<glyph name="tonos" format="2">
  <advance width="344"/>
  <unicode hex="0384"/>
  <anchor x="191" y="536" name="_top"/>
  <outline>
    <contour>
      <point x="146" y="606" type="line"/>
      <point x="165" y="606" type="line"/>
      <point x="187" y="649"/>
      <point x="228" y="734"/>
      <point x="234" y="784" type="curve"/>
      <point x="234" y="796" type="line"/>
      <point x="184" y="796" type="line"/>
      <point x="186" y="736"/>
      <point x="165" y="672"/>
      <point x="146" y="621" type="curve"/>
    </contour>
  </outline>
</glyph>
<glyph name="sigma1" format="2">
  <advance width="273"/>
  <unicode hex="03C2"/>
  <anchor x="136" y="-203" name="bottom"/>
  <anchor x="136" y="536" name="top"/>
  <outline>
    <contour>
      <point x="169" y="-203" type="line"/>
      <point x="210" y="-170"/>
      <point x="239" y="-110"/>
      <point x="239" y="-67" type="curve" smooth="yes"/>
      <point x="239" y="12"/>
      <point x="179" y="27"/>
      <point x="142" y="32" type="curve" smooth="yes"/>
      <point x="77" y="43"/>
      <point x="65" y="131"/>
      <point x="65" y="260" type="curve" smooth="yes"/>
      <point x="65" y="461"/>
      <point x="91" y="517"/>
      <point x="163" y="517" type="curve" smooth="yes"/>
      <point x="219" y="517"/>
      <point x="231" y="480"/>
      <point x="231" y="403" type="curve"/>
      <point x="241" y="403"/>
      <point x="256" y="411"/>
      <point x="256" y="437" type="curve" smooth="yes"/>
      <point x="256" y="492"/>
      <point x="225" y="542"/>
      <point x="160" y="542" type="curve" smooth="yes"/>
      <point x="69" y="542"/>
      <point x="37" y="470"/>
      <point x="37" y="240" type="curve" smooth="yes"/>
      <point x="37" y="86"/>
      <point x="69" y="14"/>
      <point x="163" y="-4" type="curve" smooth="yes"/>
      <point x="196" y="-6"/>
      <point x="211" y="-31"/>
      <point x="211" y="-77" type="curve" smooth="yes"/>
      <point x="211" y="-109"/>
      <point x="188" y="-157"/>
      <point x="169" y="-178" type="curve"/>
    </contour>
  </outline>
</glyph>
<glyph name="psi" format="2">
  <advance width="404"/>
  <unicode hex="03C8"/>
  <anchor x="203" y="-240" name="bottom"/>
  <anchor x="203" y="760" name="top"/>
  <outline>
    <contour>
      <point x="208" y="-240" type="line"/>
      <point x="236" y="-240" type="line"/>
      <point x="236" y="-10" type="line"/>
      <point x="350" y="15"/>
      <point x="368" y="119"/>
      <point x="368" y="329" type="curve" smooth="yes"/>
      <point x="368" y="361"/>
      <point x="374" y="544"/>
      <point x="310" y="544" type="curve" smooth="yes"/>
      <point x="305" y="544"/>
      <point x="293" y="544"/>
      <point x="293" y="536" type="curve"/>
      <point x="348" y="500"/>
      <point x="340" y="423"/>
      <point x="340" y="313" type="curve" smooth="yes"/>
      <point x="340" y="106"/>
      <point x="315" y="35"/>
      <point x="236" y="15" type="curve"/>
      <point x="236" y="760" type="line"/>
      <point x="208" y="760" type="line"/>
      <point x="208" y="15" type="line"/>
      <point x="124" y="24"/>
      <point x="100" y="112"/>
      <point x="100" y="199" type="curve" smooth="yes"/>
      <point x="100" y="536" type="line"/>
      <point x="4" y="536" type="line"/>
      <point x="4" y="516" type="line"/>
      <point x="-2" y="516" type="line" smooth="yes"/>
      <point x="66" y="516"/>
      <point x="72" y="518"/>
      <point x="72" y="440" type="curve" smooth="yes"/>
      <point x="72" y="205" type="line" smooth="yes"/>
      <point x="72" y="103"/>
      <point x="105" y="2"/>
      <point x="208" y="-10" type="curve"/>
    </contour>
  </outline>
</glyph>
<glyph name="uni03DD" format="2">
  <advance width="309"/>
  <unicode hex="03DD"/>
  <anchor x="154" y="-240" name="bottom"/>
  <anchor x="154" y="536" name="top"/>
  <outline>
    <contour>
      <point x="73" y="-240" type="line"/>
      <point x="101" y="-240" type="line"/>
      <point x="101" y="213" type="line"/>
      <point x="126" y="213" type="line" smooth="yes"/>
      <point x="195" y="213"/>
      <point x="192" y="208"/>
      <point x="194" y="129" type="curve"/>
      <point x="214" y="129" type="line"/>
      <point x="214" y="238" type="line"/>
      <point x="101" y="238" type="line"/>
      <point x="101" y="511" type="line"/>
      <point x="216" y="511" type="line" smooth="yes"/>
      <point x="260" y="511"/>
      <point x="259" y="495"/>
      <point x="259" y="433" type="curve" smooth="yes"/>
      <point x="258" y="395" type="line"/>
      <point x="278" y="395" type="line"/>
      <point x="281" y="536" type="line"/>
      <point x="20" y="536" type="line"/>
      <point x="20" y="516" type="line"/>
      <point x="17" y="516" type="line" smooth="yes"/>
      <point x="67" y="516"/>
      <point x="73" y="501"/>
      <point x="73" y="418" type="curve" smooth="yes"/>
    </contour>
  </outline>
</glyph>
<glyph name="afii10045" format="2">
  <advance width="508"/>
  <unicode hex="042B"/>
  <anchor x="255" y="0" name="bottom"/>
  <anchor x="255" y="714" name="top"/>
  <outline>
    <contour>
      <point x="27" y="0" type="line"/>
      <point x="161" y="0" type="line" smooth="yes"/>
      <point x="276" y="0"/>
      <point x="302" y="80"/>
      <point x="302" y="194" type="curve" smooth="yes"/>
      <point x="302" y="328"/>
      <point x="255" y="385"/>
      <point x="123" y="385" type="curve" smooth="yes"/>
      <point x="112" y="385" type="line"/>
      <point x="112" y="607" type="line" smooth="yes"/>
      <point x="112" y="683"/>
      <point x="119" y="694"/>
      <point x="167" y="694" type="curve" smooth="yes"/>
      <point x="203" y="694" type="line"/>
      <point x="203" y="714" type="line"/>
      <point x="27" y="714" type="line"/>
      <point x="27" y="694" type="line"/>
      <point x="27" y="694" type="line" smooth="yes"/>
      <point x="79" y="694"/>
      <point x="84" y="683"/>
      <point x="84" y="607" type="curve" smooth="yes"/>
      <point x="84" y="113" type="line" smooth="yes"/>
      <point x="84" y="31"/>
      <point x="81" y="20"/>
      <point x="25" y="20" type="curve" smooth="yes"/>
      <point x="27" y="20" type="line"/>
    </contour>
    <contour>
      <point x="112" y="25" type="line"/>
      <point x="112" y="360" type="line"/>
      <point x="127" y="360" type="line" smooth="yes"/>
      <point x="238" y="360"/>
      <point x="274" y="311"/>
      <point x="274" y="194" type="curve" smooth="yes"/>
      <point x="274" y="100"/>
      <point x="257" y="25"/>
      <point x="158" y="25" type="curve" smooth="yes"/>
    </contour>
    <contour>
      <point x="334" y="0" type="line"/>
      <point x="485" y="0" type="line"/>
      <point x="485" y="20" type="line"/>
      <point x="481" y="20" type="line" smooth="yes"/>
      <point x="429" y="20"/>
      <point x="423" y="31"/>
      <point x="423" y="108" type="curve" smooth="yes"/>
      <point x="423" y="607" type="line" smooth="yes"/>
      <point x="423" y="683"/>
      <point x="430" y="694"/>
      <point x="477" y="694" type="curve" smooth="yes"/>
      <point x="485" y="694" type="line"/>
      <point x="485" y="714" type="line"/>
      <point x="334" y="714" type="line"/>
      <point x="334" y="694" type="line"/>
      <point x="337" y="694" type="line" smooth="yes"/>
      <point x="389" y="694"/>
      <point x="395" y="683"/>
      <point x="395" y="607" type="curve" smooth="yes"/>
      <point x="395" y="108" type="line" smooth="yes"/>
      <point x="395" y="31"/>
      <point x="390" y="20"/>
      <point x="336" y="20" type="curve" smooth="yes"/>
      <point x="334" y="20" type="line"/>
    </contour>
  </outline>
</glyph>
<glyph name="afii10046" format="2">
  <advance width="349"/>
  <unicode hex="042C"/>
  <anchor x="174" y="0" name="bottom"/>
  <anchor x="174" y="714" name="top"/>
  <outline>
    <contour>
      <point x="27" y="0" type="line"/>
      <point x="176" y="0" type="line" smooth="yes"/>
      <point x="291" y="0"/>
      <point x="318" y="80"/>
      <point x="318" y="194" type="curve" smooth="yes"/>
      <point x="318" y="328"/>
      <point x="270" y="385"/>
      <point x="138" y="385" type="curve" smooth="yes"/>
      <point x="112" y="385" type="line"/>
      <point x="112" y="607" type="line" smooth="yes"/>
      <point x="112" y="683"/>
      <point x="119" y="694"/>
      <point x="166" y="694" type="curve" smooth="yes"/>
      <point x="203" y="694" type="line"/>
      <point x="203" y="714" type="line"/>
      <point x="27" y="714" type="line"/>
      <point x="27" y="694" type="line"/>
      <point x="27" y="694" type="line" smooth="yes"/>
      <point x="79" y="694"/>
      <point x="84" y="683"/>
      <point x="84" y="607" type="curve" smooth="yes"/>
      <point x="84" y="108" type="line" smooth="yes"/>
      <point x="84" y="31"/>
      <point x="77" y="20"/>
      <point x="29" y="20" type="curve" smooth="yes"/>
      <point x="27" y="20" type="line"/>
    </contour>
    <contour>
      <point x="112" y="25" type="line"/>
      <point x="112" y="360" type="line"/>
      <point x="142" y="360" type="line" smooth="yes"/>
      <point x="254" y="360"/>
      <point x="290" y="311"/>
      <point x="290" y="194" type="curve" smooth="yes"/>
      <point x="290" y="100"/>
      <point x="273" y="25"/>
      <point x="173" y="25" type="curve" smooth="yes"/>
    </contour>
  </outline>
</glyph>
<glyph name="afii10081" format="2">
  <advance width="393"/>
  <unicode hex="043F"/>
  <anchor x="196" y="0" name="bottom"/>
  <anchor x="196" y="536" name="top"/>
  <outline>
    <contour>
      <point x="14" y="0" type="line"/>
      <point x="168" y="0" type="line"/>
      <point x="168" y="20" type="line"/>
      <point x="175" y="20" type="line" smooth="yes"/>
      <point x="113" y="20"/>
      <point x="108" y="26"/>
      <point x="108" y="97" type="curve" smooth="yes"/>
      <point x="108" y="511" type="line"/>
      <point x="286" y="511" type="line"/>
      <point x="286" y="97" type="line" smooth="yes"/>
      <point x="286" y="27"/>
      <point x="280" y="20"/>
      <point x="225" y="20" type="curve" smooth="yes"/>
      <point x="224" y="20" type="line"/>
      <point x="224" y="0" type="line"/>
      <point x="377" y="0" type="line"/>
      <point x="377" y="20" type="line"/>
      <point x="382" y="20" type="line" smooth="yes"/>
      <point x="319" y="20"/>
      <point x="314" y="27"/>
      <point x="314" y="97" type="curve" smooth="yes"/>
      <point x="314" y="442" type="line" smooth="yes"/>
      <point x="314" y="513"/>
      <point x="322" y="519"/>
      <point x="374" y="519" type="curve" smooth="yes"/>
      <point x="377" y="519" type="line"/>
      <point x="377" y="536" type="line"/>
      <point x="14" y="536" type="line"/>
      <point x="14" y="516" type="line"/>
      <point x="16" y="516" type="line" smooth="yes"/>
      <point x="73" y="516"/>
      <point x="80" y="509"/>
      <point x="80" y="439" type="curve" smooth="yes"/>
      <point x="80" y="97" type="line" smooth="yes"/>
      <point x="80" y="26"/>
      <point x="73" y="20"/>
      <point x="17" y="20" type="curve" smooth="yes"/>
      <point x="14" y="20" type="line"/>
    </contour>
  </outline>
</glyph>
<glyph name="afii10088" format="2">
  <advance width="397"/>
  <unicode hex="0446"/>
  <anchor x="199" y="0" name="bottom"/>
  <anchor x="199" y="536" name="top"/>
  <outline>
    <contour>
      <point x="358" y="-210" type="line"/>
      <point x="378" y="-210" type="line"/>
      <point x="378" y="17" type="line"/>
      <point x="381" y="17" type="line" smooth="yes"/>
      <point x="306" y="17"/>
      <point x="302" y="27"/>
      <point x="302" y="97" type="curve" smooth="yes"/>
      <point x="302" y="439" type="line" smooth="yes"/>
      <point x="302" y="509"/>
      <point x="308" y="516"/>
      <point x="370" y="516" type="curve" smooth="yes"/>
      <point x="366" y="516" type="line"/>
      <point x="366" y="536" type="line"/>
      <point x="212" y="536" type="line"/>
      <point x="212" y="516" type="line"/>
      <point x="213" y="516" type="line" smooth="yes"/>
      <point x="268" y="516"/>
      <point x="274" y="509"/>
      <point x="274" y="439" type="curve" smooth="yes"/>
      <point x="274" y="25" type="line"/>
      <point x="108" y="25" type="line"/>
      <point x="108" y="439" type="line" smooth="yes"/>
      <point x="108" y="511"/>
      <point x="111" y="516"/>
      <point x="181" y="516" type="curve" smooth="yes"/>
      <point x="168" y="516" type="line"/>
      <point x="168" y="536" type="line"/>
      <point x="14" y="536" type="line"/>
      <point x="14" y="516" type="line"/>
      <point x="13" y="516" type="line" smooth="yes"/>
      <point x="74" y="516"/>
      <point x="80" y="511"/>
      <point x="80" y="439" type="curve" smooth="yes"/>
      <point x="80" y="97" type="line" smooth="yes"/>
      <point x="80" y="27"/>
      <point x="72" y="20"/>
      <point x="19" y="20" type="curve" smooth="yes"/>
      <point x="14" y="20" type="line"/>
      <point x="14" y="0" type="line"/>
      <point x="209" y="0" type="line" smooth="yes"/>
      <point x="342" y="0"/>
      <point x="362" y="-39"/>
      <point x="363" y="-219" type="curve" smooth="yes"/>
    </contour>
  </outline>
</glyph>
<glyph name="afii10090" format="2">
  <advance width="551"/>
  <unicode hex="0448"/>
  <anchor x="276" y="0" name="bottom"/>
  <anchor x="276" y="536" name="top"/>
  <outline>
    <contour>
      <point x="14" y="0" type="line"/>
      <point x="535" y="0" type="line"/>
      <point x="535" y="17" type="line"/>
      <point x="518" y="17" type="line" smooth="yes"/>
      <point x="466" y="17"/>
      <point x="470" y="21"/>
      <point x="470" y="99" type="curve" smooth="yes"/>
      <point x="470" y="439" type="line" smooth="yes"/>
      <point x="470" y="509"/>
      <point x="475" y="516"/>
      <point x="540" y="516" type="curve" smooth="yes"/>
      <point x="535" y="516" type="line"/>
      <point x="535" y="536" type="line"/>
      <point x="380" y="536" type="line"/>
      <point x="380" y="516" type="line"/>
      <point x="378" y="516" type="line" smooth="yes"/>
      <point x="436" y="516"/>
      <point x="442" y="509"/>
      <point x="442" y="439" type="curve" smooth="yes"/>
      <point x="442" y="25" type="line"/>
      <point x="289" y="25" type="line"/>
      <point x="289" y="439" type="line" smooth="yes"/>
      <point x="289" y="509"/>
      <point x="294" y="516"/>
      <point x="357" y="516" type="curve" smooth="yes"/>
      <point x="351" y="516" type="line"/>
      <point x="351" y="536" type="line"/>
      <point x="204" y="536" type="line"/>
      <point x="204" y="516" type="line"/>
      <point x="199" y="516" type="line" smooth="yes"/>
      <point x="253" y="516"/>
      <point x="261" y="509"/>
      <point x="261" y="439" type="curve" smooth="yes"/>
      <point x="261" y="25" type="line"/>
      <point x="108" y="25" type="line"/>
      <point x="108" y="439" type="line" smooth="yes"/>
      <point x="108" y="511"/>
      <point x="111" y="516"/>
      <point x="180" y="516" type="curve" smooth="yes"/>
      <point x="170" y="516" type="line"/>
      <point x="170" y="536" type="line"/>
      <point x="14" y="536" type="line"/>
      <point x="14" y="516" type="line"/>
      <point x="15" y="516" type="line" smooth="yes"/>
      <point x="73" y="516"/>
      <point x="80" y="511"/>
      <point x="80" y="439" type="curve" smooth="yes"/>
      <point x="80" y="97" type="line" smooth="yes"/>
      <point x="80" y="27"/>
      <point x="73" y="20"/>
      <point x="17" y="20" type="curve" smooth="yes"/>
      <point x="14" y="20" type="line"/>
    </contour>
  </outline>
</glyph>
<glyph name="afii10091" format="2">
  <advance width="540"/>
  <unicode hex="0449"/>
  <anchor x="271" y="0" name="bottom"/>
  <anchor x="271" y="536" name="top"/>
  <outline>
    <contour>
      <point x="508" y="-210" type="line"/>
      <point x="528" y="-210" type="line"/>
      <point x="528" y="17" type="line"/>
      <point x="549" y="17" type="line" smooth="yes"/>
      <point x="476" y="17"/>
      <point x="470" y="16"/>
      <point x="470" y="97" type="curve" smooth="yes"/>
      <point x="470" y="439" type="line" smooth="yes"/>
      <point x="470" y="509"/>
      <point x="474" y="516"/>
      <point x="541" y="516" type="curve" smooth="yes"/>
      <point x="535" y="516" type="line"/>
      <point x="535" y="536" type="line"/>
      <point x="380" y="536" type="line"/>
      <point x="380" y="516" type="line"/>
      <point x="377" y="516" type="line" smooth="yes"/>
      <point x="436" y="516"/>
      <point x="442" y="509"/>
      <point x="442" y="439" type="curve" smooth="yes"/>
      <point x="442" y="25" type="line"/>
      <point x="289" y="25" type="line"/>
      <point x="289" y="439" type="line" smooth="yes"/>
      <point x="289" y="509"/>
      <point x="294" y="516"/>
      <point x="356" y="516" type="curve" smooth="yes"/>
      <point x="351" y="516" type="line"/>
      <point x="351" y="536" type="line"/>
      <point x="204" y="536" type="line"/>
      <point x="204" y="516" type="line"/>
      <point x="197" y="516" type="line" smooth="yes"/>
      <point x="254" y="516"/>
      <point x="261" y="509"/>
      <point x="261" y="439" type="curve" smooth="yes"/>
      <point x="261" y="25" type="line"/>
      <point x="108" y="25" type="line"/>
      <point x="108" y="439" type="line" smooth="yes"/>
      <point x="108" y="511"/>
      <point x="112" y="516"/>
      <point x="179" y="516" type="curve" smooth="yes"/>
      <point x="170" y="516" type="line"/>
      <point x="170" y="536" type="line"/>
      <point x="14" y="536" type="line"/>
      <point x="14" y="516" type="line"/>
      <point x="16" y="516" type="line" smooth="yes"/>
      <point x="72" y="516"/>
      <point x="80" y="511"/>
      <point x="80" y="439" type="curve" smooth="yes"/>
      <point x="80" y="97" type="line" smooth="yes"/>
      <point x="80" y="27"/>
      <point x="73" y="20"/>
      <point x="17" y="20" type="curve" smooth="yes"/>
      <point x="14" y="20" type="line"/>
      <point x="14" y="0" type="line"/>
      <point x="362" y="0" type="line" smooth="yes"/>
      <point x="496" y="0"/>
      <point x="514" y="-37"/>
      <point x="515" y="-223" type="curve" smooth="yes"/>
    </contour>
  </outline>
</glyph>
<glyph name="afii10106" format="2">
  <advance width="492"/>
  <unicode hex="0459"/>
  <anchor x="246" y="0" name="bottom"/>
  <anchor x="246" y="536" name="top"/>
  <outline>
    <contour>
      <point x="48" y="-7" type="curve" smooth="yes"/>
      <point x="92" y="-7"/>
      <point x="115" y="28"/>
      <point x="133" y="163" type="curve" smooth="yes"/>
      <point x="148" y="272"/>
      <point x="171" y="437"/>
      <point x="165" y="511" type="curve"/>
      <point x="248" y="511" type="line"/>
      <point x="248" y="97" type="line" smooth="yes"/>
      <point x="248" y="24"/>
      <point x="241" y="20"/>
      <point x="180" y="20" type="curve" smooth="yes"/>
      <point x="192" y="20" type="line"/>
      <point x="192" y="0" type="line"/>
      <point x="320" y="0" type="line" smooth="yes"/>
      <point x="395" y="0"/>
      <point x="448" y="36"/>
      <point x="448" y="156" type="curve" smooth="yes"/>
      <point x="448" y="268"/>
      <point x="383" y="293"/>
      <point x="300" y="292" type="curve" smooth="yes"/>
      <point x="276" y="292" type="line"/>
      <point x="276" y="439" type="line" smooth="yes"/>
      <point x="276" y="509"/>
      <point x="281" y="516"/>
      <point x="342" y="516" type="curve" smooth="yes"/>
      <point x="335" y="516" type="line"/>
      <point x="335" y="536" type="line"/>
      <point x="81" y="536" type="line"/>
      <point x="81" y="516" type="line"/>
      <point x="81" y="516" type="line" smooth="yes"/>
      <point x="123" y="516"/>
      <point x="143" y="513"/>
      <point x="143" y="450" type="curve" smooth="yes"/>
      <point x="143" y="440"/>
      <point x="125" y="275"/>
      <point x="116" y="218" type="curve" smooth="yes"/>
      <point x="83" y="19"/>
      <point x="65" y="17"/>
      <point x="47" y="17" type="curve" smooth="yes"/>
      <point x="27" y="17"/>
      <point x="23" y="25"/>
      <point x="23" y="55" type="curve"/>
      <point x="8" y="55"/>
      <point x="3" y="42"/>
      <point x="3" y="32" type="curve" smooth="yes"/>
      <point x="3" y="4"/>
      <point x="24" y="-7"/>
    </contour>
    <contour>
      <point x="276" y="25" type="line"/>
      <point x="276" y="267" type="line"/>
      <point x="323" y="267" type="line" smooth="yes"/>
      <point x="382" y="267"/>
      <point x="420" y="239"/>
      <point x="420" y="156" type="curve" smooth="yes"/>
      <point x="420" y="60"/>
      <point x="389" y="25"/>
      <point x="340" y="25" type="curve" smooth="yes"/>
    </contour>
  </outline>
</glyph>
<glyph name="uni0466" format="2">
  <advance width="387"/>
  <unicode hex="0466"/>
  <anchor x="193" y="0" name="bottom"/>
  <anchor x="193" y="714" name="top"/>
  <outline>
    <contour>
      <point x="-1" y="0" type="line"/>
      <point x="128" y="0" type="line"/>
      <point x="128" y="20" type="line"/>
      <point x="125" y="20" type="line" smooth="yes"/>
      <point x="84" y="20"/>
      <point x="74" y="31"/>
      <point x="74" y="45" type="curve" smooth="yes"/>
      <point x="74" y="54"/>
      <point x="81" y="82"/>
      <point x="88" y="115" type="curve" smooth="yes"/>
      <point x="144" y="360" type="line"/>
      <point x="187" y="360" type="line"/>
      <point x="187" y="0" type="line"/>
      <point x="215" y="0" type="line"/>
      <point x="215" y="360" type="line"/>
      <point x="265" y="360" type="line"/>
      <point x="329" y="87" type="line" smooth="yes"/>
      <point x="333" y="68"/>
      <point x="337" y="52"/>
      <point x="337" y="47" type="curve" smooth="yes"/>
      <point x="337" y="26"/>
      <point x="328" y="20"/>
      <point x="289" y="20" type="curve" smooth="yes"/>
      <point x="277" y="20" type="line"/>
      <point x="277" y="0" type="line"/>
      <point x="402" y="0" type="line"/>
      <point x="402" y="20" type="line"/>
      <point x="412" y="20" type="line" smooth="yes"/>
      <point x="380" y="20"/>
      <point x="369" y="22"/>
      <point x="366" y="43" type="curve" smooth="yes"/>
      <point x="213" y="714" type="line"/>
      <point x="197" y="714" type="line"/>
      <point x="70" y="134" type="line" smooth="yes"/>
      <point x="45" y="37"/>
      <point x="40" y="20"/>
      <point x="4" y="20" type="curve" smooth="yes"/>
      <point x="-1" y="20" type="line"/>
    </contour>
    <contour>
      <point x="150" y="385" type="line"/>
      <point x="176" y="504" type="line" smooth="yes"/>
      <point x="192" y="571"/>
      <point x="200" y="606"/>
      <point x="204" y="642" type="curve"/>
      <point x="210" y="615"/>
      <point x="216" y="577"/>
      <point x="238" y="485" type="curve" smooth="yes"/>
      <point x="259" y="385" type="line"/>
    </contour>
  </outline>
</glyph>
<glyph name="uni0493" format="2">
  <advance width="257"/>
  <unicode hex="0493"/>
  <anchor x="128" y="0" name="bottom"/>
  <anchor x="128" y="536" name="top"/>
  <outline>
    <contour>
      <point x="14" y="0" type="line"/>
      <point x="179" y="0" type="line"/>
      <point x="179" y="20" type="line"/>
      <point x="177" y="20" type="line" smooth="yes"/>
      <point x="114" y="20"/>
      <point x="108" y="24"/>
      <point x="108" y="97" type="curve" smooth="yes"/>
      <point x="108" y="261" type="line"/>
      <point x="179" y="261" type="line"/>
      <point x="179" y="286" type="line"/>
      <point x="108" y="286" type="line"/>
      <point x="108" y="511" type="line"/>
      <point x="183" y="511" type="line" smooth="yes"/>
      <point x="228" y="511"/>
      <point x="231" y="508"/>
      <point x="229" y="399" type="curve" smooth="yes"/>
      <point x="227" y="398" type="line"/>
      <point x="247" y="398" type="line"/>
      <point x="250" y="536" type="line"/>
      <point x="14" y="536" type="line"/>
      <point x="14" y="516" type="line"/>
      <point x="16" y="516" type="line" smooth="yes"/>
      <point x="75" y="516"/>
      <point x="80" y="512"/>
      <point x="80" y="439" type="curve" smooth="yes"/>
      <point x="80" y="286" type="line"/>
      <point x="14" y="286" type="line"/>
      <point x="14" y="261" type="line"/>
      <point x="80" y="261" type="line"/>
      <point x="80" y="97" type="line" smooth="yes"/>
      <point x="80" y="27"/>
      <point x="72" y="20"/>
      <point x="19" y="20" type="curve" smooth="yes"/>
      <point x="14" y="20" type="line"/>
    </contour>
  </outline>
</glyph>
<glyph name="uni0495" format="2">
  <advance width="295"/>
  <unicode hex="0495"/>
  <anchor x="147" y="-240" name="bottom"/>
  <anchor x="147" y="536" name="top"/>
  <outline>
    <contour>
      <point x="163" y="-240" type="curve" smooth="yes"/>
      <point x="234" y="-240"/>
      <point x="286" y="-194"/>
      <point x="286" y="30" type="curve" smooth="yes"/>
      <point x="286" y="242"/>
      <point x="200" y="292"/>
      <point x="161" y="292" type="curve" smooth="yes"/>
      <point x="141" y="292"/>
      <point x="123" y="291"/>
      <point x="108" y="284" type="curve"/>
      <point x="108" y="511" type="line"/>
      <point x="185" y="511" type="line" smooth="yes"/>
      <point x="226" y="511"/>
      <point x="231" y="508"/>
      <point x="229" y="401" type="curve" smooth="yes"/>
      <point x="227" y="398" type="line"/>
      <point x="247" y="398" type="line"/>
      <point x="250" y="536" type="line"/>
      <point x="14" y="536" type="line"/>
      <point x="14" y="516" type="line"/>
      <point x="16" y="516" type="line" smooth="yes"/>
      <point x="75" y="516"/>
      <point x="80" y="512"/>
      <point x="80" y="439" type="curve" smooth="yes"/>
      <point x="80" y="97" type="line" smooth="yes"/>
      <point x="80" y="27"/>
      <point x="72" y="20"/>
      <point x="19" y="20" type="curve" smooth="yes"/>
      <point x="14" y="20" type="line"/>
      <point x="14" y="0" type="line"/>
      <point x="179" y="0" type="line"/>
      <point x="179" y="20" type="line"/>
      <point x="179" y="20" type="line" smooth="yes"/>
      <point x="114" y="20"/>
      <point x="108" y="24"/>
      <point x="108" y="97" type="curve" smooth="yes"/>
      <point x="108" y="258" type="line"/>
      <point x="123" y="266"/>
      <point x="133" y="267"/>
      <point x="161" y="267" type="curve" smooth="yes"/>
      <point x="183" y="267"/>
      <point x="258" y="238"/>
      <point x="258" y="18" type="curve" smooth="yes"/>
      <point x="258" y="-185"/>
      <point x="214" y="-214"/>
      <point x="161" y="-214" type="curve" smooth="yes"/>
      <point x="108" y="-214"/>
      <point x="95" y="-178"/>
      <point x="95" y="-107" type="curve"/>
      <point x="79" y="-107"/>
      <point x="69" y="-115"/>
      <point x="69" y="-132" type="curve" smooth="yes"/>
      <point x="69" y="-175"/>
      <point x="85" y="-240"/>
    </contour>
  </outline>
</glyph>
<glyph name="uni04A5" format="2">
  <advance width="455"/>
  <unicode hex="04A5"/>
  <anchor x="227" y="0" name="bottom"/>
  <anchor x="227" y="536" name="top"/>
  <outline>
    <contour>
      <point x="14" y="0" type="line"/>
      <point x="168" y="0" type="line"/>
      <point x="168" y="20" type="line"/>
      <point x="175" y="20" type="line" smooth="yes"/>
      <point x="113" y="20"/>
      <point x="108" y="26"/>
      <point x="108" y="97" type="curve" smooth="yes"/>
      <point x="108" y="262" type="line"/>
      <point x="299" y="262" type="line"/>
      <point x="299" y="97" type="line" smooth="yes"/>
      <point x="299" y="27"/>
      <point x="292" y="20"/>
      <point x="238" y="20" type="curve" smooth="yes"/>
      <point x="237" y="20" type="line"/>
      <point x="237" y="0" type="line"/>
      <point x="390" y="0" type="line"/>
      <point x="390" y="20" type="line"/>
      <point x="393" y="20" type="line" smooth="yes"/>
      <point x="332" y="20"/>
      <point x="327" y="27"/>
      <point x="327" y="97" type="curve" smooth="yes"/>
      <point x="327" y="511" type="line"/>
      <point x="363" y="511" type="line" smooth="yes"/>
      <point x="419" y="511"/>
      <point x="422" y="505"/>
      <point x="425" y="416" type="curve" smooth="yes"/>
      <point x="422" y="407" type="line"/>
      <point x="442" y="407" type="line"/>
      <point x="441" y="536" type="line"/>
      <point x="237" y="536" type="line"/>
      <point x="237" y="516" type="line"/>
      <point x="238" y="516" type="line" smooth="yes"/>
      <point x="292" y="516"/>
      <point x="299" y="509"/>
      <point x="299" y="439" type="curve" smooth="yes"/>
      <point x="299" y="287" type="line"/>
      <point x="108" y="287" type="line"/>
      <point x="108" y="439" type="line" smooth="yes"/>
      <point x="108" y="509"/>
      <point x="115" y="516"/>
      <point x="167" y="516" type="curve" smooth="yes"/>
      <point x="168" y="516" type="line"/>
      <point x="168" y="536" type="line"/>
      <point x="14" y="536" type="line"/>
      <point x="14" y="516" type="line"/>
      <point x="15" y="516" type="line" smooth="yes"/>
      <point x="73" y="516"/>
      <point x="80" y="509"/>
      <point x="80" y="439" type="curve" smooth="yes"/>
      <point x="80" y="97" type="line" smooth="yes"/>
      <point x="80" y="26"/>
      <point x="72" y="20"/>
      <point x="19" y="20" type="curve" smooth="yes"/>
      <point x="14" y="20" type="line"/>
    </contour>
  </outline>
</glyph>
<glyph name="uni04AF" format="2">
  <advance width="333"/>
  <unicode hex="04AF"/>
  <anchor x="166" y="-238" name="bottom"/>
  <anchor x="166" y="536" name="top"/>
  <outline>
    <contour>
      <point x="77" y="-238" type="line"/>
      <point x="239" y="-238" type="line"/>
      <point x="239" y="-218" type="line"/>
      <point x="240" y="-218" type="line" smooth="yes"/>
      <point x="181" y="-218"/>
      <point x="174" y="-210"/>
      <point x="174" y="-143" type="curve" smooth="yes"/>
      <point x="173" y="3" type="line"/>
      <point x="290" y="473" type="line" smooth="yes"/>
      <point x="300" y="515"/>
      <point x="306" y="516"/>
      <point x="334" y="516" type="curve" smooth="yes"/>
      <point x="331" y="516" type="line"/>
      <point x="331" y="536" type="line"/>
      <point x="206" y="536" type="line"/>
      <point x="206" y="516" type="line"/>
      <point x="225" y="516" type="line" smooth="yes"/>
      <point x="259" y="516"/>
      <point x="269" y="511"/>
      <point x="269" y="493" type="curve" smooth="yes"/>
      <point x="268" y="483"/>
      <point x="255" y="441"/>
      <point x="234" y="360" type="curve" smooth="yes"/>
      <point x="199" y="215" type="line" smooth="yes"/>
      <point x="175" y="118"/>
      <point x="161" y="57"/>
      <point x="157" y="28" type="curve"/>
      <point x="149" y="70"/>
      <point x="127" y="178"/>
      <point x="115" y="235" type="curve" smooth="yes"/>
      <point x="82" y="408" type="line" smooth="yes"/>
      <point x="75" y="442"/>
      <point x="67" y="487"/>
      <point x="67" y="501" type="curve" smooth="yes"/>
      <point x="67" y="512"/>
      <point x="75" y="516"/>
      <point x="105" y="516" type="curve" smooth="yes"/>
      <point x="120" y="516" type="line"/>
      <point x="120" y="536" type="line"/>
      <point x="0" y="536" type="line"/>
      <point x="0" y="516" type="line"/>
      <point x="30" y="516"/>
      <point x="34" y="510"/>
      <point x="46" y="460" type="curve" smooth="yes"/>
      <point x="147" y="-22" type="line"/>
      <point x="146" y="-143" type="line" smooth="yes"/>
      <point x="146" y="-210"/>
      <point x="138" y="-218"/>
      <point x="77" y="-218" type="curve" smooth="yes"/>
      <point x="77" y="-218" type="line"/>
    </contour>
  </outline>
</glyph>
<glyph name="uni04B4" format="2">
  <advance width="498"/>
  <unicode hex="04B4"/>
  <anchor x="249" y="-210" name="bottom"/>
  <anchor x="249" y="714" name="top"/>
  <outline>
    <contour>
      <point x="469" y="-210" type="curve"/>
      <point x="489" y="-210" type="line"/>
      <point x="489" y="17" type="line"/>
      <point x="490" y="17" type="line" smooth="yes"/>
      <point x="431" y="17"/>
      <point x="425" y="31"/>
      <point x="425" y="105" type="curve" smooth="yes"/>
      <point x="425" y="607" type="line" smooth="yes"/>
      <point x="425" y="683"/>
      <point x="433" y="694"/>
      <point x="480" y="694" type="curve" smooth="yes"/>
      <point x="483" y="694" type="line"/>
      <point x="483" y="714" type="line"/>
      <point x="328" y="714" type="line"/>
      <point x="328" y="694" type="line"/>
      <point x="341" y="694" type="line" smooth="yes"/>
      <point x="392" y="694"/>
      <point x="397" y="683"/>
      <point x="397" y="607" type="curve" smooth="yes"/>
      <point x="397" y="25" type="line"/>
      <point x="173" y="25" type="line"/>
      <point x="173" y="689" type="line"/>
      <point x="204" y="689" type="line" smooth="yes"/>
      <point x="267" y="689"/>
      <point x="270" y="670"/>
      <point x="272" y="606" type="curve" smooth="yes"/>
      <point x="273" y="563" type="line"/>
      <point x="293" y="563" type="line"/>
      <point x="289" y="714" type="line"/>
      <point x="23" y="714" type="line"/>
      <point x="20" y="563" type="line"/>
      <point x="40" y="563" type="line"/>
      <point x="41" y="599" type="line" smooth="yes"/>
      <point x="43" y="674"/>
      <point x="45" y="689"/>
      <point x="113" y="689" type="curve" smooth="yes"/>
      <point x="145" y="689" type="line"/>
      <point x="145" y="108" type="line" smooth="yes"/>
      <point x="145" y="31"/>
      <point x="139" y="20"/>
      <point x="90" y="20" type="curve" smooth="yes"/>
      <point x="86" y="20" type="line"/>
      <point x="86" y="0" type="line"/>
      <point x="290" y="0" type="line" smooth="yes"/>
      <point x="454" y="0"/>
      <point x="469" y="5"/>
    </contour>
  </outline>
</glyph>
<glyph name="uni04C4" format="2">
  <advance width="347"/>
  <unicode hex="04C4"/>
  <anchor x="173" y="-240" name="bottom"/>
  <anchor x="173" y="536" name="top"/>
  <outline>
    <contour>
      <point x="207" y="-240" type="curve" smooth="yes"/>
      <point x="278" y="-240"/>
      <point x="336" y="-190"/>
      <point x="336" y="34" type="curve" smooth="yes"/>
      <point x="336" y="199"/>
      <point x="274" y="296"/>
      <point x="151" y="296" type="curve"/>
      <point x="171" y="318"/>
      <point x="191" y="361"/>
      <point x="219" y="417" type="curve" smooth="yes"/>
      <point x="251" y="487"/>
      <point x="261" y="517"/>
      <point x="296" y="517" type="curve" smooth="yes"/>
      <point x="312" y="517"/>
      <point x="323" y="502"/>
      <point x="325" y="470" type="curve"/>
      <point x="327" y="473"/>
      <point x="337" y="474"/>
      <point x="337" y="496" type="curve" smooth="yes"/>
      <point x="337" y="520"/>
      <point x="326" y="542"/>
      <point x="292" y="542" type="curve" smooth="yes"/>
      <point x="244" y="542"/>
      <point x="217" y="477"/>
      <point x="190" y="421" type="curve" smooth="yes"/>
      <point x="165" y="370"/>
      <point x="153" y="331"/>
      <point x="137" y="312" type="curve" smooth="yes"/>
      <point x="123" y="297"/>
      <point x="131" y="296"/>
      <point x="109" y="295" type="curve"/>
      <point x="109" y="439" type="line" smooth="yes"/>
      <point x="109" y="511"/>
      <point x="117" y="516"/>
      <point x="177" y="516" type="curve" smooth="yes"/>
      <point x="172" y="516" type="line"/>
      <point x="172" y="536" type="line"/>
      <point x="14" y="536" type="line"/>
      <point x="14" y="516" type="line"/>
      <point x="0" y="516" type="line" smooth="yes"/>
      <point x="77" y="516"/>
      <point x="81" y="509"/>
      <point x="81" y="439" type="curve" smooth="yes"/>
      <point x="81" y="96" type="line" smooth="yes"/>
      <point x="81" y="27"/>
      <point x="75" y="20"/>
      <point x="21" y="20" type="curve" smooth="yes"/>
      <point x="28" y="20" type="line"/>
      <point x="28" y="0" type="line"/>
      <point x="161" y="0" type="line"/>
      <point x="161" y="20" type="line"/>
      <point x="166" y="20" type="line" smooth="yes"/>
      <point x="116" y="20"/>
      <point x="109" y="27"/>
      <point x="109" y="97" type="curve" smooth="yes"/>
      <point x="109" y="271" type="line"/>
      <point x="134" y="274"/>
      <point x="144" y="271"/>
      <point x="151" y="271" type="curve" smooth="yes"/>
      <point x="257" y="271"/>
      <point x="308" y="185"/>
      <point x="308" y="22" type="curve" smooth="yes"/>
      <point x="308" y="-181"/>
      <point x="258" y="-214"/>
      <point x="205" y="-214" type="curve" smooth="yes"/>
      <point x="152" y="-214"/>
      <point x="144" y="-178"/>
      <point x="144" y="-107" type="curve"/>
      <point x="128" y="-107"/>
      <point x="118" y="-115"/>
      <point x="118" y="-132" type="curve" smooth="yes"/>
      <point x="118" y="-175"/>
      <point x="129" y="-240"/>
    </contour>
  </outline>
</glyph>
<glyph name="uni04CB" format="2">
  <advance width="440"/>
  <unicode hex="04CB"/>
  <anchor x="221" y="-210" name="bottom"/>
  <anchor x="221" y="714" name="top"/>
  <outline>
    <contour>
      <point x="257" y="-210" type="line"/>
      <point x="277" y="-210" type="line"/>
      <point x="277" y="3"/>
      <point x="290" y="0"/>
      <point x="460" y="0" type="curve" smooth="yes"/>
      <point x="413" y="0" type="line"/>
      <point x="413" y="20" type="line"/>
      <point x="410" y="20" type="line" smooth="yes"/>
      <point x="366" y="20"/>
      <point x="357" y="31"/>
      <point x="357" y="108" type="curve" smooth="yes"/>
      <point x="357" y="607" type="line" smooth="yes"/>
      <point x="357" y="683"/>
      <point x="365" y="694"/>
      <point x="412" y="694" type="curve" smooth="yes"/>
      <point x="413" y="694" type="line"/>
      <point x="413" y="714" type="line"/>
      <point x="270" y="714" type="line"/>
      <point x="270" y="694" type="line"/>
      <point x="273" y="694" type="line" smooth="yes"/>
      <point x="324" y="694"/>
      <point x="329" y="683"/>
      <point x="329" y="607" type="curve" smooth="yes"/>
      <point x="329" y="389" type="line"/>
      <point x="314" y="369"/>
      <point x="251" y="316"/>
      <point x="201" y="316" type="curve" smooth="yes"/>
      <point x="105" y="316"/>
      <point x="101" y="396"/>
      <point x="101" y="506" type="curve" smooth="yes"/>
      <point x="101" y="607" type="line" smooth="yes"/>
      <point x="101" y="683"/>
      <point x="109" y="694"/>
      <point x="157" y="694" type="curve" smooth="yes"/>
      <point x="172" y="694" type="line"/>
      <point x="172" y="714" type="line"/>
      <point x="14" y="714" type="line"/>
      <point x="14" y="694" type="line"/>
      <point x="17" y="694" type="line" smooth="yes"/>
      <point x="68" y="694"/>
      <point x="73" y="683"/>
      <point x="73" y="607" type="curve" smooth="yes"/>
      <point x="73" y="511" type="line" smooth="yes"/>
      <point x="73" y="359"/>
      <point x="99" y="292"/>
      <point x="205" y="292" type="curve" smooth="yes"/>
      <point x="261" y="292"/>
      <point x="316" y="348"/>
      <point x="329" y="362" type="curve"/>
      <point x="329" y="108" type="line" smooth="yes"/>
      <point x="329" y="31"/>
      <point x="322" y="17"/>
      <point x="274" y="17" type="curve" smooth="yes"/>
      <point x="257" y="17" type="line"/>
    </contour>
  </outline>
</glyph>
<glyph name="uni04F6" format="2">
  <advance width="321"/>
  <unicode hex="04F6"/>
  <anchor x="160" y="-210" name="bottom"/>
  <anchor x="160" y="714" name="top"/>
  <outline>
    <contour>
      <point x="163" y="-210" type="curve"/>
      <point x="183" y="-210" type="line"/>
      <point x="183" y="17" type="line"/>
      <point x="161" y="17" type="line" smooth="yes"/>
      <point x="117" y="17"/>
      <point x="110" y="31"/>
      <point x="110" y="105" type="curve" smooth="yes"/>
      <point x="110" y="689" type="line"/>
      <point x="222" y="689" type="line" smooth="yes"/>
      <point x="275" y="689"/>
      <point x="284" y="679"/>
      <point x="285" y="629" type="curve" smooth="yes"/>
      <point x="286" y="573" type="line"/>
      <point x="306" y="573" type="line"/>
      <point x="303" y="714" type="line"/>
      <point x="27" y="714" type="line"/>
      <point x="27" y="694" type="line"/>
      <point x="25" y="694" type="line" smooth="yes"/>
      <point x="77" y="694"/>
      <point x="82" y="683"/>
      <point x="82" y="607" type="curve" smooth="yes"/>
      <point x="82" y="108" type="line" smooth="yes"/>
      <point x="82" y="31"/>
      <point x="76" y="20"/>
      <point x="28" y="20" type="curve" smooth="yes"/>
      <point x="27" y="20" type="line"/>
      <point x="27" y="0" type="line"/>
      <point x="-21" y="0" type="line" smooth="yes"/>
      <point x="150" y="0"/>
      <point x="163" y="3"/>
    </contour>
  </outline>
</glyph>
<glyph name="uni0504" format="2">
  <advance width="518"/>
  <unicode hex="0504"/>
  <anchor x="259" y="0" name="bottom"/>
  <anchor x="259" y="714" name="top"/>
  <outline>
    <contour>
      <point x="353" y="-10" type="curve" smooth="yes"/>
      <point x="414" y="-10"/>
      <point x="444" y="42"/>
      <point x="444" y="169" type="curve" smooth="yes"/>
      <point x="444" y="265" type="line" smooth="yes"/>
      <point x="444" y="354"/>
      <point x="448" y="367"/>
      <point x="504" y="367" type="curve" smooth="yes"/>
      <point x="507" y="367" type="line"/>
      <point x="507" y="387" type="line"/>
      <point x="354" y="387" type="line"/>
      <point x="354" y="367" type="line"/>
      <point x="355" y="367" type="line" smooth="yes"/>
      <point x="412" y="367"/>
      <point x="416" y="354"/>
      <point x="416" y="265" type="curve" smooth="yes"/>
      <point x="416" y="188" type="line" smooth="yes"/>
      <point x="416" y="61"/>
      <point x="405" y="15"/>
      <point x="353" y="15" type="curve" smooth="yes"/>
      <point x="280" y="15"/>
      <point x="281" y="97"/>
      <point x="286" y="218" type="curve" smooth="yes"/>
      <point x="289" y="347"/>
      <point x="229" y="354"/>
      <point x="175" y="373" type="curve"/>
      <point x="242" y="394"/>
      <point x="286" y="456"/>
      <point x="286" y="562" type="curve" smooth="yes"/>
      <point x="286" y="684"/>
      <point x="227" y="724"/>
      <point x="153" y="724" type="curve" smooth="yes"/>
      <point x="18" y="724"/>
      <point x="22" y="616"/>
      <point x="22" y="593" type="curve" smooth="yes"/>
      <point x="22" y="559"/>
      <point x="33" y="549"/>
      <point x="39" y="549" type="curve"/>
      <point x="39" y="615"/>
      <point x="45" y="699"/>
      <point x="153" y="699" type="curve" smooth="yes"/>
      <point x="229" y="699"/>
      <point x="258" y="654"/>
      <point x="258" y="555" type="curve" smooth="yes"/>
      <point x="258" y="456"/>
      <point x="208" y="384"/>
      <point x="146" y="384" type="curve" smooth="yes"/>
      <point x="99" y="384" type="line"/>
      <point x="99" y="359" type="line"/>
      <point x="142" y="359" type="line" smooth="yes"/>
      <point x="209" y="359"/>
      <point x="263" y="316"/>
      <point x="258" y="213" type="curve" smooth="yes"/>
      <point x="250" y="89"/>
      <point x="257" y="-10"/>
    </contour>
  </outline>
</glyph>
<glyph name="uni050A" format="2">
  <advance width="601"/>
  <unicode hex="050A"/>
  <anchor x="301" y="0" name="bottom"/>
  <anchor x="301" y="714" name="top"/>
  <outline>
    <contour>
      <point x="435" y="-10" type="curve" smooth="yes"/>
      <point x="515" y="-10"/>
      <point x="533" y="51"/>
      <point x="533" y="165" type="curve" smooth="yes"/>
      <point x="533" y="265" type="line" smooth="yes"/>
      <point x="533" y="354"/>
      <point x="537" y="367"/>
      <point x="594" y="367" type="curve" smooth="yes"/>
      <point x="594" y="367" type="line"/>
      <point x="594" y="387" type="line"/>
      <point x="439" y="387" type="line"/>
      <point x="439" y="367" type="line"/>
      <point x="445" y="367" type="line" smooth="yes"/>
      <point x="501" y="367"/>
      <point x="505" y="354"/>
      <point x="505" y="265" type="curve" smooth="yes"/>
      <point x="505" y="188" type="line" smooth="yes"/>
      <point x="505" y="68"/>
      <point x="497" y="15"/>
      <point x="436" y="15" type="curve" smooth="yes"/>
      <point x="390" y="15"/>
      <point x="379" y="70"/>
      <point x="379" y="154" type="curve" smooth="yes"/>
      <point x="379" y="607" type="line" smooth="yes"/>
      <point x="379" y="683"/>
      <point x="385" y="694"/>
      <point x="434" y="694" type="curve" smooth="yes"/>
      <point x="438" y="694" type="line"/>
      <point x="438" y="714" type="line"/>
      <point x="283" y="714" type="line"/>
      <point x="283" y="694" type="line"/>
      <point x="294" y="694" type="line" smooth="yes"/>
      <point x="345" y="694"/>
      <point x="351" y="683"/>
      <point x="351" y="607" type="curve" smooth="yes"/>
      <point x="351" y="386" type="line"/>
      <point x="112" y="386" type="line"/>
      <point x="112" y="607" type="line" smooth="yes"/>
      <point x="112" y="683"/>
      <point x="118" y="694"/>
      <point x="167" y="694" type="curve" smooth="yes"/>
      <point x="180" y="694" type="line"/>
      <point x="180" y="714" type="line"/>
      <point x="28" y="714" type="line"/>
      <point x="28" y="694" type="line"/>
      <point x="28" y="694" type="line" smooth="yes"/>
      <point x="78" y="694"/>
      <point x="84" y="683"/>
      <point x="84" y="607" type="curve" smooth="yes"/>
      <point x="84" y="108" type="line" smooth="yes"/>
      <point x="84" y="31"/>
      <point x="78" y="20"/>
      <point x="29" y="20" type="curve" smooth="yes"/>
      <point x="28" y="20" type="line"/>
      <point x="28" y="0" type="line"/>
      <point x="180" y="0" type="line"/>
      <point x="180" y="20" type="line"/>
      <point x="168" y="20" type="line" smooth="yes"/>
      <point x="118" y="20"/>
      <point x="112" y="31"/>
      <point x="112" y="108" type="curve" smooth="yes"/>
      <point x="112" y="361" type="line"/>
      <point x="351" y="361" type="line"/>
      <point x="351" y="152" type="line" smooth="yes"/>
      <point x="351" y="66"/>
      <point x="362" y="-10"/>
    </contour>
  </outline>
</glyph>
<glyph name="uni1AB6" format="2">
  <unicode hex="1AB6"/>
  <anchor x="0" y="0" name="_bottom"/>
  <anchor x="0" y="-165" name="bottom"/>
  <outline>
    <contour>
      <point x="-58" y="-165" type="curve" smooth="yes"/>
      <point x="-24" y="-165"/>
      <point x="-9" y="-95"/>
      <point x="0" y="-95" type="curve" smooth="yes"/>
      <point x="9" y="-95"/>
      <point x="24" y="-165"/>
      <point x="59" y="-165" type="curve" smooth="yes"/>
      <point x="97" y="-165"/>
      <point x="107" y="-90"/>
      <point x="125" y="-90" type="curve" smooth="yes"/>
      <point x="147" y="-90"/>
      <point x="148" y="-129"/>
      <point x="151" y="-160" type="curve"/>
      <point x="174" y="-160" type="line"/>
      <point x="174" y="-102"/>
      <point x="154" y="-65"/>
      <point x="123" y="-65" type="curve" smooth="yes"/>
      <point x="77" y="-65"/>
      <point x="74" y="-135"/>
      <point x="59" y="-135" type="curve" smooth="yes"/>
      <point x="49" y="-135"/>
      <point x="31" y="-65"/>
      <point x="0" y="-65" type="curve" smooth="yes"/>
      <point x="-31" y="-65"/>
      <point x="-48" y="-135"/>
      <point x="-58" y="-135" type="curve" smooth="yes"/>
      <point x="-74" y="-135"/>
      <point x="-77" y="-65"/>
      <point x="-123" y="-65" type="curve" smooth="yes"/>
      <point x="-154" y="-65"/>
      <point x="-174" y="-102"/>
      <point x="-174" y="-160" type="curve"/>
      <point x="-151" y="-160" type="line"/>
      <point x="-148" y="-129"/>
      <point x="-147" y="-90"/>
      <point x="-125" y="-90" type="curve" smooth="yes"/>
      <point x="-105" y="-90"/>
      <point x="-95" y="-165"/>
    </contour>
  </outline>
</glyph>
<glyph name="uni1AB8" format="2">
  <unicode hex="1AB8"/>
  <anchor x="-166" y="0" name="_bottom"/>
  <anchor x="-166" y="-234" name="bottom"/>
  <outline>
    <contour>
      <point x="-103" y="-234" type="curve" smooth="yes"/>
      <point x="-89" y="-234"/>
      <point x="-69" y="-221"/>
      <point x="-69" y="-190" type="curve" smooth="yes"/>
      <point x="-69" y="-176"/>
      <point x="-72" y="-172"/>
      <point x="-74" y="-166" type="curve"/>
      <point x="-77" y="-187"/>
      <point x="-82" y="-205"/>
      <point x="-96" y="-205" type="curve" smooth="yes"/>
      <point x="-102" y="-205"/>
      <point x="-111" y="-190"/>
      <point x="-111" y="-127" type="curve" smooth="yes"/>
      <point x="-111" y="-40" type="line"/>
      <point x="-139" y="-40" type="line"/>
      <point x="-139" y="-133" type="line" smooth="yes"/>
      <point x="-139" y="-203"/>
      <point x="-127" y="-234"/>
    </contour>
    <contour>
      <point x="-229" y="-234" type="curve" smooth="yes"/>
      <point x="-214" y="-234"/>
      <point x="-195" y="-221"/>
      <point x="-195" y="-190" type="curve" smooth="yes"/>
      <point x="-195" y="-176"/>
      <point x="-197" y="-172"/>
      <point x="-199" y="-166" type="curve"/>
      <point x="-202" y="-187"/>
      <point x="-207" y="-205"/>
      <point x="-222" y="-205" type="curve" smooth="yes"/>
      <point x="-228" y="-205"/>
      <point x="-236" y="-190"/>
      <point x="-236" y="-127" type="curve" smooth="yes"/>
      <point x="-236" y="-40" type="line"/>
      <point x="-264" y="-40" type="line"/>
      <point x="-264" y="-133" type="line" smooth="yes"/>
      <point x="-264" y="-203"/>
      <point x="-252" y="-234"/>
    </contour>
  </outline>
</glyph>
<glyph name="uni1AB9" format="2">
  <unicode hex="1AB9"/>
  <anchor x="-247" y="66" name="_bottom"/>
  <anchor x="-247" y="-240" name="bottom"/>
  <outline>
    <contour>
      <point x="-262" y="-240" type="line"/>
      <point x="-204" y="26" type="line"/>
      <point x="-229" y="36" type="line"/>
      <point x="-291" y="-229" type="line"/>
    </contour>
  </outline>
</glyph>
<glyph name="uni1C87" format="2">
  <advance width="374"/>
  <unicode hex="1C87"/>
  <anchor x="188" y="0" name="bottom"/>
  <anchor x="188" y="760" name="top"/>
  <outline>
    <contour>
      <point x="57" y="0" type="line"/>
      <point x="207" y="0" type="line" smooth="yes"/>
      <point x="282" y="0"/>
      <point x="335" y="36"/>
      <point x="335" y="151" type="curve" smooth="yes"/>
      <point x="335" y="264"/>
      <point x="270" y="285"/>
      <point x="187" y="285" type="curve" smooth="yes"/>
      <point x="146" y="285" type="line"/>
      <point x="146" y="580" type="line"/>
      <point x="178" y="580" type="line" smooth="yes"/>
      <point x="239" y="580"/>
      <point x="243" y="580"/>
      <point x="244" y="516" type="curve" smooth="yes"/>
      <point x="244" y="508" type="line"/>
      <point x="264" y="508" type="line"/>
      <point x="262" y="605" type="line"/>
      <point x="146" y="605" type="line"/>
      <point x="146" y="645" type="line" smooth="yes"/>
      <point x="146" y="724"/>
      <point x="153" y="740"/>
      <point x="188" y="740" type="curve" smooth="yes"/>
      <point x="208" y="740" type="line"/>
      <point x="208" y="760" type="line"/>
      <point x="57" y="760" type="line"/>
      <point x="57" y="740" type="line"/>
      <point x="76" y="740" type="line" smooth="yes"/>
      <point x="112" y="740"/>
      <point x="118" y="724"/>
      <point x="118" y="645" type="curve" smooth="yes"/>
      <point x="118" y="605" type="line"/>
      <point x="17" y="605" type="line"/>
      <point x="15" y="508" type="line"/>
      <point x="35" y="508" type="line"/>
      <point x="34" y="516" type="line" smooth="yes"/>
      <point x="35" y="580"/>
      <point x="40" y="580"/>
      <point x="99" y="580" type="curve" smooth="yes"/>
      <point x="118" y="580" type="line"/>
      <point x="118" y="97" type="line" smooth="yes"/>
      <point x="118" y="24"/>
      <point x="110" y="20"/>
      <point x="51" y="20" type="curve" smooth="yes"/>
      <point x="57" y="20" type="line"/>
    </contour>
    <contour>
      <point x="146" y="25" type="line"/>
      <point x="146" y="260" type="line"/>
      <point x="210" y="260" type="line" smooth="yes"/>
      <point x="269" y="260"/>
      <point x="307" y="235"/>
      <point x="307" y="151" type="curve" smooth="yes"/>
      <point x="307" y="60"/>
      <point x="276" y="25"/>
      <point x="227" y="25" type="curve" smooth="yes"/>
    </contour>
  </outline>
</glyph>
<glyph name="uni1D23" format="2">
  <advance width="329"/>
  <unicode hex="1D23"/>
  <anchor x="165" y="0" name="bottom"/>
  <anchor x="165" y="536" name="top"/>
  <outline>
    <contour>
      <point x="151" y="-7" type="curve" smooth="yes"/>
      <point x="254" y="-7"/>
      <point x="256" y="82"/>
      <point x="256" y="142" type="curve" smooth="yes"/>
      <point x="256" y="247"/>
      <point x="200" y="301"/>
      <point x="102" y="301" type="curve"/>
      <point x="227" y="512" type="line"/>
      <point x="227" y="536" type="line"/>
      <point x="66" y="536" type="line"/>
      <point x="66" y="470" type="line"/>
      <point x="86" y="470" type="line"/>
      <point x="86" y="475" type="line" smooth="yes"/>
      <point x="88" y="499"/>
      <point x="90" y="506"/>
      <point x="158" y="506" type="curve" smooth="yes"/>
      <point x="197" y="506" type="line"/>
      <point x="74" y="301" type="line"/>
      <point x="74" y="271" type="line"/>
      <point x="103" y="271" type="line" smooth="yes"/>
      <point x="194" y="271"/>
      <point x="228" y="223"/>
      <point x="228" y="142" type="curve" smooth="yes"/>
      <point x="228" y="67"/>
      <point x="214" y="19"/>
      <point x="153" y="19" type="curve" smooth="yes"/>
      <point x="100" y="19"/>
      <point x="76" y="53"/>
      <point x="76" y="112" type="curve"/>
      <point x="60" y="112"/>
      <point x="53" y="90"/>
      <point x="53" y="66" type="curve" smooth="yes"/>
      <point x="53" y="41"/>
      <point x="81" y="-7"/>
    </contour>
  </outline>
</glyph>
<glyph name="uni1D24" format="2">
  <advance width="230"/>
  <unicode hex="1D24"/>
  <anchor x="115" y="0" name="bottom"/>
  <anchor x="115" y="536" name="top"/>
  <outline>
    <contour>
      <point x="123" y="-38" type="curve" smooth="yes"/>
      <point x="197" y="-38"/>
      <point x="206" y="26"/>
      <point x="206" y="83" type="curve" smooth="yes"/>
      <point x="206" y="132"/>
      <point x="194" y="151"/>
      <point x="180" y="147" type="curve"/>
      <point x="194" y="39"/>
      <point x="177" y="-13"/>
      <point x="122" y="-13" type="curve" smooth="yes"/>
      <point x="70" y="-13"/>
      <point x="55" y="26"/>
      <point x="55" y="101" type="curve" smooth="yes"/>
      <point x="55" y="177"/>
      <point x="101" y="212"/>
      <point x="116" y="247" type="curve"/>
      <point x="116" y="291" type="line"/>
      <point x="177" y="344"/>
      <point x="187" y="385"/>
      <point x="187" y="418" type="curve" smooth="yes"/>
      <point x="187" y="499"/>
      <point x="148" y="540"/>
      <point x="101" y="540" type="curve" smooth="yes"/>
      <point x="59" y="540"/>
      <point x="17" y="516"/>
      <point x="17" y="451" type="curve" smooth="yes"/>
      <point x="17" y="420"/>
      <point x="17" y="406"/>
      <point x="36" y="406" type="curve"/>
      <point x="36" y="470"/>
      <point x="50" y="515"/>
      <point x="100" y="515" type="curve" smooth="yes"/>
      <point x="154" y="515"/>
      <point x="159" y="464"/>
      <point x="159" y="417" type="curve" smooth="yes"/>
      <point x="159" y="401"/>
      <point x="155" y="360"/>
      <point x="112" y="326" type="curve"/>
      <point x="112" y="283" type="line"/>
      <point x="66" y="232"/>
      <point x="27" y="195"/>
      <point x="27" y="96" type="curve" smooth="yes"/>
      <point x="27" y="17"/>
      <point x="58" y="-38"/>
    </contour>
  </outline>
</glyph>
<glyph name="uni1D6D" format="2">
  <advance width="352"/>
  <unicode hex="1D6D"/>
  <outline>
    <contour>
      <point x="156" y="-10" type="curve" smooth="yes"/>
      <point x="200" y="-10"/>
      <point x="233" y="27"/>
      <point x="250" y="84" type="curve"/>
      <point x="252" y="84" type="line"/>
      <point x="256" y="0" type="line"/>
      <point x="340" y="0" type="line"/>
      <point x="340" y="20" type="line"/>
      <point x="338" y="20" type="line" smooth="yes"/>
      <point x="291" y="20"/>
      <point x="280" y="29"/>
      <point x="280" y="81" type="curve" smooth="yes"/>
      <point x="280" y="760" type="line"/>
      <point x="202" y="760" type="line"/>
      <point x="202" y="740" type="line"/>
      <point x="193" y="740" type="line" smooth="yes"/>
      <point x="247" y="740"/>
      <point x="252" y="734"/>
      <point x="252" y="652" type="curve" smooth="yes"/>
      <point x="252" y="545" type="line" smooth="yes"/>
      <point x="252" y="505"/>
      <point x="253" y="475"/>
      <point x="259" y="448" type="curve"/>
      <point x="255" y="448" type="line"/>
      <point x="235" y="503"/>
      <point x="213" y="545"/>
      <point x="166" y="545" type="curve" smooth="yes"/>
      <point x="103" y="545"/>
      <point x="38" y="498"/>
      <point x="38" y="267" type="curve" smooth="yes"/>
      <point x="38" y="41"/>
      <point x="82" y="-10"/>
    </contour>
    <contour>
      <point x="160" y="16" type="curve" smooth="yes"/>
      <point x="93" y="17"/>
      <point x="66" y="76"/>
      <point x="66" y="266" type="curve" smooth="yes"/>
      <point x="66" y="469"/>
      <point x="116" y="520"/>
      <point x="167" y="520" type="curve" smooth="yes"/>
      <point x="229" y="520"/>
      <point x="253" y="427"/>
      <point x="253" y="265" type="curve" smooth="yes"/>
      <point x="253" y="96"/>
      <point x="218" y="14"/>
    </contour>
    <contour>
      <point x="172" y="588" type="curve"/>
      <point x="199" y="588" type="line"/>
      <point x="200" y="622"/>
      <point x="206" y="643"/>
      <point x="224" y="643" type="curve" smooth="yes"/>
      <point x="251" y="643"/>
      <point x="266" y="570"/>
      <point x="314" y="570" type="curve" smooth="yes"/>
      <point x="361" y="570"/>
      <point x="366" y="620"/>
      <point x="370" y="657" type="curve"/>
      <point x="343" y="657" type="line"/>
      <point x="340" y="625"/>
      <point x="335" y="599"/>
      <point x="313" y="599" type="curve" smooth="yes"/>
      <point x="276" y="599"/>
      <point x="260" y="672"/>
      <point x="221" y="672" type="curve" smooth="yes"/>
      <point x="176" y="672"/>
      <point x="176" y="627"/>
    </contour>
  </outline>
</glyph>
<glyph name="uni1D6E" format="2">
  <advance width="203"/>
  <unicode hex="1D6E"/>
  <anchor x="148" y="772" name="top"/>
  <anchor x="229" y="772" name="topright"/>
  <anchor x="101" y="0" name="bottom"/>
  <outline>
    <contour>
      <point x="-14" y="274" type="curve"/>
      <point x="13" y="274" type="line"/>
      <point x="13" y="307"/>
      <point x="20" y="328"/>
      <point x="38" y="328" type="curve" smooth="yes"/>
      <point x="64" y="328"/>
      <point x="79" y="249"/>
      <point x="128" y="249" type="curve" smooth="yes"/>
      <point x="174" y="249"/>
      <point x="179" y="299"/>
      <point x="183" y="336" type="curve"/>
      <point x="156" y="336" type="line"/>
      <point x="154" y="304"/>
      <point x="148" y="278"/>
      <point x="126" y="278" type="curve" smooth="yes"/>
      <point x="89" y="278"/>
      <point x="74" y="358"/>
      <point x="35" y="358" type="curve" smooth="yes"/>
      <point x="-10" y="358"/>
      <point x="-10" y="312"/>
    </contour>
    <component base="f"/>
  </outline>
</glyph>
<glyph name="uni1D73" format="2">
  <advance width="243"/>
  <unicode hex="1D73"/>
  <anchor x="122" y="536" name="top"/>
  <anchor x="122" y="0" name="bottom"/>
  <outline>
    <contour>
      <point x="1" y="236" type="curve"/>
      <point x="26" y="236" type="line"/>
      <point x="30" y="270"/>
      <point x="36" y="289"/>
      <point x="53" y="289" type="curve" smooth="yes"/>
      <point x="81" y="289"/>
      <point x="84" y="236"/>
      <point x="130" y="236" type="curve" smooth="yes"/>
      <point x="173" y="236"/>
      <point x="183" y="286"/>
      <point x="183" y="322" type="curve"/>
      <point x="158" y="322" type="line"/>
      <point x="156" y="288"/>
      <point x="155" y="266"/>
      <point x="130" y="266" type="curve" smooth="yes"/>
      <point x="106" y="266"/>
      <point x="95" y="318"/>
      <point x="52" y="318" type="curve" smooth="yes"/>
      <point x="10" y="318"/>
      <point x="3" y="276"/>
    </contour>
    <component base="uni027E"/>
  </outline>
</glyph>
<glyph name="uni1D76" format="2">
  <advance width="299"/>
  <unicode hex="1D76"/>
  <anchor x="150" y="536" name="top"/>
  <anchor x="249" y="536" name="topright"/>
  <anchor x="150" y="0" name="bottom"/>
  <outline>
    <contour>
      <point x="45" y="229" type="curve"/>
      <point x="70" y="229" type="line"/>
      <point x="74" y="263"/>
      <point x="81" y="282"/>
      <point x="97" y="282" type="curve" smooth="yes"/>
      <point x="134" y="282"/>
      <point x="135" y="229"/>
      <point x="194" y="229" type="curve" smooth="yes"/>
      <point x="237" y="229"/>
      <point x="247" y="279"/>
      <point x="248" y="315" type="curve"/>
      <point x="222" y="315" type="line"/>
      <point x="220" y="281"/>
      <point x="219" y="259"/>
      <point x="194" y="259" type="curve" smooth="yes"/>
      <point x="162" y="259"/>
      <point x="151" y="311"/>
      <point x="96" y="311" type="curve" smooth="yes"/>
      <point x="54" y="311"/>
      <point x="47" y="269"/>
    </contour>
    <component base="z"/>
  </outline>
</glyph>
<glyph name="uni1D88" format="2">
  <advance width="356"/>
  <unicode hex="1D88"/>
  <anchor x="179" y="536" name="top"/>
  <anchor x="342" y="536" name="topright"/>
  <anchor x="179" y="-240" name="bottom"/>
  <outline>
    <contour>
      <point x="238" y="-194" type="curve" smooth="yes"/>
      <point x="280" y="-194"/>
      <point x="298" y="-166"/>
      <point x="298" y="-52" type="curve" smooth="yes"/>
      <point x="298" y="122" type="line"/>
      <point x="268" y="42" type="line"/>
      <point x="268" y="-56" type="line" smooth="yes"/>
      <point x="268" y="-138"/>
      <point x="262" y="-165"/>
      <point x="237" y="-165" type="curve" smooth="yes"/>
      <point x="217" y="-165"/>
      <point x="201" y="-148"/>
      <point x="205" y="-108" type="curve"/>
      <point x="201" y="-117"/>
      <point x="196" y="-124"/>
      <point x="196" y="-141" type="curve" smooth="yes"/>
      <point x="196" y="-176"/>
      <point x="213" y="-194"/>
    </contour>
    <component base="p"/>
  </outline>
</glyph>
<glyph name="uni1D90" format="2">
  <advance width="350"/>
  <unicode hex="1D90"/>
  <anchor x="175" y="536" name="top"/>
  <anchor x="175" y="0" name="bottom"/>
  <outline>
    <contour>
      <point x="370" y="-205" type="curve" smooth="yes"/>
      <point x="395" y="-205"/>
      <point x="412" y="-188"/>
      <point x="412" y="-153" type="curve" smooth="yes"/>
      <point x="412" y="-136"/>
      <point x="407" y="-129"/>
      <point x="403" y="-119" type="curve"/>
      <point x="407" y="-160"/>
      <point x="391" y="-177"/>
      <point x="371" y="-177" type="curve" smooth="yes"/>
      <point x="346" y="-177"/>
      <point x="340" y="-150"/>
      <point x="340" y="-68" type="curve" smooth="yes"/>
      <point x="340" y="8" type="line"/>
      <point x="310" y="8" type="line"/>
      <point x="310" y="-64" type="line" smooth="yes"/>
      <point x="310" y="-177"/>
      <point x="328" y="-205"/>
    </contour>
    <component base="uni0251"/>
  </outline>
</glyph>
<glyph name="uni1D96" format="2">
  <advance width="178"/>
  <unicode hex="1D96"/>
  <anchor x="93" y="738" name="top"/>
  <anchor x="145" y="738" name="topright"/>
  <anchor x="90" y="0" name="bottom"/>
  <outline>
    <contour>
      <point x="202" y="-194" type="curve" smooth="yes"/>
      <point x="226" y="-194"/>
      <point x="243" y="-176"/>
      <point x="243" y="-141" type="curve" smooth="yes"/>
      <point x="243" y="-124"/>
      <point x="238" y="-117"/>
      <point x="235" y="-108" type="curve"/>
      <point x="239" y="-148"/>
      <point x="223" y="-165"/>
      <point x="203" y="-165" type="curve" smooth="yes"/>
      <point x="178" y="-165"/>
      <point x="171" y="-138"/>
      <point x="171" y="-56" type="curve" smooth="yes"/>
      <point x="171" y="20" type="line"/>
      <point x="142" y="20" type="line"/>
      <point x="142" y="-52" type="line" smooth="yes"/>
      <point x="142" y="-166"/>
      <point x="160" y="-194"/>
    </contour>
    <component base="i"/>
  </outline>
</glyph>
<glyph name="uni1D97" format="2">
  <advance width="295"/>
  <unicode hex="1D97"/>
  <anchor x="147" y="536" name="top"/>
  <anchor x="147" y="0" name="bottom"/>
  <outline>
    <contour>
      <point x="99" y="-194" type="curve" smooth="yes"/>
      <point x="123" y="-194"/>
      <point x="140" y="-176"/>
      <point x="140" y="-141" type="curve" smooth="yes"/>
      <point x="140" y="-124"/>
      <point x="135" y="-117"/>
      <point x="132" y="-108" type="curve"/>
      <point x="136" y="-148"/>
      <point x="120" y="-165"/>
      <point x="100" y="-165" type="curve" smooth="yes"/>
      <point x="75" y="-165"/>
      <point x="68" y="-138"/>
      <point x="68" y="-56" type="curve" smooth="yes"/>
      <point x="68" y="31" type="line"/>
      <point x="39" y="96" type="line"/>
      <point x="39" y="-52" type="line" smooth="yes"/>
      <point x="39" y="-166"/>
      <point x="57" y="-194"/>
    </contour>
    <component base="uni0254"/>
  </outline>
</glyph>
<glyph name="uni1D9A" format="2">
  <advance width="326"/>
  <unicode hex="1D9A"/>
  <outline>
    <contour>
      <point x="110" y="-194" type="curve" smooth="yes"/>
      <point x="134" y="-194"/>
      <point x="151" y="-176"/>
      <point x="151" y="-141" type="curve" smooth="yes"/>
      <point x="151" y="-124"/>
      <point x="146" y="-117"/>
      <point x="143" y="-108" type="curve"/>
      <point x="147" y="-148"/>
      <point x="131" y="-165"/>
      <point x="111" y="-165" type="curve" smooth="yes"/>
      <point x="86" y="-165"/>
      <point x="79" y="-138"/>
      <point x="79" y="-56" type="curve" smooth="yes"/>
      <point x="79" y="15" type="line"/>
      <point x="97" y="3"/>
      <point x="118" y="-7"/>
      <point x="148" y="-7" type="curve" smooth="yes"/>
      <point x="251" y="-7"/>
      <point x="252" y="82"/>
      <point x="252" y="142" type="curve" smooth="yes"/>
      <point x="252" y="247"/>
      <point x="196" y="301"/>
      <point x="99" y="301" type="curve"/>
      <point x="224" y="512" type="line"/>
      <point x="224" y="536" type="line"/>
      <point x="63" y="536" type="line"/>
      <point x="64" y="470" type="line"/>
      <point x="84" y="470" type="line"/>
      <point x="83" y="476" type="line" smooth="yes"/>
      <point x="84" y="500"/>
      <point x="82" y="506"/>
      <point x="139" y="506" type="curve" smooth="yes"/>
      <point x="194" y="506" type="line"/>
      <point x="71" y="301" type="line"/>
      <point x="71" y="271" type="line"/>
      <point x="100" y="271" type="line" smooth="yes"/>
      <point x="191" y="271"/>
      <point x="224" y="223"/>
      <point x="224" y="142" type="curve" smooth="yes"/>
      <point x="224" y="67"/>
      <point x="211" y="19"/>
      <point x="150" y="19" type="curve" smooth="yes"/>
      <point x="96" y="19"/>
      <point x="72" y="53"/>
      <point x="72" y="112" type="curve"/>
      <point x="57" y="112"/>
      <point x="50" y="90"/>
      <point x="50" y="66" type="curve" smooth="yes"/>
      <point x="50" y="-52" type="line" smooth="yes"/>
      <point x="50" y="-166"/>
      <point x="68" y="-194"/>
    </contour>
  </outline>
</glyph>
<glyph name="brevemacron" format="2">
  <unicode hex="1DCB"/>
  <anchor x="-87" y="536" name="_top"/>
  <anchor x="-87" y="707" name="top"/>
  <outline>
    <contour>
      <point x="-164" y="583" type="curve" smooth="yes"/>
      <point x="-101" y="583"/>
      <point x="-84" y="622"/>
      <point x="-87" y="707" type="curve"/>
      <point x="-108" y="707" type="line"/>
      <point x="-114" y="631"/>
      <point x="-122" y="609"/>
      <point x="-164" y="609" type="curve" smooth="yes"/>
      <point x="-202" y="609"/>
      <point x="-212" y="628"/>
      <point x="-220" y="707" type="curve"/>
      <point x="-239" y="707" type="line"/>
      <point x="-242" y="624"/>
      <point x="-226" y="583"/>
    </contour>
    <contour>
      <point x="-109" y="682" type="line"/>
      <point x="66" y="682" type="line"/>
      <point x="66" y="707" type="line"/>
      <point x="-109" y="707" type="line"/>
    </contour>
  </outline>
</glyph>
<glyph name="flattenedopenaabove" format="2">
  <unicode hex="1DD3"/>
  <anchor x="0" y="536" name="_top"/>
  <anchor x="0" y="733" name="top"/>
  <outline>
    <contour>
      <point x="-67" y="618" type="curve" smooth="yes"/>
      <point x="-35" y="618"/>
      <point x="-11" y="634"/>
      <point x="0" y="692" type="curve"/>
      <point x="11" y="634"/>
      <point x="35" y="618"/>
      <point x="67" y="618" type="curve" smooth="yes"/>
      <point x="97" y="618"/>
      <point x="117" y="659"/>
      <point x="115" y="733" type="curve"/>
      <point x="99" y="733" type="line"/>
      <point x="94" y="683"/>
      <point x="87" y="648"/>
      <point x="60" y="648" type="curve" smooth="yes"/>
      <point x="27" y="648"/>
      <point x="20" y="675"/>
      <point x="9" y="733" type="curve"/>
      <point x="-9" y="733" type="line"/>
      <point x="-20" y="675"/>
      <point x="-27" y="648"/>
      <point x="-60" y="648" type="curve" smooth="yes"/>
      <point x="-87" y="648"/>
      <point x="-94" y="683"/>
      <point x="-99" y="733" type="curve"/>
      <point x="-115" y="733" type="line"/>
      <point x="-117" y="659"/>
      <point x="-97" y="618"/>
    </contour>
  </outline>
</glyph>
<glyph name="arrowheadleftabovecomb" format="2">
  <unicode hex="1DFE"/>
  <anchor x="0" y="536" name="_top"/>
  <anchor x="0" y="776" name="top"/>
  <outline>
    <contour>
      <point x="48" y="569" type="curve"/>
      <point x="54" y="569" type="line"/>
      <point x="54" y="615" type="line"/>
      <point x="34" y="641"/>
      <point x="20" y="657"/>
      <point x="-3" y="673" type="curve"/>
      <point x="16" y="687"/>
      <point x="38" y="709"/>
      <point x="54" y="730" type="curve"/>
      <point x="54" y="776" type="line"/>
      <point x="48" y="776" type="line"/>
      <point x="14" y="736"/>
      <point x="-12" y="719"/>
      <point x="-54" y="697" type="curve"/>
      <point x="-54" y="648" type="line"/>
      <point x="-22" y="630"/>
      <point x="13" y="610"/>
    </contour>
  </outline>
</glyph>
<glyph name="arrowheadrightheaddownbelow" format="2">
  <unicode hex="1DFF"/>
  <anchor x="0" y="0" name="_bottom"/>
  <anchor x="0" y="-240" name="bottom"/>
  <outline>
    <contour>
      <point x="40" y="-240" type="curve"/>
      <point x="75" y="-240" type="line"/>
      <point x="83" y="-180"/>
      <point x="97" y="-123"/>
      <point x="118" y="-58" type="curve"/>
      <point x="118" y="-48" type="line"/>
      <point x="88" y="-48" type="line"/>
      <point x="78" y="-73"/>
      <point x="67" y="-108"/>
      <point x="58" y="-142" type="curve"/>
      <point x="50" y="-103"/>
      <point x="36" y="-65"/>
      <point x="30" y="-48" type="curve"/>
      <point x="-1" y="-48" type="line"/>
      <point x="-1" y="-58" type="line"/>
      <point x="21" y="-124"/>
      <point x="35" y="-179"/>
    </contour>
    <contour>
      <point x="-118" y="-240" type="line"/>
      <point x="-111" y="-240" type="line"/>
      <point x="-72" y="-203"/>
      <point x="-45" y="-178"/>
      <point x="-7" y="-169" type="curve"/>
      <point x="-7" y="-111" type="line"/>
      <point x="-46" y="-96"/>
      <point x="-71" y="-76"/>
      <point x="-111" y="-40" type="curve"/>
      <point x="-118" y="-40" type="line"/>
      <point x="-118" y="-91" type="line"/>
      <point x="-103" y="-108"/>
      <point x="-79" y="-127"/>
      <point x="-60" y="-140" type="curve"/>
      <point x="-83" y="-154"/>
      <point x="-107" y="-177"/>
      <point x="-118" y="-189" type="curve"/>
    </contour>
  </outline>
</glyph>
<glyph name="quoteleft" format="2">
  <advance width="139"/>
  <unicode hex="2018"/>
  <outline>
    <contour>
      <point x="90" y="450" type="curve" smooth="yes"/>
      <point x="110" y="450"/>
      <point x="116" y="466"/>
      <point x="116" y="472" type="curve" smooth="yes"/>
      <point x="116" y="507"/>
      <point x="80" y="504"/>
      <point x="80" y="580" type="curve" smooth="yes"/>
      <point x="80" y="617"/>
      <point x="85" y="647"/>
      <point x="145" y="684" type="curve"/>
      <point x="145" y="719" type="line"/>
      <point x="62" y="666"/>
      <point x="47" y="632"/>
      <point x="47" y="548" type="curve" smooth="yes"/>
      <point x="47" y="499"/>
      <point x="58" y="450"/>
    </contour>
  </outline>
</glyph>
<glyph name="quotedblleft" format="2">
  <advance width="275"/>
  <unicode hex="201C"/>
  <outline>
    <contour>
      <point x="180" y="450" type="curve" smooth="yes"/>
      <point x="201" y="450"/>
      <point x="206" y="466"/>
      <point x="206" y="472" type="curve" smooth="yes"/>
      <point x="206" y="507"/>
      <point x="171" y="504"/>
      <point x="171" y="580" type="curve" smooth="yes"/>
      <point x="171" y="617"/>
      <point x="175" y="647"/>
      <point x="236" y="684" type="curve"/>
      <point x="236" y="719" type="line"/>
      <point x="152" y="666"/>
      <point x="137" y="632"/>
      <point x="137" y="548" type="curve" smooth="yes"/>
      <point x="137" y="499"/>
      <point x="148" y="450"/>
    </contour>
    <contour>
      <point x="125" y="450" type="curve" smooth="yes"/>
      <point x="146" y="450"/>
      <point x="151" y="466"/>
      <point x="151" y="472" type="curve" smooth="yes"/>
      <point x="151" y="507"/>
      <point x="116" y="504"/>
      <point x="116" y="580" type="curve" smooth="yes"/>
      <point x="116" y="617"/>
      <point x="120" y="647"/>
      <point x="181" y="684" type="curve"/>
      <point x="181" y="719" type="line"/>
      <point x="97" y="666"/>
      <point x="82" y="632"/>
      <point x="82" y="548" type="curve" smooth="yes"/>
      <point x="82" y="499"/>
      <point x="93" y="450"/>
    </contour>
  </outline>
</glyph>
<glyph name="daggerdbl" format="2">
  <advance width="255"/>
  <unicode hex="2021"/>
  <outline>
    <contour>
      <point x="107" y="-111" type="line"/>
      <point x="148" y="-111" type="line"/>
      <point x="136" y="106" type="line"/>
      <point x="235" y="91" type="line"/>
      <point x="235" y="130" type="line"/>
      <point x="136" y="121" type="line"/>
      <point x="157" y="210" type="line"/>
      <point x="137" y="270"/>
      <point x="136" y="319"/>
      <point x="139" y="329" type="curve"/>
      <point x="136" y="338"/>
      <point x="132" y="380"/>
      <point x="159" y="439" type="curve"/>
      <point x="136" y="537" type="line"/>
      <point x="235" y="520" type="line"/>
      <point x="235" y="559" type="line"/>
      <point x="136" y="552" type="line"/>
      <point x="148" y="760" type="line"/>
      <point x="107" y="760" type="line"/>
      <point x="119" y="552" type="line"/>
      <point x="22" y="559" type="line"/>
      <point x="22" y="520" type="line"/>
      <point x="119" y="537" type="line"/>
      <point x="101" y="439" type="line"/>
      <point x="123" y="382"/>
      <point x="122" y="336"/>
      <point x="119" y="329" type="curve"/>
      <point x="122" y="319"/>
      <point x="120" y="270"/>
      <point x="100" y="210" type="curve"/>
      <point x="119" y="121" type="line"/>
      <point x="22" y="130" type="line"/>
      <point x="22" y="91" type="line"/>
      <point x="119" y="106" type="line"/>
    </contour>
  </outline>
</glyph>
<glyph name="ellipsis" format="2">
  <advance width="860"/>
  <unicode hex="2026"/>
  <outline>
    <contour>
      <point x="749" y="-7" type="curve" smooth="yes"/>
      <point x="762" y="-7"/>
      <point x="775" y="4"/>
      <point x="775" y="32" type="curve" smooth="yes"/>
      <point x="775" y="62"/>
      <point x="762" y="73"/>
      <point x="749" y="73" type="curve" smooth="yes"/>
      <point x="731" y="73"/>
      <point x="718" y="62"/>
      <point x="718" y="32" type="curve" smooth="yes"/>
      <point x="718" y="4"/>
      <point x="731" y="-7"/>
    </contour>
    <contour>
      <point x="116" y="-7" type="curve" smooth="yes"/>
      <point x="128" y="-7"/>
      <point x="141" y="4"/>
      <point x="141" y="32" type="curve" smooth="yes"/>
      <point x="141" y="62"/>
      <point x="128" y="73"/>
      <point x="116" y="73" type="curve" smooth="yes"/>
      <point x="97" y="73"/>
      <point x="85" y="62"/>
      <point x="85" y="32" type="curve" smooth="yes"/>
      <point x="85" y="4"/>
      <point x="97" y="-7"/>
    </contour>
    <contour>
      <point x="432" y="-7" type="curve" smooth="yes"/>
      <point x="445" y="-7"/>
      <point x="458" y="4"/>
      <point x="458" y="32" type="curve" smooth="yes"/>
      <point x="458" y="62"/>
      <point x="445" y="73"/>
      <point x="432" y="73" type="curve" smooth="yes"/>
      <point x="414" y="73"/>
      <point x="402" y="62"/>
      <point x="402" y="32" type="curve" smooth="yes"/>
      <point x="402" y="4"/>
      <point x="414" y="-7"/>
    </contour>
  </outline>
</glyph>
<glyph name="guilsinglright" format="2">
  <advance width="190"/>
  <unicode hex="203A"/>
  <outline>
    <contour>
      <point x="38" y="90" type="line"/>
      <point x="46" y="90" type="line"/>
      <point x="149" y="264" type="line"/>
      <point x="149" y="276" type="line"/>
      <point x="46" y="450" type="line"/>
      <point x="38" y="450" type="line"/>
      <point x="98" y="270" type="line"/>
    </contour>
  </outline>
</glyph>
<glyph name="closeup" format="2">
  <advance width="420"/>
  <unicode hex="2050"/>
  <outline>
    <contour>
      <point x="24" y="532" type="curve"/>
      <point x="48" y="532" type="line"/>
      <point x="82" y="602"/>
      <point x="128" y="694"/>
      <point x="207" y="694" type="curve" smooth="yes"/>
      <point x="283" y="694"/>
      <point x="330" y="605"/>
      <point x="366" y="532" type="curve"/>
      <point x="391" y="532" type="line"/>
      <point x="357" y="622"/>
      <point x="307" y="724"/>
      <point x="207" y="724" type="curve" smooth="yes"/>
      <point x="106" y="724"/>
      <point x="58" y="622"/>
    </contour>
    <contour>
      <point x="207" y="-10" type="curve" smooth="yes"/>
      <point x="307" y="-10"/>
      <point x="357" y="77"/>
      <point x="391" y="171" type="curve"/>
      <point x="366" y="171" type="line"/>
      <point x="330" y="99"/>
      <point x="283" y="20"/>
      <point x="207" y="20" type="curve" smooth="yes"/>
      <point x="128" y="20"/>
      <point x="82" y="101"/>
      <point x="48" y="171" type="curve"/>
      <point x="24" y="171" type="line"/>
      <point x="58" y="77"/>
      <point x="106" y="-10"/>
    </contour>
  </outline>
</glyph>
<glyph name="dottedcross" format="2">
  <advance width="415"/>
  <unicode hex="205C"/>
  <outline>
    <contour>
      <point x="80" y="0" type="curve" smooth="yes"/>
      <point x="93" y="0"/>
      <point x="106" y="11"/>
      <point x="106" y="38" type="curve" smooth="yes"/>
      <point x="106" y="68"/>
      <point x="93" y="80"/>
      <point x="80" y="80" type="curve" smooth="yes"/>
      <point x="62" y="80"/>
      <point x="49" y="68"/>
      <point x="49" y="38" type="curve" smooth="yes"/>
      <point x="49" y="11"/>
      <point x="62" y="0"/>
    </contour>
    <contour>
      <point x="80" y="456" type="curve" smooth="yes"/>
      <point x="93" y="456"/>
      <point x="106" y="467"/>
      <point x="106" y="495" type="curve" smooth="yes"/>
      <point x="106" y="525"/>
      <point x="93" y="536"/>
      <point x="80" y="536" type="curve" smooth="yes"/>
      <point x="62" y="536"/>
      <point x="49" y="525"/>
      <point x="49" y="495" type="curve" smooth="yes"/>
      <point x="49" y="467"/>
      <point x="62" y="456"/>
    </contour>
    <contour>
      <point x="360" y="0" type="curve" smooth="yes"/>
      <point x="372" y="0"/>
      <point x="385" y="11"/>
      <point x="385" y="38" type="curve" smooth="yes"/>
      <point x="385" y="68"/>
      <point x="372" y="80"/>
      <point x="360" y="80" type="curve" smooth="yes"/>
      <point x="341" y="80"/>
      <point x="329" y="68"/>
      <point x="329" y="38" type="curve" smooth="yes"/>
      <point x="329" y="11"/>
      <point x="341" y="0"/>
    </contour>
    <contour>
      <point x="360" y="456" type="curve" smooth="yes"/>
      <point x="372" y="456"/>
      <point x="385" y="467"/>
      <point x="385" y="495" type="curve" smooth="yes"/>
      <point x="385" y="525"/>
      <point x="372" y="536"/>
      <point x="360" y="536" type="curve" smooth="yes"/>
      <point x="341" y="536"/>
      <point x="329" y="525"/>
      <point x="329" y="495" type="curve" smooth="yes"/>
      <point x="329" y="467"/>
      <point x="341" y="456"/>
    </contour>
    <contour>
      <point x="197" y="0" type="line"/>
      <point x="225" y="0" type="line"/>
      <point x="225" y="255" type="line"/>
      <point x="369" y="255" type="line"/>
      <point x="369" y="283" type="line"/>
      <point x="225" y="283" type="line"/>
      <point x="225" y="536" type="line"/>
      <point x="197" y="536" type="line"/>
      <point x="197" y="283" type="line"/>
      <point x="49" y="283" type="line"/>
      <point x="49" y="255" type="line"/>
      <point x="197" y="255" type="line"/>
    </contour>
  </outline>
</glyph>
<glyph name="imod" format="2">
  <advance width="115"/>
  <unicode hex="2071"/>
  <anchor x="59" y="287" name="bottom"/>
  <anchor x="61" y="730" name="top"/>
  <anchor x="94" y="730" name="topright"/>
  <outline>
    <contour>
      <point x="10" y="287" type="line"/>
      <point x="111" y="287" type="line"/>
      <point x="111" y="299" type="line"/>
      <point x="110" y="299" type="line" smooth="yes"/>
      <point x="77" y="299"/>
      <point x="72" y="303"/>
      <point x="72" y="345" type="curve" smooth="yes"/>
      <point x="72" y="609" type="line"/>
      <point x="17" y="609" type="line"/>
      <point x="17" y="597" type="line"/>
      <point x="16" y="597" type="line" smooth="yes"/>
      <point x="53" y="597"/>
      <point x="54" y="590"/>
      <point x="54" y="549" type="curve" smooth="yes"/>
      <point x="54" y="345" type="line" smooth="yes"/>
      <point x="54" y="303"/>
      <point x="49" y="299"/>
      <point x="15" y="299" type="curve" smooth="yes"/>
      <point x="10" y="299" type="line"/>
    </contour>
    <contour>
      <point x="60" y="682" type="curve" smooth="yes"/>
      <point x="67" y="682"/>
      <point x="75" y="687"/>
      <point x="75" y="706" type="curve" smooth="yes"/>
      <point x="75" y="724"/>
      <point x="67" y="730"/>
      <point x="60" y="730" type="curve" smooth="yes"/>
      <point x="51" y="730"/>
      <point x="46" y="724"/>
      <point x="46" y="706" type="curve" smooth="yes"/>
      <point x="46" y="687"/>
      <point x="51" y="682"/>
    </contour>
  </outline>
</glyph>
<glyph name="ninesuperior" format="2">
  <advance width="238"/>
  <unicode hex="2079"/>
  <outline>
    <contour>
      <point x="98" y="377" type="curve" smooth="yes"/>
      <point x="168" y="377"/>
      <point x="202" y="426"/>
      <point x="202" y="623" type="curve" smooth="yes"/>
      <point x="202" y="771"/>
      <point x="168" y="819"/>
      <point x="121" y="819" type="curve" smooth="yes"/>
      <point x="60" y="819"/>
      <point x="29" y="766"/>
      <point x="29" y="677" type="curve" smooth="yes"/>
      <point x="29" y="585"/>
      <point x="63" y="550"/>
      <point x="108" y="550" type="curve" smooth="yes"/>
      <point x="139" y="550"/>
      <point x="163" y="575"/>
      <point x="172" y="595" type="curve"/>
      <point x="172" y="457"/>
      <point x="152" y="402"/>
      <point x="102" y="402" type="curve" smooth="yes"/>
      <point x="60" y="402"/>
      <point x="48" y="429"/>
      <point x="48" y="465" type="curve"/>
      <point x="38" y="465"/>
      <point x="26" y="454"/>
      <point x="26" y="430" type="curve" smooth="yes"/>
      <point x="26" y="410"/>
      <point x="46" y="377"/>
    </contour>
    <contour>
      <point x="112" y="576" type="curve" smooth="yes"/>
      <point x="80" y="576"/>
      <point x="58" y="607"/>
      <point x="58" y="674" type="curve" smooth="yes"/>
      <point x="58" y="751"/>
      <point x="80" y="794"/>
      <point x="121" y="794" type="curve" smooth="yes"/>
      <point x="151" y="794"/>
      <point x="174" y="755"/>
      <point x="174" y="628" type="curve"/>
      <point x="154" y="598"/>
      <point x="142" y="576"/>
    </contour>
  </outline>
</glyph>
<glyph name="afii08941" format="2">
  <advance width="336"/>
  <unicode hex="20A4"/>
  <outline>
    <contour>
      <point x="48" y="1" type="line"/>
      <point x="52" y="6" type="line" smooth="yes"/>
      <point x="78" y="26"/>
      <point x="103" y="36"/>
      <point x="131" y="36" type="curve" smooth="yes"/>
      <point x="151" y="36"/>
      <point x="172" y="25"/>
      <point x="187" y="15" type="curve" smooth="yes"/>
      <point x="208" y="4"/>
      <point x="235" y="-9"/>
      <point x="265" y="-9" type="curve" smooth="yes"/>
      <point x="304" y="-9"/>
      <point x="315" y="22"/>
      <point x="320" y="31" type="curve"/>
      <point x="320" y="75" type="line"/>
      <point x="297" y="46"/>
      <point x="293" y="19"/>
      <point x="262" y="19" type="curve" smooth="yes"/>
      <point x="258" y="19"/>
      <point x="241" y="20"/>
      <point x="213" y="34" type="curve" smooth="yes"/>
      <point x="204" y="39"/>
      <point x="171" y="61"/>
      <point x="141" y="61" type="curve" smooth="yes"/>
      <point x="133" y="61"/>
      <point x="122" y="63"/>
      <point x="118" y="66" type="curve"/>
      <point x="118" y="70" type="line"/>
      <point x="145" y="103"/>
      <point x="157" y="184"/>
      <point x="147" y="248" type="curve"/>
      <point x="226" y="248" type="line"/>
      <point x="226" y="274" type="line"/>
      <point x="141" y="274" type="line"/>
      <point x="138" y="299"/>
      <point x="135" y="321"/>
      <point x="127" y="359" type="curve"/>
      <point x="226" y="359" type="line"/>
      <point x="226" y="384" type="line"/>
      <point x="122" y="384" type="line"/>
      <point x="110" y="439"/>
      <point x="106" y="515"/>
      <point x="106" y="544" type="curve" smooth="yes"/>
      <point x="106" y="642"/>
      <point x="120" y="700"/>
      <point x="192" y="700" type="curve" smooth="yes"/>
      <point x="244" y="700"/>
      <point x="270" y="668"/>
      <point x="270" y="570" type="curve"/>
      <point x="285" y="570"/>
      <point x="289" y="576"/>
      <point x="289" y="612" type="curve" smooth="yes"/>
      <point x="289" y="679"/>
      <point x="271" y="725"/>
      <point x="187" y="725" type="curve" smooth="yes"/>
      <point x="110" y="725"/>
      <point x="78" y="664"/>
      <point x="78" y="549" type="curve" smooth="yes"/>
      <point x="78" y="512"/>
      <point x="87" y="442"/>
      <point x="94" y="384" type="curve"/>
      <point x="37" y="384" type="line"/>
      <point x="37" y="359" type="line"/>
      <point x="97" y="359" type="line"/>
      <point x="105" y="324"/>
      <point x="108" y="299"/>
      <point x="110" y="274" type="curve"/>
      <point x="37" y="274" type="line"/>
      <point x="37" y="248" type="line"/>
      <point x="117" y="248" type="line"/>
      <point x="125" y="177"/>
      <point x="128" y="97"/>
      <point x="61" y="38" type="curve"/>
      <point x="48" y="28" type="line"/>
    </contour>
  </outline>
</glyph>
<glyph name="peseta" format="2">
  <advance width="454"/>
  <unicode hex="20A7"/>
  <outline>
    <contour>
      <point x="27" y="0" type="line"/>
      <point x="175" y="0" type="line"/>
      <point x="175" y="20" type="line"/>
      <point x="168" y="20" type="line" smooth="yes"/>
      <point x="116" y="20"/>
      <point x="110" y="31"/>
      <point x="110" y="108" type="curve" smooth="yes"/>
      <point x="110" y="284" type="line"/>
      <point x="124" y="284" type="line" smooth="yes"/>
      <point x="240" y="284"/>
      <point x="264" y="410"/>
      <point x="264" y="509" type="curve" smooth="yes"/>
      <point x="264" y="652"/>
      <point x="223" y="714"/>
      <point x="125" y="714" type="curve" smooth="yes"/>
      <point x="27" y="714" type="line"/>
      <point x="27" y="694" type="line"/>
      <point x="25" y="694" type="line" smooth="yes"/>
      <point x="77" y="694"/>
      <point x="82" y="683"/>
      <point x="82" y="607" type="curve" smooth="yes"/>
      <point x="82" y="110" type="line" smooth="yes"/>
      <point x="82" y="31"/>
      <point x="77" y="20"/>
      <point x="26" y="20" type="curve" smooth="yes"/>
      <point x="27" y="20" type="line"/>
    </contour>
    <contour>
      <point x="110" y="309" type="line"/>
      <point x="110" y="689" type="line"/>
      <point x="125" y="689" type="line" smooth="yes"/>
      <point x="213" y="689"/>
      <point x="236" y="632"/>
      <point x="236" y="509" type="curve" smooth="yes"/>
      <point x="236" y="434"/>
      <point x="223" y="309"/>
      <point x="129" y="309" type="curve" smooth="yes"/>
    </contour>
    <contour>
      <point x="397" y="-10" type="curve" smooth="yes"/>
      <point x="405" y="-10"/>
      <point x="420" y="-9"/>
      <point x="427" y="-6" type="curve"/>
      <point x="427" y="19" type="line"/>
      <point x="416" y="16"/>
      <point x="406" y="15"/>
      <point x="398" y="15" type="curve" smooth="yes"/>
      <point x="373" y="15"/>
      <point x="354" y="36"/>
      <point x="354" y="145" type="curve" smooth="yes"/>
      <point x="354" y="339" type="line"/>
      <point x="425" y="339" type="line"/>
      <point x="425" y="364" type="line"/>
      <point x="354" y="364" type="line"/>
      <point x="354" y="485" type="line"/>
      <point x="334" y="485" type="line"/>
      <point x="331" y="363"/>
      <point x="329" y="371"/>
      <point x="278" y="358" type="curve"/>
      <point x="278" y="339" type="line"/>
      <point x="326" y="339" type="line"/>
      <point x="326" y="141" type="line" smooth="yes"/>
      <point x="326" y="23"/>
      <point x="352" y="-10"/>
    </contour>
  </outline>
</glyph>
<glyph name="uni20A8" format="2">
  <advance width="566"/>
  <unicode hex="20A8"/>
  <outline>
    <contour>
      <point x="27" y="0" type="line"/>
      <point x="188" y="0" type="line"/>
      <point x="188" y="20" type="line"/>
      <point x="178" y="20" type="line" smooth="yes"/>
      <point x="123" y="20"/>
      <point x="119" y="31"/>
      <point x="119" y="108" type="curve" smooth="yes"/>
      <point x="119" y="321" type="line"/>
      <point x="170" y="321" type="line"/>
      <point x="239" y="95" type="line" smooth="yes"/>
      <point x="259" y="21"/>
      <point x="300" y="0"/>
      <point x="336" y="0" type="curve" smooth="yes"/>
      <point x="338" y="0" type="line"/>
      <point x="338" y="15" type="line"/>
      <point x="337" y="15" type="line" smooth="yes"/>
      <point x="306" y="15"/>
      <point x="273" y="64"/>
      <point x="261" y="113" type="curve" smooth="yes"/>
      <point x="195" y="331" type="line"/>
      <point x="231" y="348"/>
      <point x="298" y="380"/>
      <point x="298" y="527" type="curve" smooth="yes"/>
      <point x="298" y="641"/>
      <point x="258" y="714"/>
      <point x="154" y="714" type="curve" smooth="yes"/>
      <point x="27" y="714" type="line"/>
      <point x="27" y="694" type="line"/>
      <point x="35" y="694" type="line" smooth="yes"/>
      <point x="85" y="694"/>
      <point x="91" y="683"/>
      <point x="91" y="605" type="curve" smooth="yes"/>
      <point x="91" y="108" type="line" smooth="yes"/>
      <point x="91" y="31"/>
      <point x="87" y="20"/>
      <point x="31" y="20" type="curve" smooth="yes"/>
      <point x="27" y="20" type="line"/>
    </contour>
    <contour>
      <point x="119" y="346" type="line"/>
      <point x="119" y="689" type="line"/>
      <point x="157" y="689" type="line" smooth="yes"/>
      <point x="233" y="689"/>
      <point x="270" y="630"/>
      <point x="270" y="527" type="curve" smooth="yes"/>
      <point x="270" y="409"/>
      <point x="226" y="346"/>
      <point x="132" y="346" type="curve" smooth="yes"/>
    </contour>
    <contour>
      <point x="427" y="-10" type="curve" smooth="yes"/>
      <point x="498" y="-10"/>
      <point x="536" y="37"/>
      <point x="536" y="123" type="curve" smooth="yes"/>
      <point x="536" y="181"/>
      <point x="516" y="237"/>
      <point x="454" y="283" type="curve" smooth="yes"/>
      <point x="401" y="327"/>
      <point x="382" y="370"/>
      <point x="382" y="419" type="curve" smooth="yes"/>
      <point x="382" y="471"/>
      <point x="398" y="515"/>
      <point x="444" y="515" type="curve" smooth="yes"/>
      <point x="494" y="515"/>
      <point x="514" y="470"/>
      <point x="514" y="406" type="curve"/>
      <point x="532" y="406"/>
      <point x="533" y="420"/>
      <point x="533" y="451" type="curve" smooth="yes"/>
      <point x="533" y="516"/>
      <point x="485" y="540"/>
      <point x="442" y="540" type="curve" smooth="yes"/>
      <point x="387" y="540"/>
      <point x="354" y="493"/>
      <point x="354" y="420" type="curve" smooth="yes"/>
      <point x="354" y="359"/>
      <point x="374" y="318"/>
      <point x="432" y="264" type="curve" smooth="yes"/>
      <point x="494" y="215"/>
      <point x="508" y="170"/>
      <point x="508" y="127" type="curve" smooth="yes"/>
      <point x="508" y="41"/>
      <point x="477" y="15"/>
      <point x="429" y="15" type="curve" smooth="yes"/>
      <point x="371" y="15"/>
      <point x="352" y="63"/>
      <point x="352" y="143" type="curve"/>
      <point x="341" y="143"/>
      <point x="334" y="129"/>
      <point x="334" y="91" type="curve" smooth="yes"/>
      <point x="334" y="52"/>
      <point x="352" y="-10"/>
    </contour>
  </outline>
</glyph>
<glyph name="uni20A9" format="2">
  <advance width="604"/>
  <unicode hex="20A9"/>
  <outline>
    <contour>
      <point x="142" y="0" type="line"/>
      <point x="170" y="0" type="line"/>
      <point x="231" y="287" type="line"/>
      <point x="378" y="287" type="line"/>
      <point x="431" y="0" type="line"/>
      <point x="459" y="0" type="line"/>
      <point x="502" y="287" type="line"/>
      <point x="591" y="287" type="line"/>
      <point x="591" y="312" type="line"/>
      <point x="507" y="312" type="line"/>
      <point x="520" y="403" type="line"/>
      <point x="591" y="403" type="line"/>
      <point x="591" y="428" type="line"/>
      <point x="524" y="428" type="line"/>
      <point x="563" y="663" type="line" smooth="yes"/>
      <point x="566" y="696"/>
      <point x="579" y="694"/>
      <point x="629" y="694" type="curve" smooth="yes"/>
      <point x="607" y="694" type="line"/>
      <point x="607" y="714" type="line"/>
      <point x="462" y="714" type="line"/>
      <point x="462" y="694" type="line"/>
      <point x="486" y="694" type="line" smooth="yes"/>
      <point x="541" y="694"/>
      <point x="537" y="680"/>
      <point x="537" y="667" type="curve" smooth="yes"/>
      <point x="537" y="652"/>
      <point x="532" y="630"/>
      <point x="526" y="592" type="curve" smooth="yes"/>
      <point x="501" y="428" type="line"/>
      <point x="378" y="428" type="line"/>
      <point x="323" y="714" type="line"/>
      <point x="295" y="714" type="line"/>
      <point x="235" y="428" type="line"/>
      <point x="118" y="428" type="line"/>
      <point x="104" y="563" type="line" smooth="yes"/>
      <point x="95" y="618"/>
      <point x="87" y="649"/>
      <point x="87" y="667" type="curve" smooth="yes"/>
      <point x="87" y="682"/>
      <point x="86" y="694"/>
      <point x="137" y="694" type="curve" smooth="yes"/>
      <point x="142" y="694" type="line"/>
      <point x="142" y="714" type="line"/>
      <point x="9" y="714" type="line"/>
      <point x="9" y="694" type="line"/>
      <point x="-8" y="694" type="line" smooth="yes"/>
      <point x="41" y="694"/>
      <point x="54" y="692"/>
      <point x="61" y="648" type="curve" smooth="yes"/>
      <point x="89" y="428" type="line"/>
      <point x="14" y="428" type="line"/>
      <point x="14" y="403" type="line"/>
      <point x="93" y="403" type="line"/>
      <point x="103" y="312" type="line"/>
      <point x="14" y="312" type="line"/>
      <point x="14" y="287" type="line"/>
      <point x="107" y="287" type="line"/>
    </contour>
    <contour>
      <point x="157" y="67" type="line"/>
      <point x="136" y="287" type="line"/>
      <point x="207" y="287" type="line"/>
    </contour>
    <contour>
      <point x="132" y="312" type="line"/>
      <point x="121" y="403" type="line"/>
      <point x="232" y="403" type="line"/>
      <point x="212" y="312" type="line"/>
    </contour>
    <contour>
      <point x="443" y="59" type="line"/>
      <point x="405" y="287" type="line"/>
      <point x="479" y="287" type="line"/>
    </contour>
    <contour>
      <point x="236" y="312" type="line"/>
      <point x="255" y="403" type="line"/>
      <point x="355" y="403" type="line"/>
      <point x="372" y="312" type="line"/>
    </contour>
    <contour>
      <point x="260" y="428" type="line"/>
      <point x="308" y="654" type="line"/>
      <point x="351" y="428" type="line"/>
    </contour>
    <contour>
      <point x="399" y="312" type="line"/>
      <point x="382" y="403" type="line"/>
      <point x="498" y="403" type="line"/>
      <point x="482" y="312" type="line"/>
    </contour>
  </outline>
</glyph>
<glyph name="sheqel" format="2">
  <advance width="571"/>
  <unicode hex="20AA"/>
  <outline>
    <contour>
      <point x="93" y="0" type="line"/>
      <point x="121" y="0" type="line"/>
      <point x="121" y="574" type="line"/>
      <point x="228" y="574" type="line" smooth="yes"/>
      <point x="327" y="574"/>
      <point x="327" y="503"/>
      <point x="327" y="343" type="curve" smooth="yes"/>
      <point x="327" y="210" type="line"/>
      <point x="355" y="210" type="line"/>
      <point x="355" y="375" type="line" smooth="yes"/>
      <point x="355" y="533"/>
      <point x="324" y="599"/>
      <point x="221" y="599" type="curve" smooth="yes"/>
      <point x="93" y="599" type="line"/>
    </contour>
    <contour>
      <point x="215" y="0" type="line"/>
      <point x="336" y="0" type="line"/>
      <point x="434" y="0"/>
      <point x="476" y="61"/>
      <point x="476" y="224" type="curve" smooth="yes"/>
      <point x="476" y="599" type="line"/>
      <point x="448" y="599" type="line"/>
      <point x="448" y="256" type="line" smooth="yes"/>
      <point x="448" y="80"/>
      <point x="429" y="25"/>
      <point x="345" y="25" type="curve" smooth="yes"/>
      <point x="243" y="25" type="line"/>
      <point x="243" y="389" type="line"/>
      <point x="215" y="389" type="line"/>
    </contour>
  </outline>
</glyph>
<glyph name="livreTournois" format="2">
  <advance width="355"/>
  <unicode hex="20B6"/>
  <outline>
    <contour>
      <point x="324" y="-10" type="curve" smooth="yes"/>
      <point x="319" y="-10"/>
      <point x="336" y="-10"/>
      <point x="348" y="-6" type="curve"/>
      <point x="348" y="18" type="line"/>
      <point x="335" y="16"/>
      <point x="317" y="15"/>
      <point x="324" y="15" type="curve" smooth="yes"/>
      <point x="267" y="15"/>
      <point x="252" y="45"/>
      <point x="252" y="147" type="curve" smooth="yes"/>
      <point x="252" y="512" type="line"/>
      <point x="343" y="512" type="line"/>
      <point x="343" y="536" type="line"/>
      <point x="252" y="536" type="line"/>
      <point x="252" y="715" type="line"/>
      <point x="224" y="715" type="line"/>
      <point x="224" y="536" type="line"/>
      <point x="140" y="536" type="line"/>
      <point x="140" y="715" type="line"/>
      <point x="112" y="715" type="line"/>
      <point x="112" y="536" type="line"/>
      <point x="40" y="536" type="line"/>
      <point x="40" y="512" type="line"/>
      <point x="112" y="512" type="line"/>
      <point x="112" y="0" type="line"/>
      <point x="140" y="0" type="line"/>
      <point x="140" y="512" type="line"/>
      <point x="224" y="512" type="line"/>
      <point x="224" y="142" type="line" smooth="yes"/>
      <point x="224" y="28"/>
      <point x="253" y="-10"/>
    </contour>
  </outline>
</glyph>
<glyph name="ruble" format="2">
  <advance width="352"/>
  <unicode hex="20BD"/>
  <outline>
    <contour>
      <point x="52" y="0" type="line"/>
      <point x="200" y="0" type="line"/>
      <point x="200" y="20" type="line"/>
      <point x="191" y="20" type="line" smooth="yes"/>
      <point x="141" y="20"/>
      <point x="135" y="31"/>
      <point x="135" y="108" type="curve" smooth="yes"/>
      <point x="135" y="195" type="line"/>
      <point x="220" y="195" type="line"/>
      <point x="220" y="220" type="line"/>
      <point x="135" y="220" type="line"/>
      <point x="135" y="336" type="line"/>
      <point x="169" y="336" type="line" smooth="yes"/>
      <point x="269" y="336"/>
      <point x="323" y="418"/>
      <point x="323" y="520" type="curve" smooth="yes"/>
      <point x="323" y="656"/>
      <point x="275" y="714"/>
      <point x="171" y="714" type="curve" smooth="yes"/>
      <point x="52" y="714" type="line"/>
      <point x="52" y="694" type="line"/>
      <point x="53" y="694" type="line" smooth="yes"/>
      <point x="101" y="694"/>
      <point x="107" y="683"/>
      <point x="107" y="607" type="curve" smooth="yes"/>
      <point x="107" y="220" type="line"/>
      <point x="48" y="220" type="line"/>
      <point x="48" y="195" type="line"/>
      <point x="107" y="195" type="line"/>
      <point x="107" y="110" type="line" smooth="yes"/>
      <point x="107" y="31"/>
      <point x="101" y="20"/>
      <point x="52" y="20" type="curve" smooth="yes"/>
      <point x="52" y="20" type="line"/>
    </contour>
    <contour>
      <point x="135" y="361" type="line"/>
      <point x="135" y="689" type="line"/>
      <point x="171" y="689" type="line" smooth="yes"/>
      <point x="264" y="689"/>
      <point x="295" y="636"/>
      <point x="295" y="520" type="curve" smooth="yes"/>
      <point x="295" y="441"/>
      <point x="259" y="361"/>
      <point x="175" y="361" type="curve" smooth="yes"/>
    </contour>
  </outline>
</glyph>
<glyph name="servicemark" format="2">
  <advance width="506"/>
  <unicode hex="2120"/>
  <outline>
    <contour>
      <point x="214" y="368" type="line"/>
      <point x="287" y="368" type="line"/>
      <point x="287" y="383" type="line"/>
      <point x="263" y="383"/>
      <point x="265" y="389"/>
      <point x="265" y="426" type="curve" smooth="yes"/>
      <point x="265" y="654" type="line"/>
      <point x="329" y="368" type="line"/>
      <point x="348" y="368" type="line"/>
      <point x="421" y="638" type="line"/>
      <point x="421" y="428" type="line" smooth="yes"/>
      <point x="421" y="387"/>
      <point x="424" y="383"/>
      <point x="393" y="383" type="curve"/>
      <point x="393" y="368" type="line"/>
      <point x="478" y="368" type="line"/>
      <point x="478" y="383" type="line"/>
      <point x="471" y="383" type="line" smooth="yes"/>
      <point x="442" y="383"/>
      <point x="445" y="387"/>
      <point x="445" y="426" type="curve" smooth="yes"/>
      <point x="445" y="649" type="line" smooth="yes"/>
      <point x="445" y="691"/>
      <point x="442" y="698"/>
      <point x="471" y="698" type="curve" smooth="yes"/>
      <point x="478" y="698" type="line"/>
      <point x="478" y="714" type="line"/>
      <point x="418" y="714" type="line"/>
      <point x="340" y="419" type="line"/>
      <point x="276" y="714" type="line"/>
      <point x="214" y="714" type="line"/>
      <point x="214" y="698" type="line"/>
      <point x="217" y="698" type="line" smooth="yes"/>
      <point x="247" y="698"/>
      <point x="240" y="692"/>
      <point x="240" y="652" type="curve" smooth="yes"/>
      <point x="240" y="423" type="line" smooth="yes"/>
      <point x="240" y="389"/>
      <point x="247" y="383"/>
      <point x="217" y="383" type="curve" smooth="yes"/>
      <point x="214" y="383" type="line"/>
    </contour>
    <contour>
      <point x="117" y="359" type="curve" smooth="yes"/>
      <point x="157" y="359"/>
      <point x="183" y="393"/>
      <point x="183" y="453" type="curve" smooth="yes"/>
      <point x="183" y="494"/>
      <point x="171" y="515"/>
      <point x="136" y="560" type="curve" smooth="yes"/>
      <point x="112" y="592"/>
      <point x="89" y="613"/>
      <point x="89" y="644" type="curve" smooth="yes"/>
      <point x="89" y="666"/>
      <point x="99" y="700"/>
      <point x="123" y="700" type="curve" smooth="yes"/>
      <point x="143" y="700"/>
      <point x="162" y="673"/>
      <point x="162" y="629" type="curve"/>
      <point x="174" y="629"/>
      <point x="172" y="647"/>
      <point x="172" y="658" type="curve" smooth="yes"/>
      <point x="172" y="707"/>
      <point x="152" y="722"/>
      <point x="129" y="722" type="curve" smooth="yes"/>
      <point x="93" y="722"/>
      <point x="64" y="690"/>
      <point x="64" y="650" type="curve" smooth="yes"/>
      <point x="64" y="602"/>
      <point x="81" y="585"/>
      <point x="123" y="538" type="curve" smooth="yes"/>
      <point x="138" y="512"/>
      <point x="158" y="491"/>
      <point x="158" y="447" type="curve" smooth="yes"/>
      <point x="158" y="413"/>
      <point x="149" y="381"/>
      <point x="119" y="381" type="curve" smooth="yes"/>
      <point x="86" y="381"/>
      <point x="71" y="423"/>
      <point x="71" y="459" type="curve"/>
      <point x="63" y="459"/>
      <point x="52" y="451"/>
      <point x="52" y="427" type="curve" smooth="yes"/>
      <point x="52" y="389"/>
      <point x="79" y="359"/>
    </contour>
  </outline>
</glyph>
<glyph name="trademark" format="2">
  <advance width="489"/>
  <unicode hex="2122"/>
  <outline>
    <contour>
      <point x="197" y="368" type="line"/>
      <point x="270" y="368" type="line"/>
      <point x="270" y="383" type="line"/>
      <point x="246" y="383"/>
      <point x="249" y="388"/>
      <point x="249" y="425" type="curve" smooth="yes"/>
      <point x="249" y="654" type="line"/>
      <point x="312" y="368" type="line"/>
      <point x="331" y="368" type="line"/>
      <point x="404" y="638" type="line"/>
      <point x="404" y="428" type="line" smooth="yes"/>
      <point x="404" y="387"/>
      <point x="407" y="383"/>
      <point x="376" y="383" type="curve"/>
      <point x="376" y="368" type="line"/>
      <point x="462" y="368" type="line"/>
      <point x="462" y="383" type="line"/>
      <point x="454" y="383" type="line" smooth="yes"/>
      <point x="426" y="383"/>
      <point x="428" y="387"/>
      <point x="428" y="426" type="curve" smooth="yes"/>
      <point x="428" y="650" type="line" smooth="yes"/>
      <point x="428" y="692"/>
      <point x="426" y="698"/>
      <point x="454" y="698" type="curve" smooth="yes"/>
      <point x="462" y="698" type="line"/>
      <point x="462" y="714" type="line"/>
      <point x="401" y="714" type="line"/>
      <point x="323" y="419" type="line"/>
      <point x="259" y="714" type="line"/>
      <point x="197" y="714" type="line"/>
      <point x="197" y="698" type="line"/>
      <point x="200" y="698" type="line" smooth="yes"/>
      <point x="230" y="698"/>
      <point x="224" y="692"/>
      <point x="224" y="652" type="curve" smooth="yes"/>
      <point x="224" y="422" type="line" smooth="yes"/>
      <point x="224" y="388"/>
      <point x="230" y="383"/>
      <point x="200" y="383" type="curve" smooth="yes"/>
      <point x="197" y="383" type="line"/>
    </contour>
    <contour>
      <point x="52" y="368" type="line"/>
      <point x="159" y="368" type="line"/>
      <point x="159" y="383" type="line"/>
      <point x="150" y="383" type="line" smooth="yes"/>
      <point x="119" y="383"/>
      <point x="120" y="391"/>
      <point x="120" y="426" type="curve" smooth="yes"/>
      <point x="120" y="689" type="line"/>
      <point x="152" y="689" type="line" smooth="yes"/>
      <point x="177" y="689"/>
      <point x="176" y="687"/>
      <point x="177" y="654" type="curve" smooth="yes"/>
      <point x="177" y="626" type="line"/>
      <point x="200" y="626" type="line"/>
      <point x="199" y="714" type="line"/>
      <point x="18" y="714" type="line"/>
      <point x="17" y="626" type="line"/>
      <point x="40" y="626" type="line"/>
      <point x="39" y="654" type="line" smooth="yes"/>
      <point x="38" y="685"/>
      <point x="39" y="689"/>
      <point x="66" y="689" type="curve" smooth="yes"/>
      <point x="96" y="689" type="line"/>
      <point x="96" y="427" type="line" smooth="yes"/>
      <point x="96" y="390"/>
      <point x="95" y="383"/>
      <point x="66" y="383" type="curve" smooth="yes"/>
      <point x="52" y="383" type="line"/>
    </contour>
  </outline>
</glyph>
<glyph name="versicle" format="2">
  <advance width="393"/>
  <unicode hex="2123"/>
  <anchor x="196" y="714" name="top"/>
  <anchor x="373" y="714" name="topright"/>
  <anchor x="196" y="0" name="bottom"/>
  <outline>
    <contour>
      <point x="66" y="-118" type="line"/>
      <point x="92" y="-119" type="line"/>
      <point x="270" y="790" type="line"/>
      <point x="138" y="858" type="line"/>
      <point x="132" y="839" type="line"/>
      <point x="245" y="778" type="line"/>
    </contour>
    <component base="V"/>
  </outline>
</glyph>
<glyph name="ZDoubleStruck" format="2">
  <advance width="375"/>
  <unicode hex="2124"/>
  <outline>
    <contour>
      <point x="23" y="0" type="line"/>
      <point x="348" y="0" type="line"/>
      <point x="348" y="53" type="line"/>
      <point x="137" y="53" type="line"/>
      <point x="351" y="661" type="line"/>
      <point x="351" y="714" type="line"/>
      <point x="40" y="714" type="line"/>
      <point x="40" y="661" type="line"/>
      <point x="241" y="661" type="line"/>
      <point x="23" y="53" type="line"/>
    </contour>
    <contour>
      <point x="58" y="53" type="line"/>
      <point x="277" y="661" type="line"/>
      <point x="320" y="661" type="line"/>
      <point x="103" y="53" type="line"/>
    </contour>
  </outline>
</glyph>
<glyph name="uni2C62" format="2">
  <advance width="371"/>
  <unicode hex="2C62"/>
  <anchor x="185" y="0" name="bottom"/>
  <anchor x="185" y="714" name="top"/>
  <anchor x="351" y="714" name="topright"/>
  <anchor x="192" y="357" name="center"/>
  <outline>
    <contour>
      <point x="15" y="313" type="curve"/>
      <point x="42" y="313" type="line"/>
      <point x="42" y="347"/>
      <point x="49" y="368"/>
      <point x="67" y="368" type="curve" smooth="yes"/>
      <point x="93" y="368"/>
      <point x="108" y="295"/>
      <point x="157" y="295" type="curve" smooth="yes"/>
      <point x="203" y="295"/>
      <point x="208" y="345"/>
      <point x="212" y="382" type="curve"/>
      <point x="185" y="382" type="line"/>
      <point x="183" y="350"/>
      <point x="177" y="324"/>
      <point x="155" y="324" type="curve" smooth="yes"/>
      <point x="118" y="324"/>
      <point x="103" y="397"/>
      <point x="64" y="397" type="curve" smooth="yes"/>
      <point x="19" y="397"/>
      <point x="19" y="352"/>
    </contour>
    <component base="L" xOffset="13"/>
  </outline>
</glyph>
<glyph name="uni2C63" format="2">
  <advance width="347"/>
  <unicode hex="2C63"/>
  <anchor x="174" y="0" name="bottom"/>
  <anchor x="174" y="714" name="top"/>
  <anchor x="335" y="714" name="topright"/>
  <outline>
    <contour>
      <point x="24" y="495" type="line"/>
      <point x="196" y="495" type="line"/>
      <point x="196" y="520" type="line"/>
      <point x="24" y="520" type="line"/>
    </contour>
    <component base="P"/>
  </outline>
</glyph>
<glyph name="uni2C69" format="2">
  <advance width="450"/>
  <unicode hex="2C69"/>
  <anchor x="225" y="0" name="bottom"/>
  <anchor x="225" y="714" name="top"/>
  <outline>
    <contour>
      <point x="416" y="-210" type="curve"/>
      <point x="436" y="-210" type="line"/>
      <point x="436" y="17" type="line"/>
      <point x="431" y="17" type="line" smooth="yes"/>
      <point x="351" y="17"/>
      <point x="328" y="101"/>
      <point x="335" y="106" type="curve" smooth="yes"/>
      <point x="204" y="413" type="line"/>
      <point x="293" y="580" type="line" smooth="yes"/>
      <point x="348" y="673"/>
      <point x="350" y="695"/>
      <point x="387" y="694" type="curve"/>
      <point x="387" y="714" type="line"/>
      <point x="275" y="714" type="line"/>
      <point x="275" y="694" type="line"/>
      <point x="307" y="694"/>
      <point x="320" y="687"/>
      <point x="320" y="681" type="curve" smooth="yes"/>
      <point x="320" y="668"/>
      <point x="306" y="648"/>
      <point x="269" y="583" type="curve" smooth="yes"/>
      <point x="112" y="290" type="line"/>
      <point x="112" y="608" type="line" smooth="yes"/>
      <point x="112" y="683"/>
      <point x="119" y="694"/>
      <point x="167" y="694" type="curve" smooth="yes"/>
      <point x="181" y="694" type="line"/>
      <point x="181" y="714" type="line"/>
      <point x="27" y="714" type="line"/>
      <point x="27" y="694" type="line"/>
      <point x="29" y="694" type="line" smooth="yes"/>
      <point x="77" y="694"/>
      <point x="84" y="683"/>
      <point x="84" y="608" type="curve" smooth="yes"/>
      <point x="84" y="108" type="line" smooth="yes"/>
      <point x="84" y="31"/>
      <point x="78" y="20"/>
      <point x="27" y="20" type="curve" smooth="yes"/>
      <point x="27" y="20" type="line"/>
      <point x="27" y="0" type="line"/>
      <point x="180" y="0" type="line"/>
      <point x="180" y="20" type="line"/>
      <point x="167" y="20" type="line" smooth="yes"/>
      <point x="117" y="20"/>
      <point x="112" y="31"/>
      <point x="112" y="115" type="curve" smooth="yes"/>
      <point x="112" y="242" type="line"/>
      <point x="189" y="384" type="line"/>
      <point x="320" y="79" type="line" smooth="yes"/>
      <point x="334" y="35"/>
      <point x="338" y="27"/>
      <point x="386" y="-7" type="curve" smooth="yes"/>
      <point x="412" y="-25"/>
      <point x="416" y="-41"/>
    </contour>
  </outline>
</glyph>
<glyph name="uni2C75" format="2">
  <advance width="317"/>
  <unicode hex="2C75"/>
  <anchor x="158" y="0" name="bottom"/>
  <anchor x="158" y="714" name="top"/>
  <outline>
    <contour>
      <point x="28" y="0" type="line"/>
      <point x="180" y="0" type="line"/>
      <point x="180" y="20" type="line"/>
      <point x="167" y="20" type="line" smooth="yes"/>
      <point x="118" y="20"/>
      <point x="112" y="31"/>
      <point x="112" y="108" type="curve" smooth="yes"/>
      <point x="112" y="361" type="line"/>
      <point x="296" y="361" type="line"/>
      <point x="296" y="386" type="line"/>
      <point x="112" y="386" type="line"/>
      <point x="112" y="607" type="line" smooth="yes"/>
      <point x="112" y="683"/>
      <point x="119" y="694"/>
      <point x="167" y="694" type="curve" smooth="yes"/>
      <point x="180" y="694" type="line"/>
      <point x="180" y="714" type="line"/>
      <point x="28" y="714" type="line"/>
      <point x="28" y="694" type="line"/>
      <point x="28" y="694" type="line" smooth="yes"/>
      <point x="78" y="694"/>
      <point x="84" y="683"/>
      <point x="84" y="607" type="curve" smooth="yes"/>
      <point x="84" y="108" type="line" smooth="yes"/>
      <point x="84" y="31"/>
      <point x="79" y="20"/>
      <point x="27" y="20" type="curve" smooth="yes"/>
      <point x="28" y="20" type="line"/>
    </contour>
  </outline>
</glyph>
<glyph name="rightdottedsubstitutionbracket" format="2">
  <advance width="204"/>
  <unicode hex="2E05"/>
  <outline>
    <contour>
      <point x="130" y="246" type="line"/>
      <point x="174" y="246" type="line"/>
      <point x="174" y="597" type="line"/>
      <point x="50" y="724" type="line"/>
      <point x="30" y="662" type="line"/>
      <point x="130" y="558" type="line"/>
    </contour>
    <contour>
      <point x="59" y="419" type="curve" smooth="yes"/>
      <point x="77" y="419"/>
      <point x="89" y="435"/>
      <point x="89" y="475" type="curve" smooth="yes"/>
      <point x="89" y="512"/>
      <point x="81" y="531"/>
      <point x="59" y="531" type="curve" smooth="yes"/>
      <point x="39" y="531"/>
      <point x="30" y="511"/>
      <point x="30" y="475" type="curve" smooth="yes"/>
      <point x="30" y="435"/>
      <point x="40" y="419"/>
    </contour>
  </outline>
</glyph>
<glyph name="raisedsquare" format="2">
  <advance width="304"/>
  <unicode hex="2E0B"/>
  <outline>
    <contour>
      <point x="31" y="305" type="line"/>
      <point x="273" y="305" type="line"/>
      <point x="273" y="714" type="line"/>
      <point x="31" y="714" type="line"/>
    </contour>
    <contour>
      <point x="74" y="375" type="line"/>
      <point x="74" y="644" type="line"/>
      <point x="232" y="644" type="line"/>
      <point x="232" y="375" type="line"/>
    </contour>
  </outline>
</glyph>
<glyph name="dottedobelos" format="2">
  <advance width="447"/>
  <unicode hex="2E13"/>
  <outline>
    <contour>
      <point x="58" y="0" type="line"/>
      <point x="88" y="0" type="line"/>
      <point x="399" y="714" type="line"/>
      <point x="372" y="714" type="line"/>
    </contour>
    <contour>
      <point x="82" y="465" type="curve" smooth="yes"/>
      <point x="94" y="465"/>
      <point x="107" y="475"/>
      <point x="107" y="503" type="curve" smooth="yes"/>
      <point x="107" y="533"/>
      <point x="94" y="544"/>
      <point x="82" y="544" type="curve" smooth="yes"/>
      <point x="63" y="544"/>
      <point x="51" y="533"/>
      <point x="51" y="503" type="curve" smooth="yes"/>
      <point x="51" y="475"/>
      <point x="63" y="465"/>
    </contour>
    <contour>
      <point x="368" y="172" type="curve" smooth="yes"/>
      <point x="381" y="172"/>
      <point x="394" y="183"/>
      <point x="394" y="211" type="curve" smooth="yes"/>
      <point x="394" y="241"/>
      <point x="381" y="252"/>
      <point x="368" y="252" type="curve" smooth="yes"/>
      <point x="350" y="252"/>
      <point x="337" y="241"/>
      <point x="337" y="211" type="curve" smooth="yes"/>
      <point x="337" y="183"/>
      <point x="350" y="172"/>
    </contour>
  </outline>
</glyph>
<glyph name="leftverticalbarwithquill" format="2">
  <advance width="332"/>
  <unicode hex="2E20"/>
  <outline>
    <contour>
      <point x="153" y="-240" type="line"/>
      <point x="181" y="-240" type="line"/>
      <point x="181" y="247" type="line"/>
      <point x="298" y="247" type="line"/>
      <point x="298" y="277" type="line"/>
      <point x="181" y="277" type="line"/>
      <point x="181" y="760" type="line"/>
      <point x="153" y="760" type="line"/>
    </contour>
  </outline>
</glyph>
<glyph name="rightverticalbarwithquill" format="2">
  <advance width="336"/>
  <unicode hex="2E21"/>
  <outline>
    <contour>
      <point x="149" y="-240" type="line"/>
      <point x="179" y="-240" type="line"/>
      <point x="179" y="760" type="line"/>
      <point x="149" y="760" type="line"/>
      <point x="149" y="277" type="line"/>
      <point x="35" y="277" type="line"/>
      <point x="35" y="247" type="line"/>
      <point x="149" y="247" type="line"/>
    </contour>
  </outline>
</glyph>
<glyph name="rightsidewaysubracket" format="2">
  <advance width="597"/>
  <unicode hex="2E27"/>
  <outline>
    <contour>
      <point x="125" y="193" type="line"/>
      <point x="295" y="193" type="line" smooth="yes"/>
      <point x="380" y="193"/>
      <point x="469" y="195"/>
      <point x="469" y="354" type="curve" smooth="yes"/>
      <point x="469" y="513"/>
      <point x="381" y="515"/>
      <point x="295" y="515" type="curve" smooth="yes"/>
      <point x="125" y="515" type="line"/>
      <point x="125" y="467" type="line"/>
      <point x="295" y="467" type="line" smooth="yes"/>
      <point x="371" y="467"/>
      <point x="443" y="471"/>
      <point x="443" y="354" type="curve" smooth="yes"/>
      <point x="443" y="237"/>
      <point x="371" y="241"/>
      <point x="295" y="241" type="curve" smooth="yes"/>
      <point x="125" y="241" type="line"/>
    </contour>
  </outline>
</glyph>
<glyph name="verticaltilde" format="2">
  <advance width="195"/>
  <unicode hex="2E2F"/>
  <outline>
    <contour>
      <point x="76" y="612" type="line"/>
      <point x="115" y="619"/>
      <point x="151" y="620"/>
      <point x="151" y="665" type="curve" smooth="yes"/>
      <point x="151" y="711"/>
      <point x="91" y="741"/>
      <point x="91" y="768" type="curve" smooth="yes"/>
      <point x="91" y="788"/>
      <point x="106" y="793"/>
      <point x="139" y="797" type="curve"/>
      <point x="139" y="822" type="line"/>
      <point x="112" y="815"/>
      <point x="63" y="816"/>
      <point x="63" y="770" type="curve" smooth="yes"/>
      <point x="63" y="728"/>
      <point x="123" y="705"/>
      <point x="123" y="668" type="curve" smooth="yes"/>
      <point x="123" y="648"/>
      <point x="107" y="642"/>
      <point x="76" y="637" type="curve"/>
    </contour>
  </outline>
</glyph>
<glyph name="uni2E42" format="2">
  <advance width="274"/>
  <unicode hex="2E42"/>
  <outline>
    <contour>
      <point x="235" y="-167" type="curve"/>
      <point x="235" y="-132" type="line"/>
      <point x="174" y="-95"/>
      <point x="169" y="-65"/>
      <point x="169" y="-27" type="curve" smooth="yes"/>
      <point x="169" y="48"/>
      <point x="205" y="46"/>
      <point x="205" y="80" type="curve" smooth="yes"/>
      <point x="205" y="86"/>
      <point x="200" y="102"/>
      <point x="179" y="102" type="curve" smooth="yes"/>
      <point x="147" y="102"/>
      <point x="136" y="53"/>
      <point x="136" y="4" type="curve" smooth="yes"/>
      <point x="136" y="-79"/>
      <point x="151" y="-113"/>
    </contour>
    <contour>
      <point x="180" y="-167" type="curve"/>
      <point x="180" y="-132" type="line"/>
      <point x="119" y="-95"/>
      <point x="114" y="-65"/>
      <point x="114" y="-27" type="curve" smooth="yes"/>
      <point x="114" y="48"/>
      <point x="150" y="46"/>
      <point x="150" y="80" type="curve" smooth="yes"/>
      <point x="150" y="86"/>
      <point x="145" y="102"/>
      <point x="124" y="102" type="curve" smooth="yes"/>
      <point x="92" y="102"/>
      <point x="81" y="53"/>
      <point x="81" y="4" type="curve" smooth="yes"/>
      <point x="81" y="-79"/>
      <point x="96" y="-113"/>
    </contour>
  </outline>
</glyph>
<glyph name="uniA64A" format="2">
  <advance width="482"/>
  <unicode hex="A64A"/>
  <outline>
    <contour>
      <point x="250" y="-12" type="curve" smooth="yes"/>
      <point x="345" y="-12"/>
      <point x="442" y="69"/>
      <point x="442" y="223" type="curve" smooth="yes"/>
      <point x="442" y="327"/>
      <point x="399" y="401"/>
      <point x="315" y="432" type="curve"/>
      <point x="412" y="663" type="line" smooth="yes"/>
      <point x="428" y="702"/>
      <point x="432" y="694"/>
      <point x="454" y="694" type="curve" smooth="yes"/>
      <point x="440" y="694" type="line"/>
      <point x="440" y="714" type="line"/>
      <point x="317" y="714" type="line"/>
      <point x="317" y="694" type="line"/>
      <point x="356" y="694" type="line" smooth="yes"/>
      <point x="390" y="694"/>
      <point x="383" y="680"/>
      <point x="383" y="677" type="curve" smooth="yes"/>
      <point x="383" y="674"/>
      <point x="388" y="670"/>
      <point x="370" y="634" type="curve"/>
      <point x="254" y="353" type="line"/>
      <point x="135" y="618" type="line"/>
      <point x="121" y="649"/>
      <point x="107" y="671"/>
      <point x="107" y="681" type="curve" smooth="yes"/>
      <point x="107" y="687"/>
      <point x="100" y="694"/>
      <point x="145" y="694" type="curve" smooth="yes"/>
      <point x="169" y="694" type="line"/>
      <point x="169" y="714" type="line"/>
      <point x="48" y="714" type="line"/>
      <point x="48" y="694" type="line"/>
      <point x="36" y="694" type="line" smooth="yes"/>
      <point x="61" y="694"/>
      <point x="66" y="693"/>
      <point x="87" y="648" type="curve" smooth="yes"/>
      <point x="188" y="432" type="line"/>
      <point x="84" y="392"/>
      <point x="61" y="324"/>
      <point x="61" y="201" type="curve" smooth="yes"/>
      <point x="61" y="74"/>
      <point x="137" y="-12"/>
    </contour>
    <contour>
      <point x="250" y="13" type="curve" smooth="yes"/>
      <point x="141" y="13"/>
      <point x="89" y="102"/>
      <point x="89" y="202" type="curve" smooth="yes"/>
      <point x="89" y="312"/>
      <point x="121" y="373"/>
      <point x="201" y="409" type="curve"/>
      <point x="239" y="322" type="line"/>
      <point x="225" y="279"/>
      <point x="212" y="227"/>
      <point x="212" y="174" type="curve" smooth="yes"/>
      <point x="212" y="129"/>
      <point x="232" y="111"/>
      <point x="255" y="111" type="curve" smooth="yes"/>
      <point x="274" y="111"/>
      <point x="289" y="134"/>
      <point x="289" y="158" type="curve" smooth="yes"/>
      <point x="289" y="167"/>
      <point x="287" y="171"/>
      <point x="286" y="176" type="curve"/>
      <point x="282" y="160"/>
      <point x="271" y="134"/>
      <point x="252" y="134" type="curve" smooth="yes"/>
      <point x="243" y="134"/>
      <point x="235" y="148"/>
      <point x="235" y="175" type="curve" smooth="yes"/>
      <point x="235" y="217"/>
      <point x="247" y="260"/>
      <point x="293" y="356" type="curve" smooth="yes"/>
      <point x="306" y="412" type="line"/>
      <point x="395" y="376"/>
      <point x="414" y="295"/>
      <point x="414" y="226" type="curve" smooth="yes"/>
      <point x="414" y="105"/>
      <point x="357" y="13"/>
    </contour>
  </outline>
</glyph>
<glyph name="uniA654" format="2">
  <advance width="591"/>
  <unicode hex="A654"/>
  <outline>
    <contour>
      <point x="208" y="-10" type="curve" smooth="yes"/>
      <point x="306" y="-10"/>
      <point x="380" y="117"/>
      <point x="380" y="364" type="curve"/>
      <point x="478" y="364" type="line"/>
      <point x="478" y="108" type="line" smooth="yes"/>
      <point x="478" y="31"/>
      <point x="472" y="20"/>
      <point x="422" y="20" type="curve" smooth="yes"/>
      <point x="409" y="20" type="line"/>
      <point x="409" y="0" type="line"/>
      <point x="564" y="0" type="line"/>
      <point x="564" y="20" type="line"/>
      <point x="562" y="20" type="line" smooth="yes"/>
      <point x="512" y="20"/>
      <point x="506" y="31"/>
      <point x="506" y="108" type="curve" smooth="yes"/>
      <point x="506" y="607" type="line" smooth="yes"/>
      <point x="506" y="683"/>
      <point x="513" y="694"/>
      <point x="561" y="694" type="curve" smooth="yes"/>
      <point x="564" y="694" type="line"/>
      <point x="564" y="714" type="line"/>
      <point x="409" y="714" type="line"/>
      <point x="409" y="694" type="line"/>
      <point x="424" y="694" type="line" smooth="yes"/>
      <point x="472" y="694"/>
      <point x="478" y="683"/>
      <point x="478" y="607" type="curve" smooth="yes"/>
      <point x="478" y="389" type="line"/>
      <point x="380" y="389" type="line"/>
      <point x="373" y="611"/>
      <point x="308" y="725"/>
      <point x="206" y="725" type="curve" smooth="yes"/>
      <point x="85" y="725"/>
      <point x="35" y="622"/>
      <point x="35" y="357" type="curve" smooth="yes"/>
      <point x="35" y="125"/>
      <point x="105" y="-10"/>
    </contour>
    <contour>
      <point x="208" y="15" type="curve" smooth="yes"/>
      <point x="112" y="15"/>
      <point x="63" y="148"/>
      <point x="63" y="358" type="curve" smooth="yes"/>
      <point x="63" y="575"/>
      <point x="90" y="700"/>
      <point x="206" y="700" type="curve" smooth="yes"/>
      <point x="302" y="700"/>
      <point x="352" y="575"/>
      <point x="352" y="358" type="curve" smooth="yes"/>
      <point x="352" y="158"/>
      <point x="296" y="15"/>
    </contour>
  </outline>
</glyph>
<glyph name="uniA663" format="2">
  <advance width="435"/>
  <unicode hex="A663"/>
  <outline>
    <contour>
      <point x="10" y="-210" type="line"/>
      <point x="30" y="-210" type="line"/>
      <point x="27" y="-204" type="line" smooth="yes"/>
      <point x="27" y="-30"/>
      <point x="52" y="0"/>
      <point x="173" y="0" type="curve" smooth="yes"/>
      <point x="193" y="0" type="line" smooth="yes"/>
      <point x="325" y="0"/>
      <point x="344" y="-41"/>
      <point x="345" y="-219" type="curve" smooth="yes"/>
      <point x="343" y="-210" type="line"/>
      <point x="363" y="-210" type="line"/>
      <point x="363" y="17" type="line"/>
      <point x="362" y="17" type="line" smooth="yes"/>
      <point x="293" y="17"/>
      <point x="288" y="17"/>
      <point x="288" y="108" type="curve" smooth="yes"/>
      <point x="288" y="511" type="line"/>
      <point x="353" y="511" type="line" smooth="yes"/>
      <point x="398" y="511"/>
      <point x="405" y="506"/>
      <point x="404" y="394" type="curve" smooth="yes"/>
      <point x="401" y="398" type="line"/>
      <point x="421" y="398" type="line"/>
      <point x="424" y="536" type="line"/>
      <point x="66" y="536" type="line"/>
      <point x="66" y="516" type="line"/>
      <point x="72" y="516" type="line" smooth="yes"/>
      <point x="133" y="516"/>
      <point x="146" y="508"/>
      <point x="146" y="437" type="curve" smooth="yes"/>
      <point x="146" y="434"/>
      <point x="130" y="319"/>
      <point x="113" y="234" type="curve" smooth="yes"/>
      <point x="94" y="138"/>
      <point x="70" y="62"/>
      <point x="48" y="25" type="curve"/>
      <point x="10" y="25" type="line"/>
    </contour>
    <contour>
      <point x="73" y="25" type="line"/>
      <point x="130" y="143"/>
      <point x="175" y="398"/>
      <point x="168" y="511" type="curve"/>
      <point x="260" y="511" type="line"/>
      <point x="260" y="25" type="line"/>
    </contour>
  </outline>
</glyph>
<glyph name="uniA67D" format="2">
  <unicode hex="A67D"/>
  <anchor x="1" y="536" name="_top"/>
  <outline>
    <contour>
      <point x="28" y="606" type="line"/>
      <point x="56" y="606" type="line"/>
      <point x="71" y="817" type="line"/>
      <point x="46" y="817" type="line"/>
      <point x="39" y="720" type="line"/>
      <point x="-40" y="720"/>
      <point x="-43" y="738"/>
      <point x="-43" y="785" type="curve" smooth="yes"/>
      <point x="-43" y="798"/>
      <point x="-42" y="807"/>
      <point x="-42" y="817" type="curve"/>
      <point x="-69" y="817" type="line"/>
      <point x="-70" y="808"/>
      <point x="-71" y="797"/>
      <point x="-71" y="783" type="curve" smooth="yes"/>
      <point x="-71" y="718"/>
      <point x="-42" y="696"/>
      <point x="36" y="696" type="curve"/>
    </contour>
  </outline>
</glyph>
<glyph name="uniA68F" format="2">
  <advance width="389"/>
  <unicode hex="A68F"/>
  <outline>
    <contour>
      <point x="178" y="-245" type="curve" smooth="yes"/>
      <point x="264" y="-245" type="line" smooth="yes"/>
      <point x="372" y="-245"/>
      <point x="400" y="-172"/>
      <point x="400" y="-111" type="curve" smooth="yes"/>
      <point x="400" y="-54"/>
      <point x="381" y="-25"/>
      <point x="366" y="-10" type="curve" smooth="yes"/>
      <point x="301" y="33"/>
      <point x="298" y="39"/>
      <point x="298" y="136" type="curve" smooth="yes"/>
      <point x="298" y="439" type="line" smooth="yes"/>
      <point x="298" y="509"/>
      <point x="303" y="516"/>
      <point x="364" y="516" type="curve" smooth="yes"/>
      <point x="362" y="516" type="line"/>
      <point x="362" y="536" type="line"/>
      <point x="208" y="536" type="line"/>
      <point x="208" y="516" type="line"/>
      <point x="210" y="516" type="line" smooth="yes"/>
      <point x="264" y="516"/>
      <point x="270" y="509"/>
      <point x="270" y="439" type="curve" smooth="yes"/>
      <point x="270" y="25" type="line"/>
      <point x="108" y="25" type="line"/>
      <point x="108" y="439" type="line" smooth="yes"/>
      <point x="108" y="511"/>
      <point x="113" y="516"/>
      <point x="175" y="516" type="curve" smooth="yes"/>
      <point x="168" y="516" type="line"/>
      <point x="168" y="536" type="line"/>
      <point x="14" y="536" type="line"/>
      <point x="14" y="516" type="line"/>
      <point x="19" y="516" type="line" smooth="yes"/>
      <point x="73" y="516"/>
      <point x="80" y="511"/>
      <point x="80" y="439" type="curve" smooth="yes"/>
      <point x="80" y="97" type="line" smooth="yes"/>
      <point x="80" y="27"/>
      <point x="73" y="20"/>
      <point x="19" y="20" type="curve" smooth="yes"/>
      <point x="14" y="20" type="line"/>
      <point x="14" y="0" type="line"/>
      <point x="237" y="0" type="line" smooth="yes"/>
      <point x="362" y="0"/>
      <point x="372" y="-50"/>
      <point x="372" y="-108" type="curve" smooth="yes"/>
      <point x="372" y="-172"/>
      <point x="357" y="-220"/>
      <point x="262" y="-220" type="curve" smooth="yes"/>
      <point x="182" y="-220" type="line" smooth="yes"/>
      <point x="114" y="-220"/>
      <point x="99" y="-199"/>
      <point x="99" y="-168" type="curve" smooth="yes"/>
      <point x="99" y="-136"/>
      <point x="114" y="-115"/>
      <point x="182" y="-115" type="curve" smooth="yes"/>
      <point x="265" y="-115" type="line"/>
      <point x="265" y="-90" type="line"/>
      <point x="177" y="-90" type="line" smooth="yes"/>
      <point x="90" y="-90"/>
      <point x="71" y="-128"/>
      <point x="71" y="-169" type="curve" smooth="yes"/>
      <point x="71" y="-214"/>
      <point x="91" y="-245"/>
    </contour>
  </outline>
</glyph>
